<?xml version="1.0" standalone="no"?>
<!DOCTYPE svg PUBLIC "-//W3C//DTD SVG 20010904//EN"
 "http://www.w3.org/TR/2001/REC-SVG-20010904/DTD/svg10.dtd">
<svg version="1.0" xmlns="http://www.w3.org/2000/svg"
 width="682.000000pt" height="682.000000pt" viewBox="0 0 682.000000 682.000000"
 preserveAspectRatio="xMidYMid meet">
<metadata>
Created by potrace 1.14, written by Peter Selinger 2001-2017
</metadata>
<g transform="translate(0.000000,682.000000) scale(0.100000,-0.100000)"
fill="#000000" stroke="none">
<path d="M3509 6125 c-3 -2 -27 -7 -54 -11 -28 -3 -59 -8 -70 -10 -11 -2 -31
-6 -45 -9 -208 -40 -482 -162 -660 -294 -19 -14 -39 -29 -45 -33 -5 -4 -23
-19 -40 -34 -16 -14 -39 -34 -50 -43 -50 -39 -206 -239 -255 -326 -75 -130
-159 -338 -174 -426 -3 -19 -8 -45 -11 -59 -6 -26 -23 -155 -24 -180 -10 -187
7 -352 54 -534 36 -142 146 -372 242 -505 62 -87 264 -301 283 -301 5 0 15 -6
22 -13 73 -73 352 -211 468 -233 14 -3 34 -8 45 -11 11 -3 34 -7 50 -9 40 -3
114 -13 145 -19 14 -2 40 -7 59 -10 19 -3 37 -7 40 -9 3 -2 22 -7 41 -10 19
-3 67 -15 105 -27 94 -28 105 -28 145 -7 78 42 132 168 132 308 1 188 -84 407
-261 675 -68 103 -160 235 -193 276 -15 20 -28 41 -28 47 0 6 -4 12 -8 14 -5
2 -40 50 -78 108 -38 58 -71 107 -74 110 -25 25 -160 303 -184 377 -31 101
-43 180 -41 291 2 101 0 110 -15 102 -24 -13 -87 -85 -121 -138 -31 -48 -76
-177 -84 -241 -6 -43 -7 -168 -1 -196 2 -11 7 -45 11 -75 9 -71 68 -245 110
-327 18 -35 29 -65 25 -68 -13 -8 -94 51 -124 89 -15 20 -30 35 -32 33 -22
-22 -36 -321 -21 -442 23 -182 116 -388 257 -565 l35 -44 -40 29 c-357 260
-592 629 -641 1005 -9 67 -9 299 0 355 18 116 67 297 88 320 4 5 8 17 8 27 0
10 5 18 12 18 6 0 9 3 5 6 -3 4 8 32 25 63 17 31 38 69 47 86 9 16 22 36 29
43 6 7 12 16 12 20 0 4 10 19 23 34 12 15 33 42 47 60 58 77 193 204 315 296
6 4 44 28 85 53 64 38 111 61 225 109 51 21 179 56 242 65 23 3 57 8 75 11 50
7 245 6 313 -2 33 -4 70 -7 83 -8 12 -1 22 -5 22 -9 0 -5 4 -6 8 -3 12 7 191
-39 292 -76 209 -76 475 -234 635 -377 61 -55 195 -194 195 -202 0 -4 7 -10
15 -13 11 -4 9 4 -7 27 -13 17 -28 40 -33 49 -52 86 -210 277 -276 333 -173
146 -277 216 -433 291 -109 52 -309 124 -346 124 -10 0 -22 5 -25 10 -4 6 -11
8 -16 4 -5 -3 -24 -1 -42 5 -17 5 -52 13 -77 16 -53 8 -435 17 -441 10z"/>
<path d="M1749 5983 c-7 -66 -44 -173 -60 -173 -5 0 -9 -6 -9 -13 0 -12 -157
-214 -196 -255 -7 -7 -30 -34 -51 -60 -21 -26 -41 -49 -44 -52 -11 -10 -94
-136 -116 -176 -28 -52 -60 -147 -68 -204 -4 -24 -9 -48 -11 -52 -3 -5 -2 -8
3 -8 4 0 7 -21 6 -47 -4 -120 89 -327 204 -453 13 -14 23 -29 23 -35 0 -5 4
-4 9 4 5 8 6 24 2 35 -9 28 -5 79 10 135 15 55 90 220 118 260 11 15 18 31 14
35 -3 3 -1 6 5 6 7 0 12 5 12 10 0 6 18 39 40 74 22 35 40 68 40 74 0 6 3 12
8 14 12 5 68 116 105 209 65 160 82 314 52 449 -21 91 -20 88 -54 163 -30 63
-40 77 -42 60z"/>
<path d="M3415 5517 c-52 -61 -104 -149 -125 -212 -20 -59 -21 -62 -26 -153
-5 -97 12 -188 52 -288 29 -73 122 -236 158 -275 11 -14 43 -51 71 -84 72 -87
147 -155 170 -155 31 0 209 117 278 181 44 42 57 61 51 72 -5 8 -52 43 -104
78 -216 144 -377 351 -454 580 -25 78 -55 223 -50 253 3 19 -7 20 -21 3z"/>
<path d="M3650 5297 c0 -17 17 -71 36 -114 8 -17 14 -34 14 -38 0 -15 91 -143
131 -185 89 -92 236 -193 243 -167 3 6 9 26 14 44 23 71 8 215 -30 287 -31 59
-123 147 -149 142 -3 -1 -13 5 -22 13 -10 7 -17 11 -17 8 0 -3 -15 0 -32 7
-48 19 -188 22 -188 3z"/>
<path d="M1019 5157 c-26 -45 -60 -112 -78 -149 -33 -73 -106 -278 -115 -324
-3 -16 -12 -56 -20 -89 -8 -33 -16 -76 -19 -95 -16 -103 -20 -125 -23 -129 -3
-3 -25 -4 -49 -2 -28 1 -45 -2 -45 -9 0 -6 15 -32 33 -58 28 -41 32 -56 33
-112 1 -76 14 -252 19 -260 2 -3 6 -23 9 -45 9 -56 65 -254 82 -287 8 -15 14
-31 15 -35 0 -17 115 -242 142 -278 4 -5 37 -50 74 -100 79 -107 239 -271 342
-349 40 -31 75 -56 77 -56 8 0 4 7 -17 31 -68 77 -209 279 -209 298 0 6 -3 11
-8 11 -6 0 -33 51 -38 70 0 3 -11 27 -23 53 -12 26 -24 56 -26 65 -3 9 -9 36
-15 60 -31 127 -3 306 58 370 6 7 12 16 12 20 0 16 47 60 57 54 6 -4 23 -56
37 -115 50 -199 113 -306 267 -457 53 -52 143 -140 199 -195 97 -95 187 -198
240 -275 13 -19 27 -37 30 -40 6 -6 15 -21 80 -132 163 -280 321 -716 429
-1188 12 -52 25 -106 28 -120 4 -14 8 -32 9 -40 2 -8 14 -69 28 -135 31 -150
35 -169 43 -225 6 -49 21 -87 24 -60 4 60 -7 497 -16 605 -2 22 -6 78 -9 125
-6 91 -14 185 -16 185 -1 0 -3 18 -5 40 -2 22 -7 65 -10 95 -4 30 -8 69 -10
85 -2 17 -8 57 -14 90 -6 33 -13 74 -15 90 -6 42 -16 103 -27 155 -11 54 -15
73 -23 121 -4 19 -20 87 -37 150 -16 63 -32 123 -34 134 -3 12 -25 84 -51 160
-85 256 -200 501 -322 684 -31 47 -59 90 -61 96 -2 5 -9 15 -15 21 -6 6 -22
26 -36 45 -92 124 -313 354 -455 474 -172 144 -285 254 -350 340 -56 72 -120
198 -130 250 -2 17 -7 41 -11 55 -9 41 -11 197 -3 253 13 92 20 132 24 145 2
6 1 12 -3 12 -4 0 -28 -38 -53 -83z"/>
<path d="M4207 5214 c-3 -3 10 -38 28 -78 34 -72 40 -91 54 -173 16 -86 -11
-281 -40 -299 -5 -3 -9 -14 -9 -24 0 -10 -3 -20 -7 -22 -5 -1 -17 -19 -28 -39
-42 -77 -133 -176 -229 -251 -34 -26 -66 -52 -72 -57 -6 -5 -24 -16 -40 -25
-28 -15 -25 -16 88 -14 191 3 410 58 508 128 15 11 31 20 34 20 21 0 176 157
176 179 0 4 8 19 18 32 30 40 47 110 46 194 -1 88 -26 157 -81 224 -33 39
-111 100 -168 129 -52 26 -169 63 -219 68 -21 2 -42 6 -46 9 -4 2 -10 2 -13
-1z"/>
<path d="M5838 5108 c-107 -105 -176 -230 -203 -368 -9 -45 -15 -340 -6 -340
3 0 7 -17 7 -38 1 -38 5 -67 23 -187 21 -143 23 -162 26 -260 2 -108 -10 -180
-43 -244 l-22 -41 42 21 c131 67 260 174 326 271 33 47 70 126 78 163 22 102
24 181 7 288 -13 85 -23 122 -88 322 -23 72 -50 157 -60 190 -21 70 -29 238
-14 267 22 41 -2 27 -73 -44z"/>
<path d="M4993 4908 c-2 -48 -45 -192 -75 -253 -25 -49 -86 -144 -107 -167
-178 -190 -326 -280 -601 -366 -82 -25 -264 -61 -350 -68 -36 -3 -67 -7 -68
-9 -2 -2 16 -32 41 -67 55 -77 129 -216 157 -295 44 -124 59 -212 56 -333 -2
-63 -5 -122 -8 -130 -2 -8 -8 -31 -12 -50 -5 -19 -19 -59 -32 -87 -12 -29 -21
-53 -18 -53 17 0 279 145 302 166 6 7 21 16 32 19 11 3 20 11 20 16 0 5 5 9
11 9 16 0 155 108 238 186 60 56 176 183 209 229 108 151 175 322 188 483 l6
64 -64 -50 c-107 -83 -188 -128 -188 -103 0 6 26 38 57 71 140 149 235 322
258 475 8 48 7 157 -1 205 -3 19 -7 42 -8 50 -6 32 -30 100 -35 100 -4 0 -7
-19 -8 -42z"/>
<path d="M6252 4198 c-6 -24 -14 -59 -17 -78 -15 -88 -104 -300 -126 -300 -6
0 -7 -5 -4 -10 3 -6 -1 -13 -9 -16 -9 -3 -16 -10 -16 -15 0 -14 -112 -117
-163 -149 -94 -60 -219 -113 -427 -184 -186 -62 -403 -147 -408 -158 -2 -5
-10 -8 -17 -8 -13 0 -86 -37 -200 -100 -100 -56 -115 -65 -115 -72 0 -5 -6 -8
-12 -8 -18 0 -232 -162 -324 -245 -190 -172 -364 -369 -526 -597 -40 -57 -75
-105 -78 -108 -3 -3 -10 -14 -17 -25 -6 -11 -40 -65 -75 -120 -64 -100 -74
-117 -117 -196 -13 -24 -29 -47 -35 -51 -6 -4 -7 -8 -2 -8 5 0 3 -8 -5 -17
-31 -39 -253 -473 -242 -473 5 0 3 -4 -3 -8 -10 -7 -184 -393 -199 -442 -4
-14 -11 -29 -15 -35 -12 -17 -20 -45 -12 -45 4 0 27 33 52 73 66 107 284 430
354 524 33 45 70 94 81 109 11 16 31 42 45 59 14 16 38 46 53 67 15 20 32 42
39 50 7 7 38 43 68 78 30 36 66 78 80 94 48 57 276 282 325 321 28 22 57 46
66 55 9 8 27 22 39 30 13 8 35 25 49 36 22 18 87 60 186 121 33 20 215 108
245 118 3 1 19 7 35 14 44 17 169 65 175 67 3 0 16 5 30 11 172 73 222 104
334 208 23 21 101 118 126 155 42 63 52 72 65 58 32 -34 46 -202 24 -283 -24
-86 -89 -193 -165 -270 -93 -94 -307 -244 -416 -292 -16 -7 -28 -15 -28 -19 0
-3 12 -3 28 1 15 4 37 9 49 11 109 21 486 191 501 226 2 4 8 8 14 8 18 0 162
115 255 204 156 149 277 324 366 531 41 94 46 100 90 123 26 12 47 29 47 37 0
17 -31 35 -60 35 -23 0 -24 9 -6 80 11 43 38 184 42 215 2 17 7 57 11 90 9 77
9 334 0 405 -4 30 -10 78 -13 105 -3 28 -7 51 -9 53 -1 1 -7 -17 -13 -40z"/>
<path d="M519 3929 c0 -2 -2 -13 -4 -24 -19 -95 -22 -202 -10 -305 4 -36 9
-68 11 -71 2 -3 6 -21 9 -40 7 -40 55 -210 64 -224 3 -5 6 -12 7 -15 0 -3 6
-18 12 -33 7 -16 12 -30 12 -32 0 -3 11 -29 25 -59 14 -30 25 -59 25 -65 0 -5
3 -11 8 -13 4 -1 18 -25 32 -53 14 -27 27 -52 30 -55 3 -3 11 -16 18 -30 22
-44 38 -69 55 -88 10 -10 17 -22 17 -26 0 -9 101 -132 157 -192 55 -59 139
-125 202 -158 59 -31 59 -23 1 41 -20 21 -56 65 -80 98 -25 33 -48 62 -51 65
-10 8 -139 210 -150 233 -5 12 -23 45 -39 72 -30 52 -36 62 -90 180 -59 129
-67 149 -104 250 -32 90 -98 310 -110 368 -3 12 -11 55 -19 95 -13 62 -25 98
-28 81z"/>
<path d="M434 3205 c4 -79 14 -180 21 -210 1 -5 5 -28 9 -50 5 -22 14 -62 22
-90 8 -27 14 -52 13 -55 -1 -9 42 -114 78 -190 36 -76 124 -210 174 -265 15
-16 36 -39 46 -50 17 -19 82 -77 135 -121 40 -34 178 -125 178 -119 0 4 -37
52 -83 108 -46 56 -109 138 -140 182 -31 44 -60 85 -64 91 -5 5 -14 21 -22 35
-8 13 -32 52 -53 86 -41 68 -121 222 -166 323 -27 62 -87 216 -98 255 -24 85
-45 149 -49 154 -3 3 -4 -35 -1 -84z"/>
<path d="M2612 3083 c-27 -13 -56 -31 -66 -41 -15 -18 -14 -20 26 -49 54 -38
102 -63 123 -63 8 0 38 15 65 34 48 33 146 70 161 60 4 -2 10 0 14 6 8 13 -49
47 -113 65 -72 21 -150 17 -210 -12z"/>
<path d="M2905 2990 c-82 -19 -171 -82 -237 -167 -24 -32 -75 -133 -82 -165
-5 -22 -3 -28 11 -29 10 0 27 -2 38 -4 113 -18 204 -23 222 -12 6 4 16 28 22
53 28 112 113 219 212 270 l54 27 -40 14 c-45 17 -155 24 -200 13z"/>
<path d="M3269 2920 c-112 -50 -177 -91 -222 -140 -40 -43 -82 -112 -79 -127
0 -2 -4 -17 -9 -35 -15 -50 -12 -150 6 -208 3 -10 8 -29 10 -41 7 -37 68 -159
116 -232 39 -60 47 -67 69 -62 14 4 27 11 28 16 2 5 8 9 14 9 11 0 85 50 132
90 148 124 213 243 203 375 -8 110 -54 204 -154 315 -45 50 -71 59 -114 40z"/>
<path d="M3500 2890 c0 -4 7 -13 16 -21 31 -25 73 -97 94 -158 20 -61 29 -178
16 -219 -9 -28 40 -61 117 -78 4 -1 8 -2 10 -4 1 -1 10 -3 19 -5 9 -2 39 -8
68 -14 28 -6 53 -11 55 -11 3 0 3 39 1 88 -5 91 -31 189 -68 252 -35 59 -138
144 -188 155 -69 16 -140 24 -140 15z"/>
<path d="M3712 2889 c2 -4 27 -26 57 -49 29 -23 67 -64 84 -91 17 -27 40 -52
52 -55 34 -8 161 11 170 26 18 29 -59 115 -131 150 -39 19 -68 24 -142 25 -51
1 -91 -2 -90 -6z"/>
<path d="M6224 2738 c-25 -40 -50 -74 -55 -76 -5 -2 -9 -8 -9 -14 0 -8 -110
-156 -145 -194 -5 -7 -37 -42 -70 -80 -102 -115 -223 -232 -350 -339 -57 -48
-287 -215 -297 -215 -3 0 -29 -15 -56 -32 -27 -18 -81 -49 -121 -68 -39 -19
-71 -38 -71 -42 0 -4 6 -6 13 -3 6 2 36 6 66 10 93 10 281 85 396 158 32 20
188 131 214 152 60 48 253 246 303 310 70 90 155 223 163 255 2 8 25 63 35 85
19 44 45 165 34 165 -1 0 -24 -33 -50 -72z"/>
<path d="M506 2308 c8 -34 20 -76 26 -93 22 -59 40 -100 54 -125 9 -14 18 -33
21 -42 3 -10 10 -18 15 -18 5 0 6 -4 3 -10 -3 -5 -2 -10 2 -10 5 0 17 -14 27
-31 22 -37 166 -188 166 -174 0 6 -14 26 -30 45 -84 97 -215 321 -260 445 -31
83 -40 89 -24 13z"/>
<path d="M6107 2166 c-9 -13 -22 -29 -29 -37 -7 -8 -31 -37 -53 -64 -48 -61
-284 -297 -344 -345 -24 -19 -49 -39 -55 -45 -6 -5 -38 -30 -71 -54 -33 -25
-62 -47 -65 -50 -9 -10 -69 -51 -75 -51 -3 0 -11 -5 -18 -10 -32 -28 -177
-115 -342 -204 l-30 -17 40 5 c188 24 413 113 565 225 162 119 316 301 413
490 76 146 106 222 64 157z"/>
<path d="M3096 1861 c-11 -65 -17 -96 -26 -131 -5 -19 -12 -57 -16 -85 -3 -27
-8 -53 -10 -56 -2 -3 -6 -21 -9 -40 -3 -19 -19 -101 -36 -184 -16 -82 -32
-166 -35 -185 -3 -19 -9 -51 -14 -70 -5 -19 -12 -51 -15 -70 -3 -19 -10 -51
-14 -71 -8 -33 -6 -38 15 -48 24 -11 29 -5 40 51 2 13 6 34 9 48 3 14 8 39 10
56 2 16 11 59 19 95 8 35 17 80 20 99 3 19 8 46 11 60 6 31 13 66 20 105 3 17
8 37 10 45 2 8 7 31 10 50 3 19 10 55 15 80 5 25 12 57 15 73 12 65 16 85 25
130 15 73 13 85 -14 85 -20 0 -25 -7 -30 -37z"/>
<path d="M5646 1283 c-52 -56 -185 -169 -272 -229 -17 -12 -70 -43 -117 -69
-48 -26 -87 -48 -87 -50 0 -7 148 53 190 77 8 4 22 11 30 15 22 10 107 71 142
101 72 63 189 206 177 216 -2 1 -30 -26 -63 -61z"/>
<path d="M2690 800 c0 -5 5 -10 10 -10 6 0 10 5 10 10 0 6 -4 10 -10 10 -5 0
-10 -4 -10 -10z"/>
<path d="M3069 703 c-13 -16 -12 -17 4 -4 16 13 21 21 13 21 -2 0 -10 -8 -17
-17z"/>
</g>
</svg>
