<?xml version="1.0" standalone="no"?>
<!DOCTYPE svg PUBLIC "-//W3C//DTD SVG 20010904//EN"
 "http://www.w3.org/TR/2001/REC-SVG-20010904/DTD/svg10.dtd">
<svg version="1.0" xmlns="http://www.w3.org/2000/svg"
 width="840.000000pt" height="840.000000pt" viewBox="0 0 840.000000 840.000000"
 preserveAspectRatio="xMidYMid meet">
<metadata>
Created by potrace 1.14, written by Peter Selinger 2001-2017
</metadata>
<g transform="translate(0.000000,840.000000) scale(0.100000,-0.100000)"
fill="#000000" stroke="none">
<path d="M2370 7642 c-5 -21 -10 -40 -10 -44 -1 -4 -6 -22 -11 -40 -46 -152
-65 -404 -46 -622 7 -73 6 -87 -5 -79 -7 6 -44 20 -83 32 -38 13 -77 25 -85
28 -8 4 -17 7 -20 8 -3 1 -14 5 -25 10 -11 4 -49 18 -85 32 -80 30 -86 32
-180 76 -82 38 -84 38 -94 -28 -3 -22 -8 -51 -11 -65 -10 -46 -13 -68 -21
-117 -3 -26 -8 -57 -11 -68 -3 -20 -8 -54 -18 -137 -24 -198 -24 -511 0 -648
2 -14 7 -41 9 -60 9 -56 16 -92 26 -130 17 -61 12 -63 -47 -20 -32 22 -67 46
-77 53 -22 14 -252 185 -280 207 -10 8 -23 20 -30 25 -6 6 -33 28 -61 50 -27
22 -52 43 -53 48 -2 4 -12 12 -23 17 -17 10 -18 6 -16 -50 1 -33 4 -60 7 -60
3 0 5 -19 5 -42 0 -50 12 -176 19 -210 3 -12 8 -39 11 -58 3 -19 8 -48 11 -65
2 -16 7 -41 11 -55 3 -14 7 -32 8 -40 7 -41 16 -84 21 -92 18 -29 -95 13 -219
81 -128 71 -246 162 -365 281 -39 40 -42 41 -43 19 -1 -13 0 -28 1 -34 1 -5 4
-46 6 -90 2 -44 6 -98 9 -120 3 -22 7 -62 10 -90 3 -27 7 -63 9 -80 3 -16 8
-50 11 -75 7 -48 11 -70 19 -110 8 -34 15 -70 20 -100 11 -62 82 -334 95 -365
4 -11 14 -38 20 -60 14 -45 47 -135 66 -180 7 -16 25 -59 40 -95 40 -96 132
-276 182 -353 23 -37 43 -71 43 -76 0 -5 7 -14 15 -21 23 -19 19 -26 -32 -44
-74 -27 -243 -97 -295 -123 -27 -13 -51 -24 -55 -25 -5 0 -25 -12 -45 -24 -21
-13 -40 -24 -43 -24 -3 0 -35 -18 -71 -40 -36 -22 -68 -40 -70 -40 -3 0 -14
-9 -26 -20 -12 -11 -28 -20 -35 -20 -7 0 -13 -4 -13 -10 0 -5 -6 -10 -13 -10
-7 0 -24 -11 -39 -25 -15 -14 -30 -25 -32 -25 -3 0 -14 -7 -23 -15 -10 -8 -45
-36 -78 -62 -73 -58 -120 -99 -198 -175 l-58 -57 53 -30 c29 -17 58 -31 65
-31 6 0 13 -4 15 -8 4 -9 133 -72 209 -102 30 -12 68 -28 84 -35 79 -35 409
-145 436 -145 9 0 19 -3 23 -7 3 -4 12 -8 19 -9 7 -1 57 -14 112 -29 110 -29
130 -34 160 -39 11 -2 43 -9 70 -16 65 -15 81 -18 129 -26 22 -3 43 -7 47 -10
3 -2 26 -6 50 -9 24 -3 51 -7 59 -10 24 -7 297 -46 338 -48 18 -1 16 -6 -34
-69 -25 -32 -42 -58 -37 -58 4 0 3 -4 -2 -8 -22 -16 -175 -280 -175 -302 0 -4
-13 -36 -29 -71 -32 -72 -81 -214 -106 -304 -9 -33 -18 -67 -20 -75 -8 -29
-37 -166 -42 -195 -2 -16 -8 -45 -13 -62 -4 -18 -5 -35 -2 -37 12 -6 272 15
357 30 17 3 44 7 60 9 17 2 44 6 61 9 17 3 48 8 68 11 21 2 46 7 55 9 9 3 32
7 51 10 19 3 67 12 105 21 39 9 84 18 100 21 17 3 57 12 90 21 33 8 67 17 75
18 8 2 15 4 15 5 0 1 9 3 20 5 23 4 193 53 215 62 8 3 20 7 26 8 32 7 235 80
306 110 45 19 88 35 95 35 7 0 13 3 13 8 0 9 63 29 78 24 7 -2 12 -11 12 -20
0 -26 44 -141 91 -238 40 -85 106 -204 118 -214 3 -3 11 -12 16 -21 33 -55 79
-119 86 -119 4 0 9 -6 11 -13 12 -52 355 -394 482 -481 17 -12 56 -40 86 -62
85 -63 98 -69 119 -50 10 9 20 16 24 16 9 0 122 79 164 115 6 6 26 21 44 35
84 65 359 334 359 352 0 4 14 21 30 38 17 17 30 35 30 40 0 5 6 13 13 17 6 4
17 15 22 24 6 9 31 47 57 86 85 129 191 340 213 423 7 27 28 80 31 80 3 0 24
-9 47 -19 174 -79 510 -194 717 -245 136 -34 234 -56 415 -92 11 -2 43 -7 70
-10 28 -3 57 -8 65 -11 8 -2 31 -7 50 -9 53 -6 122 -15 155 -19 51 -7 168 -17
215 -19 44 -1 45 0 44 29 -2 59 -20 152 -54 280 -6 22 -15 56 -20 75 -30 117
-116 332 -188 470 -49 96 -181 300 -194 300 -13 0 -9 27 5 28 35 2 135 13 152
16 34 7 89 15 125 21 19 2 44 6 55 8 11 3 36 7 55 11 162 29 185 33 215 40 11
3 57 14 102 25 45 11 92 22 105 25 13 2 79 20 148 40 69 20 132 38 140 40 55
14 319 109 398 142 91 39 113 50 192 87 47 23 107 54 133 70 l48 29 -54 52
c-74 71 -190 175 -218 194 -13 9 -29 21 -36 27 -6 5 -28 21 -48 35 -20 14 -56
40 -80 58 -24 17 -47 32 -50 32 -4 0 -25 13 -48 29 -53 36 -244 138 -317 169
-99 43 -254 104 -267 106 -26 4 -22 17 40 117 115 187 233 442 301 654 29 88
57 182 61 200 2 11 4 20 5 20 1 0 3 7 5 15 2 8 6 26 9 40 23 100 42 189 50
233 10 50 30 173 31 187 3 34 17 157 20 178 2 13 7 74 11 135 3 62 8 115 11
120 12 21 -16 2 -48 -31 -65 -68 -237 -212 -254 -212 -3 0 -15 -8 -26 -19 -18
-16 -224 -129 -224 -122 0 1 -13 -2 -28 -8 -53 -20 -56 -17 -41 47 16 67 19
79 38 197 22 135 27 173 31 253 2 40 6 76 8 80 2 4 5 29 6 55 1 57 2 57 -92
-26 -18 -16 -57 -47 -87 -70 -30 -23 -57 -44 -60 -47 -9 -10 -67 -55 -90 -70
-24 -17 -119 -85 -135 -97 -35 -28 -127 -84 -131 -80 -3 3 -1 22 5 43 11 43
18 80 26 134 3 19 7 44 10 55 22 107 23 512 1 645 -3 14 -7 50 -10 80 -4 30
-8 66 -11 80 -2 14 -6 41 -9 60 -6 34 -11 64 -20 113 -19 95 -24 118 -28 122
-2 2 -24 -3 -48 -11 -25 -9 -126 -40 -225 -70 -99 -30 -216 -66 -260 -80 -44
-14 -87 -27 -95 -29 -8 -2 -47 -15 -86 -29 -77 -28 -109 -33 -98 -15 27 44 26
454 -1 589 -3 14 -8 39 -11 55 -11 66 -43 173 -55 188 -10 13 -274 -79 -389
-136 -89 -44 -154 -82 -254 -149 -48 -32 -193 -156 -247 -211 -67 -67 -51 -69
-139 10 -116 104 -379 309 -410 321 -8 3 -17 8 -20 12 -8 11 -114 80 -122 80
-17 0 -325 -220 -427 -305 -65 -54 -232 -207 -277 -253 -37 -38 -45 -42 -63
-32 -12 6 -21 15 -21 20 0 10 -218 231 -260 265 -14 11 -46 37 -72 58 -25 20
-51 37 -56 37 -6 0 -12 4 -14 8 -5 12 -127 86 -213 129 -83 42 -253 111 -283
116 -9 1 -21 5 -27 9 -9 5 -55 17 -92 24 -7 1 -17 -14 -23 -34z"/>
</g>
</svg>
