<svg width="90" height="62" viewBox="0 0 90 62" fill="none" xmlns="http://www.w3.org/2000/svg">
<path d="M19.3 20.7993C14.4 26.0993 11.5 26.8993 11.5 26.8993C11.5 26.8993 14.2 28.5993 18.7 27.4993C18.2 28.3993 17.8 29.3993 17.4 30.3993C17.2 30.8993 17 31.3993 16.8 31.7993C9.4 31.6993 3.2 27.8993 0 25.4993C5.4 27.8993 13.2 20.4993 19.4 15.5993C32.9 5.19928 42.8 13.2993 42.8 13.2993C37.8 10.1993 28.2 10.9993 19.3 20.7993Z" fill="#398EDE"/>
<path d="M27.8 7.6998C22.3 8.4998 20.2 7.59981 20.2 7.59981C20.2 7.59981 21 9.89981 24.2 11.3998C23.5 11.6998 22.8 12.0998 22 12.4998C21.7 12.6998 21.3 12.8998 21 13.0998C16.6 9.49981 14.7 4.2998 14 1.2998C16.1 5.2998 24.3 4.5998 30.3 4.6998C43.3 4.8998 45.4 14.4998 45.4 14.4998C44 10.2998 37.8 6.1998 27.8 7.6998Z" fill="#398EDE"/>
<path d="M18.5001 30.7998C15.2001 39.2998 11.9001 51.2999 5.1001 52.0999C9.8001 52.5999 18.4001 52.5999 25.9001 48.0999C26.1001 45.8999 26.2001 43.4998 26.3001 41.1998C22.0001 46.5998 17.3001 46.5999 17.3001 46.5999C17.3001 46.5999 19.7001 44.0998 21.4001 35.9998C24.5001 20.9998 33.5001 14.4998 40.3001 14.6998C40.4001 14.6998 25.7001 12.4998 18.5001 30.7998Z" fill="#398EDE"/>
<path d="M27.8002 36.7C27.3002 45.8 27.9002 58.2 21.7002 61.1C26.8002 60 36.1002 56.9 41.8002 48.8C49.0002 38.5 40.4002 26.7 42.0002 18.1C40.6002 20.8 39.3002 25.5 39.7002 33.5C40.4002 49.3 31.5002 52.1 31.5002 52.1C31.5002 52.1 33.0002 49 32.1002 40.7C30.3002 25.5 36.9002 16.5 43.4002 14.5C43.5002 14.6 28.9002 17.1 27.8002 36.7Z" fill="#398EDE"/>
<path d="M70.1001 40.2988C75.0001 34.9988 77.9001 34.1988 77.9001 34.1988C77.9001 34.1988 75.2001 32.4988 70.7001 33.5988C71.2001 32.6988 71.6001 31.6988 72.0001 30.6988C72.2001 30.1988 72.4001 29.6988 72.6001 29.2988C79.9001 29.3988 86.0001 33.0988 89.3001 35.4988C83.9001 33.2988 76.2001 40.5988 70.0001 45.3988C56.5001 55.7988 46.6001 47.6988 46.6001 47.6988C51.6001 50.8988 61.2001 50.0988 70.1001 40.2988Z" fill="#398EDE"/>
<path d="M61.6 53.3996C67.1 52.5996 69.2 53.4996 69.2 53.4996C69.2 53.4996 68.4 51.1996 65.2 49.6996C65.9 49.3996 66.6 48.9996 67.4 48.5996C67.7 48.3996 68.1 48.1996 68.4 47.9996C72.8 51.5996 74.7 56.7996 75.4 59.7996C73.3 55.7996 65.1 56.4996 59.1 56.3996C46.1 56.1996 44 46.5996 44 46.5996C45.4 50.7996 51.5 54.8996 61.6 53.3996Z" fill="#398EDE"/>
<path d="M70.9001 30.3C74.2001 21.8 77.5001 9.8 84.3001 9C79.6001 8.5 71.0001 8.5 63.5001 13C63.3001 15.2 63.2001 17.6 63.1001 19.9C67.4001 14.5 72.1001 14.5 72.1001 14.5C72.1001 14.5 69.7001 17 68.0001 25.1C64.9001 40.1 55.9001 46.6 49.1001 46.4C49.0001 46.4 63.7001 48.6 70.9001 30.3Z" fill="#398EDE"/>
<path d="M61.5999 24.4C62.0999 15.3 61.4999 2.9 67.6999 0C62.5999 1.1 53.2999 4.2 47.5999 12.3C40.3999 22.6 48.9999 34.4 47.3999 43C48.7999 40.3 50.0999 35.6 49.6999 27.6C48.9999 11.8 57.8999 9 57.8999 9C57.8999 9 56.3999 12.1 57.2999 20.4C59.0999 35.6 52.4999 44.6 45.9999 46.6C45.8999 46.5 60.4999 44 61.5999 24.4Z" fill="#398EDE"/>
</svg>
