<svg width="1347" height="861" viewBox="0 0 1347 861" fill="none" xmlns="http://www.w3.org/2000/svg">
<path fill-rule="evenodd" clip-rule="evenodd" d="M673.305 420.491C624.515 554.662 338.197 500.737 248 444.564C357.456 330.936 551.01 329.332 673.305 420.491Z" fill="#9D8954"/>
<path fill-rule="evenodd" clip-rule="evenodd" d="M673.306 420.491C722.415 554.662 1008.73 500.737 1098.93 444.564C989.476 330.936 795.923 329.332 673.306 420.491Z" fill="#9D8954"/>
<path fill-rule="evenodd" clip-rule="evenodd" d="M673.307 420.49C709.898 558.834 496.445 615.329 390.198 620.783C415.556 465.106 520.839 415.354 673.307 420.49Z" fill="#C4AB69"/>
<path fill-rule="evenodd" clip-rule="evenodd" d="M673.303 420.49C637.032 558.834 850.487 615.329 956.733 620.783C931.056 465.106 825.771 415.354 673.303 420.49Z" fill="#C4AB69"/>
<path fill-rule="evenodd" clip-rule="evenodd" d="M673.305 420.491C843.106 482.119 784.687 632.341 673.305 703.278C561.925 632.341 503.826 482.119 673.305 420.491Z" fill="#D0BC87"/>
<path fill-rule="evenodd" clip-rule="evenodd" d="M537.529 218.271C490.986 144.765 465.628 71.9008 489.382 0C569.306 19.9012 610.072 77.3576 640.887 144.765C606.54 169.16 571.873 193.554 537.529 218.271ZM785.649 218.271C832.192 144.765 857.228 71.9008 833.796 0C753.872 19.9012 713.106 77.3576 682.291 144.765C716.638 169.16 750.984 193.554 785.649 218.271Z" fill="#D92222"/>
<path fill-rule="evenodd" clip-rule="evenodd" d="M673.305 452.912C632.54 403.16 591.452 353.406 550.688 303.654C448.615 175.261 401.431 278.617 306.418 179.754C314.443 390.64 459.528 535.405 673.305 452.912C714.39 403.16 755.155 353.406 796.243 303.654C898.316 175.261 945.18 278.617 1040.51 179.754C1032.49 390.64 887.081 535.405 673.305 452.912Z" fill="#F12626"/>
<path fill-rule="evenodd" clip-rule="evenodd" d="M755.158 199.974C775.381 87.3089 835.725 90.8397 922.711 60.6675C951.279 195.801 915.328 256.79 820.317 337.036C798.49 291.134 776.984 245.553 755.158 199.974ZM591.455 199.974C571.233 87.3089 493.234 96.2947 424.222 60.6675C395.654 195.801 431.605 256.79 526.616 337.036C548.122 291.134 569.949 245.553 591.455 199.974Z" fill="#F12626"/>
<path fill-rule="evenodd" clip-rule="evenodd" d="M673.308 452.91C940.367 355.652 848.565 119.086 673.308 7.7041C498.05 119.086 406.248 355.652 673.308 452.91Z" fill="#F45151"/>
<path fill-rule="evenodd" clip-rule="evenodd" d="M673.306 452.91C628.689 192.912 543.306 311.034 360.347 151.184C368.37 317.453 477.826 472.811 673.306 452.91C718.244 192.912 803.627 311.034 986.586 151.184C978.563 317.453 868.786 472.811 673.306 452.91Z" fill="#F23C3C"/>
<path d="M3.74 807.02H18.59C18.8833 809.513 20.02 811.787 22 813.84C24.0533 815.82 26.73 817.397 30.03 818.57C33.33 819.67 37.0333 820.22 41.14 820.22C44.88 820.22 47.96 819.817 50.38 819.01C52.8 818.203 54.5967 817.067 55.77 815.6C56.9433 814.133 57.53 812.373 57.53 810.32C57.53 808.34 56.7967 806.837 55.33 805.81C53.8633 804.71 51.5533 803.83 48.4 803.17C45.2467 802.437 41.1033 801.703 35.97 800.97C31.9367 800.383 28.1233 799.577 24.53 798.55C20.9367 797.45 17.7467 796.057 14.96 794.37C12.2467 792.683 10.0833 790.63 8.47 788.21C6.93 785.717 6.16 782.783 6.16 779.41C6.16 775.23 7.33333 771.563 9.68 768.41C12.1 765.257 15.6567 762.8 20.35 761.04C25.0433 759.28 30.8 758.4 37.62 758.4C47.8867 758.4 55.77 760.6 61.27 765C66.8433 769.327 69.5567 775.303 69.41 782.93H55.11C54.8167 778.603 52.9833 775.487 49.61 773.58C46.31 771.673 42.13 770.72 37.07 770.72C32.3767 770.72 28.49 771.417 25.41 772.81C22.4033 774.203 20.9 776.587 20.9 779.96C20.9 781.28 21.2667 782.453 22 783.48C22.7333 784.433 23.98 785.277 25.74 786.01C27.5 786.743 29.8833 787.44 32.89 788.1C35.8967 788.76 39.6367 789.42 44.11 790.08C48.29 790.667 52.0667 791.473 55.44 792.5C58.8867 793.453 61.82 794.737 64.24 796.35C66.7333 797.89 68.64 799.87 69.96 802.29C71.28 804.71 71.94 807.68 71.94 811.2C71.94 815.527 70.8033 819.303 68.53 822.53C66.33 825.683 62.8833 828.14 58.19 829.9C53.57 831.66 47.5567 832.54 40.15 832.54C34.87 832.54 30.2133 831.99 26.18 830.89C22.1467 829.717 18.6633 828.177 15.73 826.27C12.7967 824.363 10.4133 822.273 8.58 820C6.74667 817.727 5.42667 815.453 4.62 813.18C3.88667 810.907 3.59333 808.853 3.74 807.02ZM115.207 832.32C108.314 832.32 102.227 831.22 96.947 829.02C91.7403 826.82 87.6703 823.63 84.737 819.45C81.8036 815.197 80.337 809.99 80.337 803.83C80.337 797.67 81.8036 792.463 84.737 788.21C87.6703 783.883 91.7403 780.62 96.947 778.42C102.227 776.22 108.314 775.12 115.207 775.12C122.1 775.12 128.114 776.22 133.247 778.42C138.454 780.62 142.524 783.883 145.457 788.21C148.39 792.463 149.857 797.67 149.857 803.83C149.857 809.99 148.39 815.197 145.457 819.45C142.524 823.63 138.454 826.82 133.247 829.02C128.114 831.22 122.1 832.32 115.207 832.32ZM115.207 821.32C119.02 821.32 122.43 820.66 125.437 819.34C128.517 817.947 130.937 815.967 132.697 813.4C134.457 810.76 135.337 807.57 135.337 803.83C135.337 800.09 134.457 796.9 132.697 794.26C130.937 791.547 128.554 789.493 125.547 788.1C122.54 786.707 119.094 786.01 115.207 786.01C111.394 786.01 107.947 786.707 104.867 788.1C101.787 789.493 99.3303 791.51 97.497 794.15C95.737 796.79 94.857 800.017 94.857 803.83C94.857 807.57 95.737 810.76 97.497 813.4C99.257 815.967 101.677 817.947 104.757 819.34C107.837 820.66 111.32 821.32 115.207 821.32ZM192.658 832.32C185.765 832.32 179.678 831.22 174.398 829.02C169.191 826.82 165.121 823.63 162.188 819.45C159.255 815.197 157.788 809.99 157.788 803.83C157.788 797.67 159.255 792.463 162.188 788.21C165.121 783.883 169.191 780.62 174.398 778.42C179.678 776.22 185.765 775.12 192.658 775.12C199.551 775.12 205.565 776.22 210.698 778.42C215.905 780.62 219.975 783.883 222.908 788.21C225.841 792.463 227.308 797.67 227.308 803.83C227.308 809.99 225.841 815.197 222.908 819.45C219.975 823.63 215.905 826.82 210.698 829.02C205.565 831.22 199.551 832.32 192.658 832.32ZM192.658 821.32C196.471 821.32 199.881 820.66 202.888 819.34C205.968 817.947 208.388 815.967 210.148 813.4C211.908 810.76 212.788 807.57 212.788 803.83C212.788 800.09 211.908 796.9 210.148 794.26C208.388 791.547 206.005 789.493 202.998 788.1C199.991 786.707 196.545 786.01 192.658 786.01C188.845 786.01 185.398 786.707 182.318 788.1C179.238 789.493 176.781 791.51 174.948 794.15C173.188 796.79 172.308 800.017 172.308 803.83C172.308 807.57 173.188 810.76 174.948 813.4C176.708 815.967 179.128 817.947 182.208 819.34C185.288 820.66 188.771 821.32 192.658 821.32ZM238.869 754.33H253.169V831H238.869V754.33ZM299.259 776.33L266.699 805.04L267.029 796.24L301.789 831H283.639L253.499 800.31L279.789 776.33H299.259ZM354.745 803.17V759.83H369.375V804.16C369.375 807.9 368.678 811.457 367.285 814.83C365.965 818.203 363.948 821.21 361.235 823.85C358.595 826.417 355.295 828.433 351.335 829.9C347.448 831.367 342.902 832.1 337.695 832.1C333.662 832.1 329.738 831.587 325.925 830.56C322.185 829.533 318.812 827.993 315.805 825.94C312.798 823.813 310.378 821.173 308.545 818.02C306.712 814.793 305.722 811.017 305.575 806.69H319.435C320.242 810.87 322.295 814.06 325.595 816.26C328.968 818.387 333.002 819.45 337.695 819.45C341.728 819.45 344.992 818.753 347.485 817.36C349.978 815.893 351.812 813.95 352.985 811.53C354.158 809.037 354.745 806.25 354.745 803.17ZM411.023 832.21C405.596 832.21 400.646 831.037 396.173 828.69C391.773 826.27 388.253 822.933 385.613 818.68C383.046 814.353 381.763 809.367 381.763 803.72C381.763 797.927 383.083 792.903 385.723 788.65C388.363 784.397 391.919 781.097 396.393 778.75C400.939 776.33 406.073 775.12 411.793 775.12C418.099 775.12 423.159 776.403 426.973 778.97C430.859 781.463 433.683 784.873 435.443 789.2C437.203 793.527 438.083 798.367 438.083 803.72C438.083 806.947 437.569 810.247 436.543 813.62C435.516 816.92 433.939 820 431.813 822.86C429.686 825.647 426.899 827.92 423.453 829.68C420.006 831.367 415.863 832.21 411.023 832.21ZM415.643 821.21C419.969 821.21 423.709 820.477 426.863 819.01C430.016 817.543 432.436 815.49 434.123 812.85C435.809 810.21 436.653 807.167 436.653 803.72C436.653 799.98 435.773 796.827 434.013 794.26C432.326 791.62 429.906 789.64 426.753 788.32C423.673 786.927 419.969 786.23 415.643 786.23C409.556 786.23 404.826 787.843 401.453 791.07C398.079 794.223 396.393 798.44 396.393 803.72C396.393 807.24 397.199 810.32 398.813 812.96C400.426 815.527 402.663 817.543 405.523 819.01C408.456 820.477 411.829 821.21 415.643 821.21ZM436.653 776.33H450.953V831H437.643C437.643 831 437.533 830.303 437.313 828.91C437.166 827.443 437.019 825.61 436.873 823.41C436.726 821.21 436.653 819.047 436.653 816.92V776.33ZM480.285 752.35V764.89H463.675V752.35H480.285ZM464.775 776.33H479.075V831H464.775V776.33ZM511.057 759.83H586.077V772.04H511.057V759.83ZM541.307 770.5H555.937V831H541.307V770.5ZM639.089 831V800.97C639.089 797.963 638.575 795.47 637.549 793.49C636.522 791.51 634.872 790.007 632.599 788.98C630.399 787.953 627.429 787.44 623.689 787.44C620.095 787.44 616.832 788.137 613.899 789.53C610.965 790.85 608.582 792.61 606.749 794.81C604.915 796.937 603.889 799.21 603.669 801.63L603.559 795.58C603.925 793.16 604.769 790.74 606.089 788.32C607.409 785.9 609.169 783.7 611.369 781.72C613.569 779.74 616.209 778.163 619.289 776.99C622.442 775.743 625.962 775.12 629.849 775.12C633.222 775.12 636.339 775.56 639.199 776.44C642.059 777.247 644.552 778.53 646.679 780.29C648.805 782.05 650.455 784.25 651.629 786.89C652.802 789.457 653.389 792.5 653.389 796.02V831H639.089ZM590.139 831V754.33H604.439V831H590.139ZM693.005 832.21C687.578 832.21 682.628 831.037 678.155 828.69C673.755 826.27 670.235 822.933 667.595 818.68C665.028 814.353 663.745 809.367 663.745 803.72C663.745 797.927 665.065 792.903 667.705 788.65C670.345 784.397 673.902 781.097 678.375 778.75C682.922 776.33 688.055 775.12 693.775 775.12C700.082 775.12 705.142 776.403 708.955 778.97C712.842 781.463 715.665 784.873 717.425 789.2C719.185 793.527 720.065 798.367 720.065 803.72C720.065 806.947 719.552 810.247 718.525 813.62C717.498 816.92 715.922 820 713.795 822.86C711.668 825.647 708.882 827.92 705.435 829.68C701.988 831.367 697.845 832.21 693.005 832.21ZM697.625 821.21C701.952 821.21 705.692 820.477 708.845 819.01C711.998 817.543 714.418 815.49 716.105 812.85C717.792 810.21 718.635 807.167 718.635 803.72C718.635 799.98 717.755 796.827 715.995 794.26C714.308 791.62 711.888 789.64 708.735 788.32C705.655 786.927 701.952 786.23 697.625 786.23C691.538 786.23 686.808 787.843 683.435 791.07C680.062 794.223 678.375 798.44 678.375 803.72C678.375 807.24 679.182 810.32 680.795 812.96C682.408 815.527 684.645 817.543 687.505 819.01C690.438 820.477 693.812 821.21 697.625 821.21ZM718.635 776.33H732.935V831H719.625C719.625 831 719.515 830.303 719.295 828.91C719.148 827.443 719.002 825.61 718.855 823.41C718.708 821.21 718.635 819.047 718.635 816.92V776.33ZM762.267 752.35V764.89H745.657V752.35H762.267ZM746.757 776.33H761.057V831H746.757V776.33ZM859.044 823.74H852.114L893.034 759.83H907.664V831H893.034V779.3L896.554 780.29L863.884 831H847.494L814.824 780.51L818.344 779.52V831H803.714V759.83H818.344L859.044 823.74ZM949.314 832.21C943.887 832.21 938.937 831.037 934.464 828.69C930.064 826.27 926.544 822.933 923.904 818.68C921.337 814.353 920.054 809.367 920.054 803.72C920.054 797.927 921.374 792.903 924.014 788.65C926.654 784.397 930.21 781.097 934.684 778.75C939.23 776.33 944.364 775.12 950.084 775.12C956.39 775.12 961.45 776.403 965.264 778.97C969.15 781.463 971.974 784.873 973.734 789.2C975.494 793.527 976.374 798.367 976.374 803.72C976.374 806.947 975.86 810.247 974.834 813.62C973.807 816.92 972.23 820 970.104 822.86C967.977 825.647 965.19 827.92 961.744 829.68C958.297 831.367 954.154 832.21 949.314 832.21ZM953.934 821.21C958.26 821.21 962 820.477 965.154 819.01C968.307 817.543 970.727 815.49 972.414 812.85C974.1 810.21 974.944 807.167 974.944 803.72C974.944 799.98 974.064 796.827 972.304 794.26C970.617 791.62 968.197 789.64 965.044 788.32C961.964 786.927 958.26 786.23 953.934 786.23C947.847 786.23 943.117 787.843 939.744 791.07C936.37 794.223 934.684 798.44 934.684 803.72C934.684 807.24 935.49 810.32 937.104 812.96C938.717 815.527 940.954 817.543 943.814 819.01C946.747 820.477 950.12 821.21 953.934 821.21ZM974.944 776.33H989.244V831H975.934C975.934 831 975.824 830.303 975.604 828.91C975.457 827.443 975.31 825.61 975.164 823.41C975.017 821.21 974.944 819.047 974.944 816.92V776.33ZM999.986 812.85H1013.19C1013.99 815.343 1015.64 817.397 1018.14 819.01C1020.7 820.55 1024.04 821.32 1028.15 821.32C1030.93 821.32 1033.1 821.063 1034.64 820.55C1036.18 820.037 1037.24 819.303 1037.83 818.35C1038.41 817.323 1038.71 816.187 1038.71 814.94C1038.71 813.4 1038.23 812.227 1037.28 811.42C1036.32 810.54 1034.86 809.843 1032.88 809.33C1030.9 808.817 1028.37 808.34 1025.29 807.9C1022.21 807.387 1019.24 806.763 1016.38 806.03C1013.52 805.297 1010.99 804.343 1008.79 803.17C1006.59 801.923 1004.83 800.383 1003.51 798.55C1002.26 796.643 1001.64 794.333 1001.64 791.62C1001.64 788.98 1002.26 786.633 1003.51 784.58C1004.83 782.527 1006.62 780.803 1008.9 779.41C1011.24 778.017 1013.96 776.953 1017.04 776.22C1020.19 775.487 1023.56 775.12 1027.16 775.12C1032.58 775.12 1037.09 775.927 1040.69 777.54C1044.28 779.08 1046.96 781.28 1048.72 784.14C1050.55 786.927 1051.47 790.153 1051.47 793.82H1038.82C1038.23 791.107 1037.06 789.163 1035.3 787.99C1033.54 786.743 1030.82 786.12 1027.16 786.12C1023.56 786.12 1020.85 786.67 1019.02 787.77C1017.18 788.87 1016.27 790.373 1016.27 792.28C1016.27 793.82 1016.82 795.03 1017.92 795.91C1019.09 796.717 1020.78 797.377 1022.98 797.89C1025.25 798.403 1028.07 798.953 1031.45 799.54C1034.31 800.127 1037.02 800.787 1039.59 801.52C1042.23 802.253 1044.57 803.207 1046.63 804.38C1048.68 805.48 1050.29 806.983 1051.47 808.89C1052.71 810.723 1053.34 813.07 1053.34 815.93C1053.34 819.45 1052.31 822.42 1050.26 824.84C1048.28 827.26 1045.42 829.13 1041.68 830.45C1037.94 831.697 1033.46 832.32 1028.26 832.32C1023.64 832.32 1019.64 831.843 1016.27 830.89C1012.97 829.863 1010.22 828.58 1008.02 827.04C1005.82 825.427 1004.09 823.74 1002.85 821.98C1001.67 820.147 1000.87 818.423 1000.43 816.81C999.986 815.197 999.839 813.877 999.986 812.85ZM1062.08 812.85H1075.28C1076.08 815.343 1077.73 817.397 1080.23 819.01C1082.79 820.55 1086.13 821.32 1090.24 821.32C1093.02 821.32 1095.19 821.063 1096.73 820.55C1098.27 820.037 1099.33 819.303 1099.92 818.35C1100.5 817.323 1100.8 816.187 1100.8 814.94C1100.8 813.4 1100.32 812.227 1099.37 811.42C1098.41 810.54 1096.95 809.843 1094.97 809.33C1092.99 808.817 1090.46 808.34 1087.38 807.9C1084.3 807.387 1081.33 806.763 1078.47 806.03C1075.61 805.297 1073.08 804.343 1070.88 803.17C1068.68 801.923 1066.92 800.383 1065.6 798.55C1064.35 796.643 1063.73 794.333 1063.73 791.62C1063.73 788.98 1064.35 786.633 1065.6 784.58C1066.92 782.527 1068.71 780.803 1070.99 779.41C1073.33 778.017 1076.05 776.953 1079.13 776.22C1082.28 775.487 1085.65 775.12 1089.25 775.12C1094.67 775.12 1099.18 775.927 1102.78 777.54C1106.37 779.08 1109.05 781.28 1110.81 784.14C1112.64 786.927 1113.56 790.153 1113.56 793.82H1100.91C1100.32 791.107 1099.15 789.163 1097.39 787.99C1095.63 786.743 1092.91 786.12 1089.25 786.12C1085.65 786.12 1082.94 786.67 1081.11 787.77C1079.27 788.87 1078.36 790.373 1078.36 792.28C1078.36 793.82 1078.91 795.03 1080.01 795.91C1081.18 796.717 1082.87 797.377 1085.07 797.89C1087.34 798.403 1090.16 798.953 1093.54 799.54C1096.4 800.127 1099.11 800.787 1101.68 801.52C1104.32 802.253 1106.66 803.207 1108.72 804.38C1110.77 805.48 1112.38 806.983 1113.56 808.89C1114.8 810.723 1115.43 813.07 1115.43 815.93C1115.43 819.45 1114.4 822.42 1112.35 824.84C1110.37 827.26 1107.51 829.13 1103.77 830.45C1100.03 831.697 1095.55 832.32 1090.35 832.32C1085.73 832.32 1081.73 831.843 1078.36 830.89C1075.06 829.863 1072.31 828.58 1070.11 827.04C1067.91 825.427 1066.18 823.74 1064.94 821.98C1063.76 820.147 1062.96 818.423 1062.52 816.81C1062.08 815.197 1061.93 813.877 1062.08 812.85ZM1152.99 832.21C1147.56 832.21 1142.61 831.037 1138.14 828.69C1133.74 826.27 1130.22 822.933 1127.58 818.68C1125.01 814.353 1123.73 809.367 1123.73 803.72C1123.73 797.927 1125.05 792.903 1127.69 788.65C1130.33 784.397 1133.88 781.097 1138.36 778.75C1142.9 776.33 1148.04 775.12 1153.76 775.12C1160.06 775.12 1165.12 776.403 1168.94 778.97C1172.82 781.463 1175.65 784.873 1177.41 789.2C1179.17 793.527 1180.05 798.367 1180.05 803.72C1180.05 806.947 1179.53 810.247 1178.51 813.62C1177.48 816.92 1175.9 820 1173.78 822.86C1171.65 825.647 1168.86 827.92 1165.42 829.68C1161.97 831.367 1157.83 832.21 1152.99 832.21ZM1157.61 821.21C1161.93 821.21 1165.67 820.477 1168.83 819.01C1171.98 817.543 1174.4 815.49 1176.09 812.85C1177.77 810.21 1178.62 807.167 1178.62 803.72C1178.62 799.98 1177.74 796.827 1175.98 794.26C1174.29 791.62 1171.87 789.64 1168.72 788.32C1165.64 786.927 1161.93 786.23 1157.61 786.23C1151.52 786.23 1146.79 787.843 1143.42 791.07C1140.04 794.223 1138.36 798.44 1138.36 803.72C1138.36 807.24 1139.16 810.32 1140.78 812.96C1142.39 815.527 1144.63 817.543 1147.49 819.01C1150.42 820.477 1153.79 821.21 1157.61 821.21ZM1178.62 776.33H1192.92V831H1179.61C1179.61 831 1179.5 830.303 1179.28 828.91C1179.13 827.443 1178.98 825.61 1178.84 823.41C1178.69 821.21 1178.62 819.047 1178.62 816.92V776.33ZM1233.14 822.64C1227.2 822.64 1221.95 821.76 1217.41 820C1212.93 818.167 1209.45 815.49 1206.96 811.97C1204.46 808.45 1203.22 804.197 1203.22 799.21C1203.22 794.297 1204.43 790.043 1206.85 786.45C1209.27 782.857 1212.71 780.07 1217.19 778.09C1221.73 776.11 1227.05 775.12 1233.14 775.12C1234.82 775.12 1236.44 775.23 1237.98 775.45C1239.59 775.67 1241.17 775.963 1242.71 776.33L1270.32 776.44V787.22C1266.58 787.293 1262.76 786.853 1258.88 785.9C1255.06 784.873 1251.69 783.773 1248.76 782.6L1248.43 781.83C1250.92 783.003 1253.27 784.47 1255.47 786.23C1257.67 787.917 1259.43 789.897 1260.75 792.17C1262.14 794.37 1262.84 796.937 1262.84 799.87C1262.84 804.637 1261.63 808.743 1259.21 812.19C1256.79 815.563 1253.34 818.167 1248.87 820C1244.47 821.76 1239.22 822.64 1233.14 822.64ZM1251.51 853.55V850.91C1251.51 847.537 1250.41 845.19 1248.21 843.87C1246.08 842.55 1243.15 841.89 1239.41 841.89H1222.36C1219.06 841.89 1216.27 841.633 1214 841.12C1211.8 840.607 1210.04 839.873 1208.72 838.92C1207.4 837.967 1206.44 836.83 1205.86 835.51C1205.27 834.263 1204.98 832.907 1204.98 831.44C1204.98 828.507 1205.93 826.307 1207.84 824.84C1209.74 823.3 1212.31 822.273 1215.54 821.76C1218.76 821.247 1222.32 821.137 1226.21 821.43L1233.14 822.64C1228.52 822.787 1225.07 823.19 1222.8 823.85C1220.6 824.437 1219.5 825.647 1219.5 827.48C1219.5 828.58 1219.94 829.46 1220.82 830.12C1221.7 830.707 1222.94 831 1224.56 831H1242.49C1247.4 831 1251.58 831.513 1255.03 832.54C1258.55 833.64 1261.22 835.437 1263.06 837.93C1264.89 840.497 1265.81 843.98 1265.81 848.38V853.55H1251.51ZM1233.14 812.3C1236.29 812.3 1239.04 811.787 1241.39 810.76C1243.81 809.733 1245.68 808.267 1247 806.36C1248.32 804.38 1248.98 802.033 1248.98 799.32C1248.98 796.533 1248.32 794.15 1247 792.17C1245.68 790.19 1243.84 788.687 1241.5 787.66C1239.15 786.56 1236.36 786.01 1233.14 786.01C1229.98 786.01 1227.2 786.56 1224.78 787.66C1222.36 788.687 1220.49 790.19 1219.17 792.17C1217.85 794.15 1217.19 796.533 1217.19 799.32C1217.19 802.033 1217.85 804.38 1219.17 806.36C1220.49 808.267 1222.32 809.733 1224.67 810.76C1227.09 811.787 1229.91 812.3 1233.14 812.3ZM1328.52 812.85H1342.38C1341.79 816.59 1340.22 819.927 1337.65 822.86C1335.16 825.793 1331.75 828.103 1327.42 829.79C1323.09 831.477 1317.81 832.32 1311.58 832.32C1304.61 832.32 1298.45 831.22 1293.1 829.02C1287.75 826.747 1283.57 823.483 1280.56 819.23C1277.55 814.977 1276.05 809.843 1276.05 803.83C1276.05 797.817 1277.52 792.683 1280.45 788.43C1283.38 784.103 1287.45 780.803 1292.66 778.53C1297.94 776.257 1304.1 775.12 1311.14 775.12C1318.33 775.12 1324.3 776.257 1329.07 778.53C1333.84 780.803 1337.36 784.25 1339.63 788.87C1341.98 793.417 1342.97 799.247 1342.6 806.36H1290.46C1290.83 809.147 1291.85 811.677 1293.54 813.95C1295.3 816.223 1297.65 818.02 1300.58 819.34C1303.59 820.66 1307.14 821.32 1311.25 821.32C1315.8 821.32 1319.57 820.55 1322.58 819.01C1325.66 817.397 1327.64 815.343 1328.52 812.85ZM1310.48 786.01C1305.2 786.01 1300.91 787.183 1297.61 789.53C1294.31 791.803 1292.18 794.627 1291.23 798H1328.41C1328.04 794.333 1326.28 791.437 1323.13 789.31C1320.05 787.11 1315.83 786.01 1310.48 786.01Z" fill="white"/>
</svg>
