<svg xmlns="http://www.w3.org/2000/svg" xmlns:xlink="http://www.w3.org/1999/xlink" version="1.1" width="512" height="512" x="0" y="0" viewBox="0 0 682.667 682.667" style="enable-background:new 0 0 512 512" xml:space="preserve" class=""><g><defs fill="#000000"><clipPath id="a" clipPathUnits="userSpaceOnUse" fill="#000000"><path d="M0 512h512V0H0Z" fill="#398ede" opacity="1" data-original="#000000"/></clipPath></defs><path d="M0 0v167.39" style="stroke-width:15;stroke-linecap:round;stroke-linejoin:round;stroke-miterlimit:10;stroke-dasharray:none;stroke-opacity:1" transform="matrix(1.33333 0 0 -1.33333 114.327 515.65)" fill="none" stroke="#398ede" stroke-width="15" stroke-linecap="round" stroke-linejoin="round" stroke-miterlimit="10" stroke-dasharray="none" stroke-opacity="" data-original="#000000" opacity="1"/><path d="M0 0v-167.39" style="stroke-width:15;stroke-linecap:round;stroke-linejoin:round;stroke-miterlimit:10;stroke-dasharray:none;stroke-opacity:1" transform="matrix(1.33333 0 0 -1.33333 568.337 292.463)" fill="none" stroke="#398ede" stroke-width="15" stroke-linecap="round" stroke-linejoin="round" stroke-miterlimit="10" stroke-dasharray="none" stroke-opacity="" data-original="#000000" opacity="1"/><path d="M0 0v77.744" style="stroke-width:15;stroke-linecap:round;stroke-linejoin:round;stroke-miterlimit:10;stroke-dasharray:none;stroke-opacity:1" transform="matrix(1.33333 0 0 -1.33333 284.034 443.583)" fill="none" stroke="#398ede" stroke-width="15" stroke-linecap="round" stroke-linejoin="round" stroke-miterlimit="10" stroke-dasharray="none" stroke-opacity="" data-original="#000000" opacity="1"/><g clip-path="url(#a)" transform="matrix(1.33333 0 0 -1.33333 0 682.667)"><path d="M0 0v8.948" style="stroke-width:15;stroke-linecap:round;stroke-linejoin:round;stroke-miterlimit:10;stroke-dasharray:none;stroke-opacity:1" transform="translate(256.001 495.552)" fill="none" stroke="#398ede" stroke-width="15" stroke-linecap="round" stroke-linejoin="round" stroke-miterlimit="10" stroke-dasharray="none" stroke-opacity="" data-original="#000000" opacity="1"/><path d="M0 0c-10.057 12.995-19.399 27.08-27.43 42.222-2.294 4.324-5.362 11.683-6.799 16.361l-1.067 3.472v.006l-.001-.003-.001.003v-.006l-1.066-3.472c-1.437-4.678-4.506-12.037-6.8-16.361-51.982-98.01-158.909-151.771-158.909-151.771-7.195-3.705-15.217-5.639-23.301-5.276-4.803.215-9.341 1.233-11.261 4.001a16.125 16.125 0 0 0-1.914 3.679c-1.96 5.385-8.451 7.616-12.978 4.102-4.627-3.593-7.604-9.208-7.604-15.52v0c0-12.546 10.171-22.717 22.717-22.717v0h16.555a83.359 83.359 0 0 1 35.214 7.777c30.102 14.024 90.528 50.06 149.347 131.829v.003l.001-.001.001.001v-.003C23.523-83.443 83.949-119.479 114.051-133.503a83.363 83.363 0 0 1 35.215-7.777h16.554v0c12.547 0 22.718 10.171 22.718 22.717 0 6.312-2.978 11.927-7.604 15.52-4.528 3.514-11.018 1.283-12.979-4.102a16.16 16.16 0 0 0-1.913-3.679c-1.92-2.768-6.459-3.786-11.263-4.001-8.083-.363-16.105 1.571-23.3 5.276 0 0-57.485 28.903-108.648 82.959" style="stroke-width:15;stroke-linecap:round;stroke-linejoin:round;stroke-miterlimit:10;stroke-dasharray:none;stroke-opacity:1" transform="translate(291.297 433.498)" fill="none" stroke="#398ede" stroke-width="15" stroke-linecap="round" stroke-linejoin="round" stroke-miterlimit="10" stroke-dasharray="none" stroke-opacity="" data-original="#000000" opacity="1"/><path d="M0 0h352.149" style="stroke-width:15;stroke-linecap:round;stroke-linejoin:round;stroke-miterlimit:10;stroke-dasharray:none;stroke-opacity:1" transform="translate(79.925 292.653)" fill="none" stroke="#398ede" stroke-width="15" stroke-linecap="round" stroke-linejoin="round" stroke-miterlimit="10" stroke-dasharray="none" stroke-opacity="" data-original="#000000" opacity="1"/><path d="M0 0h-173.694" style="stroke-width:15;stroke-linecap:round;stroke-linejoin:round;stroke-miterlimit:10;stroke-dasharray:none;stroke-opacity:1" transform="translate(342.847 339.39)" fill="none" stroke="#398ede" stroke-width="15" stroke-linecap="round" stroke-linejoin="round" stroke-miterlimit="10" stroke-dasharray="none" stroke-opacity="" data-original="#000000" opacity="1"/><path d="M0 0h-95.476a8.063 8.063 0 0 0-8.063 8.064v61.617a8.063 8.063 0 0 0 8.063 8.063H0a8.062 8.062 0 0 0 8.063-8.063V8.064A8.063 8.063 0 0 0 0 0Z" style="stroke-width:15;stroke-linecap:round;stroke-linejoin:round;stroke-miterlimit:10;stroke-dasharray:none;stroke-opacity:1" transform="translate(260.826 179.313)" fill="none" stroke="#398ede" stroke-width="15" stroke-linecap="round" stroke-linejoin="round" stroke-miterlimit="10" stroke-dasharray="none" stroke-opacity="" data-original="#000000" opacity="1"/><path d="M0 0h-466.437c-8.353 0-15.124 6.771-15.124 15.125 0 8.353 6.771 15.125 15.124 15.125H0c8.353 0 15.125-6.772 15.125-15.125C15.125 6.771 8.353 0 0 0Z" style="stroke-width:15;stroke-linecap:round;stroke-linejoin:round;stroke-miterlimit:10;stroke-dasharray:none;stroke-opacity:1" transform="translate(489.218 7.5)" fill="none" stroke="#398ede" stroke-width="15" stroke-linecap="round" stroke-linejoin="round" stroke-miterlimit="10" stroke-dasharray="none" stroke-opacity="" data-original="#000000" opacity="1"/><path d="M0 0h231.549c6.286 0 11.382-5.096 11.382-11.381v-14.028c0-6.286-5.096-11.381-11.382-11.381h-357.473c-6.285 0-11.381 5.095-11.381 11.381v14.028c0 6.285 5.096 11.381 11.381 11.381h90.885" style="stroke-width:15;stroke-linecap:round;stroke-linejoin:round;stroke-miterlimit:10;stroke-dasharray:none;stroke-opacity:1" transform="translate(203.186 124.4)" fill="none" stroke="#398ede" stroke-width="15" stroke-linecap="round" stroke-linejoin="round" stroke-miterlimit="10" stroke-dasharray="none" stroke-opacity="" data-original="#000000" opacity="1"/><path d="M0 0v127.398a5.258 5.258 0 0 1-5.259 5.259h-51.675a5.259 5.259 0 0 1-5.259-5.259V0" style="stroke-width:15;stroke-linecap:round;stroke-linejoin:round;stroke-miterlimit:10;stroke-dasharray:none;stroke-opacity:1" transform="translate(355.418 124.4)" fill="none" stroke="#398ede" stroke-width="15" stroke-linecap="round" stroke-linejoin="round" stroke-miterlimit="10" stroke-dasharray="none" stroke-opacity="" data-original="#000000" opacity="1"/><path d="M0 0v168.253" style="stroke-width:15;stroke-linecap:round;stroke-linejoin:round;stroke-miterlimit:10;stroke-dasharray:none;stroke-opacity:1" transform="translate(390.394 124.4)" fill="none" stroke="#398ede" stroke-width="15" stroke-linecap="round" stroke-linejoin="round" stroke-miterlimit="10" stroke-dasharray="none" stroke-opacity="" data-original="#000000" opacity="1"/><path d="M0 0v-168.253" style="stroke-width:15;stroke-linecap:round;stroke-linejoin:round;stroke-miterlimit:10;stroke-dasharray:none;stroke-opacity:1" transform="translate(121.603 292.653)" fill="none" stroke="#398ede" stroke-width="15" stroke-linecap="round" stroke-linejoin="round" stroke-miterlimit="10" stroke-dasharray="none" stroke-opacity="" data-original="#000000" opacity="1"/><path d="M0 0v49.86" style="stroke-width:15;stroke-linecap:round;stroke-linejoin:round;stroke-miterlimit:10;stroke-dasharray:none;stroke-opacity:1" transform="translate(138.996 37.75)" fill="none" stroke="#398ede" stroke-width="15" stroke-linecap="round" stroke-linejoin="round" stroke-miterlimit="10" stroke-dasharray="none" stroke-opacity="" data-original="#000000" opacity="1"/><path d="M0 0v-49.86" style="stroke-width:15;stroke-linecap:round;stroke-linejoin:round;stroke-miterlimit:10;stroke-dasharray:none;stroke-opacity:1" transform="translate(109.447 87.61)" fill="none" stroke="#398ede" stroke-width="15" stroke-linecap="round" stroke-linejoin="round" stroke-miterlimit="10" stroke-dasharray="none" stroke-opacity="" data-original="#000000" opacity="1"/><path d="M0 0v49.86" style="stroke-width:15;stroke-linecap:round;stroke-linejoin:round;stroke-miterlimit:10;stroke-dasharray:none;stroke-opacity:1" transform="translate(402.55 37.75)" fill="none" stroke="#398ede" stroke-width="15" stroke-linecap="round" stroke-linejoin="round" stroke-miterlimit="10" stroke-dasharray="none" stroke-opacity="" data-original="#000000" opacity="1"/><path d="M0 0v-49.86" style="stroke-width:15;stroke-linecap:round;stroke-linejoin:round;stroke-miterlimit:10;stroke-dasharray:none;stroke-opacity:1" transform="translate(373.002 87.61)" fill="none" stroke="#398ede" stroke-width="15" stroke-linecap="round" stroke-linejoin="round" stroke-miterlimit="10" stroke-dasharray="none" stroke-opacity="" data-original="#000000" opacity="1"/></g></g></svg>