<svg width="237" height="117" viewBox="0 0 237 117" fill="none" xmlns="http://www.w3.org/2000/svg">
<path d="M19.3 39.7993C14.4 45.0993 11.5 45.8993 11.5 45.8993C11.5 45.8993 14.2 47.5993 18.7 46.4993C18.2 47.3993 17.8 48.3993 17.4 49.3993C17.2 49.8993 17 50.3993 16.8 50.7993C9.4 50.6993 3.2 46.8993 0 44.4993C5.4 46.8993 13.2 39.4993 19.4 34.5993C32.9 24.1993 42.8 32.2993 42.8 32.2993C37.8 29.1993 28.2 29.9993 19.3 39.7993Z" fill="#398EDE"/>
<path d="M27.8 26.6998C22.3 27.4998 20.2 26.5998 20.2 26.5998C20.2 26.5998 21 28.8998 24.2 30.3998C23.5 30.6998 22.8 31.0998 22 31.4998C21.7 31.6998 21.3 31.8998 21 32.0998C16.6 28.4998 14.7 23.2998 14 20.2998C16.1 24.2998 24.3 23.5998 30.3 23.6998C43.3 23.8998 45.4 33.4998 45.4 33.4998C44 29.2998 37.8 25.1998 27.8 26.6998Z" fill="#398EDE"/>
<path d="M18.5001 49.7998C15.2001 58.2998 11.9001 70.2999 5.1001 71.0999C9.8001 71.5999 18.4001 71.5999 25.9001 67.0999C26.1001 64.8999 26.2001 62.4998 26.3001 60.1998C22.0001 65.5998 17.3001 65.5999 17.3001 65.5999C17.3001 65.5999 19.7001 63.0998 21.4001 54.9998C24.5001 39.9998 33.5001 33.4998 40.3001 33.6998C40.4001 33.6998 25.7001 31.4998 18.5001 49.7998Z" fill="#398EDE"/>
<path d="M27.8002 55.7C27.3002 64.8 27.9002 77.2 21.7002 80.1C26.8002 79 36.1002 75.9 41.8002 67.8C49.0002 57.5 40.4002 45.7 42.0002 37.1C40.6002 39.8 39.3002 44.5 39.7002 52.5C40.4002 68.3 31.5002 71.1 31.5002 71.1C31.5002 71.1 33.0002 68 32.1002 59.7C30.3002 44.5 36.9002 35.5 43.4002 33.5C43.5002 33.6 28.9002 36.1 27.8002 55.7Z" fill="#398EDE"/>
<path d="M70.1001 59.2988C75.0001 53.9988 77.9001 53.1988 77.9001 53.1988C77.9001 53.1988 75.2001 51.4988 70.7001 52.5988C71.2001 51.6988 71.6001 50.6988 72.0001 49.6988C72.2001 49.1988 72.4001 48.6988 72.6001 48.2988C79.9001 48.3988 86.0001 52.0988 89.3001 54.4988C83.9001 52.2988 76.2001 59.5988 70.0001 64.3988C56.5001 74.7988 46.6001 66.6988 46.6001 66.6988C51.6001 69.8988 61.2001 69.0988 70.1001 59.2988Z" fill="#398EDE"/>
<path d="M61.6 72.3996C67.1 71.5996 69.2 72.4996 69.2 72.4996C69.2 72.4996 68.4 70.1996 65.2 68.6996C65.9 68.3996 66.6 67.9996 67.4 67.5996C67.7 67.3996 68.1 67.1996 68.4 66.9996C72.8 70.5996 74.7 75.7996 75.4 78.7996C73.3 74.7996 65.1 75.4996 59.1 75.3996C46.1 75.1996 44 65.5996 44 65.5996C45.4 69.7996 51.5 73.8996 61.6 72.3996Z" fill="#398EDE"/>
<path d="M70.9001 49.3C74.2001 40.8 77.5001 28.8 84.3001 28C79.6001 27.5 71.0001 27.5 63.5001 32C63.3001 34.2 63.2001 36.6 63.1001 38.9C67.4001 33.5 72.1001 33.5 72.1001 33.5C72.1001 33.5 69.7001 36 68.0001 44.1C64.9001 59.1 55.9001 65.6 49.1001 65.4C49.0001 65.4 63.7001 67.6 70.9001 49.3Z" fill="#398EDE"/>
<path d="M61.5999 43.4C62.0999 34.3 61.4999 21.9 67.6999 19C62.5999 20.1 53.2999 23.2 47.5999 31.3C40.3999 41.6 48.9999 53.4 47.3999 62C48.7999 59.3 50.0999 54.6 49.6999 46.6C48.9999 30.8 57.8999 28 57.8999 28C57.8999 28 56.3999 31.1 57.2999 39.4C59.0999 54.6 52.4999 63.6 45.9999 65.6C45.8999 65.5 60.4999 63 61.5999 43.4Z" fill="#398EDE"/>
<path d="M132.18 26H141.84V77.45L106.98 44.62V75H97.32V23.55L132.18 56.38V26ZM160.256 50.5C160.256 53.6267 160.909 56.4033 162.216 58.83C163.523 61.2567 165.319 63.17 167.606 64.57C169.893 65.97 172.553 66.67 175.586 66.67C178.619 66.67 181.279 65.97 183.566 64.57C185.853 63.17 187.626 61.2567 188.886 58.83C190.193 56.4033 190.846 53.6267 190.846 50.5C190.846 47.3733 190.216 44.5967 188.956 42.17C187.696 39.7433 185.923 37.83 183.636 36.43C181.349 35.03 178.666 34.33 175.586 34.33C172.553 34.33 169.893 35.03 167.606 36.43C165.319 37.83 163.523 39.7433 162.216 42.17C160.909 44.5967 160.256 47.3733 160.256 50.5ZM149.686 50.5C149.686 46.7667 150.339 43.36 151.646 40.28C152.953 37.1533 154.773 34.4467 157.106 32.16C159.439 29.8733 162.169 28.1233 165.296 26.91C168.469 25.65 171.899 25.02 175.586 25.02C179.319 25.02 182.749 25.65 185.876 26.91C189.003 28.1233 191.733 29.8733 194.066 32.16C196.446 34.4467 198.266 37.1533 199.526 40.28C200.833 43.36 201.486 46.7667 201.486 50.5C201.486 54.1867 200.833 57.6167 199.526 60.79C198.266 63.9167 196.469 66.6467 194.136 68.98C191.849 71.3133 189.119 73.1333 185.946 74.44C182.819 75.7 179.366 76.33 175.586 76.33C171.806 76.33 168.329 75.7 165.156 74.44C162.029 73.1333 159.299 71.3133 156.966 68.98C154.633 66.6467 152.836 63.9167 151.576 60.79C150.316 57.6167 149.686 54.1867 149.686 50.5ZM209.224 26H219.374V75H209.224V26Z" fill="#398EDE"/>
<path d="M5.174 89.441V85.7H20.254V89.441H14.773V106H10.626V89.441H5.174ZM23.9733 97.068V93.327H38.8793V97.068H23.9733ZM36.2403 85.7H40.3873V106H36.2403V85.7ZM22.6103 85.7H26.7573V106H22.6103V85.7ZM47.5697 101.389L48.0627 98.112H57.8067L58.2997 101.389H47.5697ZM52.8767 92.283L49.8317 99.272L49.9187 100.2L47.2507 106H42.5817L52.8767 84.511L63.1717 106H58.4737L55.8637 100.374L55.9217 99.33L52.8767 92.283ZM65.3739 85.7H69.5789V106H65.3739V85.7ZM87.1153 94.603L85.8103 106H81.4893L84.5053 84.685L93.0023 97.793L101.499 84.685L104.515 106H100.194L98.8893 94.603L93.0023 104.115L87.1153 94.603ZM110.582 101.389L111.075 98.112H120.819L121.312 101.389H110.582ZM115.889 92.283L112.844 99.272L112.931 100.2L110.263 106H105.594L115.889 84.511L126.184 106H121.486L118.876 100.374L118.934 99.33L115.889 92.283ZM130.156 99.185C130.581 99.939 131.045 100.596 131.548 101.157C132.07 101.718 132.64 102.153 133.259 102.462C133.877 102.771 134.544 102.926 135.26 102.926C136.091 102.926 136.768 102.713 137.29 102.288C137.812 101.863 138.073 101.283 138.073 100.548C138.073 99.91 137.908 99.3977 137.58 99.011C137.27 98.6243 136.797 98.286 136.159 97.996C135.54 97.6867 134.776 97.358 133.868 97.01C133.384 96.836 132.824 96.604 132.186 96.314C131.567 96.0047 130.977 95.618 130.417 95.154C129.856 94.6707 129.392 94.0907 129.025 93.414C128.657 92.718 128.474 91.8867 128.474 90.92C128.474 89.76 128.764 88.7643 129.344 87.933C129.943 87.0823 130.745 86.4347 131.751 85.99C132.775 85.526 133.916 85.294 135.173 85.294C136.468 85.294 137.58 85.5163 138.508 85.961C139.455 86.3863 140.238 86.9373 140.857 87.614C141.495 88.2713 141.988 88.9577 142.336 89.673L139.088 91.471C138.817 90.9877 138.488 90.5527 138.102 90.166C137.734 89.76 137.309 89.441 136.826 89.209C136.342 88.9577 135.791 88.832 135.173 88.832C134.361 88.832 133.752 89.0253 133.346 89.412C132.94 89.7793 132.737 90.2143 132.737 90.717C132.737 91.2197 132.901 91.6643 133.23 92.051C133.558 92.4183 134.061 92.776 134.738 93.124C135.414 93.4527 136.265 93.791 137.29 94.139C137.947 94.371 138.575 94.661 139.175 95.009C139.793 95.357 140.344 95.7823 140.828 96.285C141.33 96.7683 141.717 97.3483 141.988 98.025C142.278 98.6823 142.423 99.446 142.423 100.316C142.423 101.302 142.229 102.182 141.843 102.955C141.456 103.728 140.924 104.386 140.248 104.927C139.571 105.449 138.807 105.845 137.957 106.116C137.125 106.406 136.246 106.551 135.318 106.551C134.08 106.551 132.92 106.319 131.838 105.855C130.774 105.372 129.846 104.724 129.054 103.912C128.261 103.1 127.642 102.22 127.198 101.273L130.156 99.185ZM147.573 99.185C147.998 99.939 148.462 100.596 148.965 101.157C149.487 101.718 150.057 102.153 150.676 102.462C151.294 102.771 151.961 102.926 152.677 102.926C153.508 102.926 154.185 102.713 154.707 102.288C155.229 101.863 155.49 101.283 155.49 100.548C155.49 99.91 155.325 99.3977 154.997 99.011C154.687 98.6243 154.214 98.286 153.576 97.996C152.957 97.6867 152.193 97.358 151.285 97.01C150.801 96.836 150.241 96.604 149.603 96.314C148.984 96.0047 148.394 95.618 147.834 95.154C147.273 94.6707 146.809 94.0907 146.442 93.414C146.074 92.718 145.891 91.8867 145.891 90.92C145.891 89.76 146.181 88.7643 146.761 87.933C147.36 87.0823 148.162 86.4347 149.168 85.99C150.192 85.526 151.333 85.294 152.59 85.294C153.885 85.294 154.997 85.5163 155.925 85.961C156.872 86.3863 157.655 86.9373 158.274 87.614C158.912 88.2713 159.405 88.9577 159.753 89.673L156.505 91.471C156.234 90.9877 155.905 90.5527 155.519 90.166C155.151 89.76 154.726 89.441 154.243 89.209C153.759 88.9577 153.208 88.832 152.59 88.832C151.778 88.832 151.169 89.0253 150.763 89.412C150.357 89.7793 150.154 90.2143 150.154 90.717C150.154 91.2197 150.318 91.6643 150.647 92.051C150.975 92.4183 151.478 92.776 152.155 93.124C152.831 93.4527 153.682 93.791 154.707 94.139C155.364 94.371 155.992 94.661 156.592 95.009C157.21 95.357 157.761 95.7823 158.245 96.285C158.747 96.7683 159.134 97.3483 159.405 98.025C159.695 98.6823 159.84 99.446 159.84 100.316C159.84 101.302 159.646 102.182 159.26 102.955C158.873 103.728 158.341 104.386 157.665 104.927C156.988 105.449 156.224 105.845 155.374 106.116C154.542 106.406 153.663 106.551 152.735 106.551C151.497 106.551 150.337 106.319 149.255 105.855C148.191 105.372 147.263 104.724 146.471 103.912C145.678 103.1 145.059 102.22 144.615 101.273L147.573 99.185ZM166.034 101.389L166.527 98.112H176.271L176.764 101.389H166.034ZM171.341 92.283L168.296 99.272L168.383 100.2L165.715 106H161.046L171.341 84.511L181.636 106H176.938L174.328 100.374L174.386 99.33L171.341 92.283ZM192.82 98.46V95.154H202.825C202.883 96.7007 202.699 98.1603 202.274 99.533C201.868 100.906 201.22 102.124 200.331 103.187C199.461 104.231 198.378 105.053 197.083 105.652C195.788 106.251 194.309 106.551 192.646 106.551C191.08 106.551 189.63 106.29 188.296 105.768C186.981 105.246 185.831 104.511 184.845 103.564C183.878 102.617 183.124 101.486 182.583 100.171C182.061 98.8563 181.8 97.416 181.8 95.85C181.8 94.284 182.071 92.8533 182.612 91.558C183.173 90.2433 183.946 89.122 184.932 88.194C185.918 87.266 187.078 86.5507 188.412 86.048C189.746 85.5453 191.196 85.294 192.762 85.294C194.154 85.294 195.401 85.4873 196.503 85.874C197.624 86.2607 198.61 86.802 199.461 87.498C200.331 88.1747 201.075 88.9867 201.694 89.934L198.156 91.993C197.653 91.1037 196.948 90.3883 196.039 89.847C195.15 89.2863 194.057 89.006 192.762 89.006C191.544 89.006 190.432 89.2863 189.427 89.847C188.422 90.3883 187.619 91.1713 187.02 92.196C186.44 93.2207 186.15 94.4387 186.15 95.85C186.15 97.242 186.44 98.4697 187.02 99.533C187.6 100.577 188.383 101.389 189.369 101.969C190.374 102.549 191.505 102.839 192.762 102.839C193.593 102.839 194.338 102.733 194.995 102.52C195.652 102.288 196.213 101.969 196.677 101.563C197.16 101.157 197.566 100.693 197.895 100.171C198.224 99.649 198.475 99.0787 198.649 98.46H192.82ZM208.879 106V102.491H219.116V106H208.879ZM208.879 89.209V85.7H219.116V89.209H208.879ZM208.879 96.952V93.501H218.536V96.952H208.879ZM206.211 85.7H210.213V106H206.211V85.7Z" fill="#398EDE"/>
</svg>
