<svg width="1519" height="133" viewBox="0 0 1519 133" fill="none" xmlns="http://www.w3.org/2000/svg">
<path fill-rule="evenodd" clip-rule="evenodd" d="M77.4707 80.5938C68.5834 105.033 16.4297 95.2108 0 84.9787C19.9377 64.2811 55.1942 63.9888 77.4707 80.5938Z" fill="#9D8954"/>
<path fill-rule="evenodd" clip-rule="evenodd" d="M77.4707 80.5938C86.4162 105.033 138.57 95.2108 155 84.9787C135.062 64.2811 99.8058 63.9888 77.4707 80.5938Z" fill="#9D8954"/>
<path fill-rule="evenodd" clip-rule="evenodd" d="M77.4707 80.5935C84.1359 105.793 45.2547 116.084 25.9016 117.078C30.5207 88.7206 49.6982 79.6581 77.4707 80.5935Z" fill="#C4AB69"/>
<path fill-rule="evenodd" clip-rule="evenodd" d="M77.4704 80.5935C70.8634 105.793 109.745 116.084 129.098 117.078C124.421 88.7206 105.243 79.6581 77.4704 80.5935Z" fill="#C4AB69"/>
<path fill-rule="evenodd" clip-rule="evenodd" d="M77.4705 80.5938C108.4 91.8195 97.7591 119.183 77.4705 132.104C57.1823 119.183 46.5994 91.8195 77.4705 80.5938Z" fill="#D0BC87"/>
<path fill-rule="evenodd" clip-rule="evenodd" d="M52.7387 43.7588C44.2608 30.3695 39.6417 17.097 43.9685 4C58.5269 7.62507 65.9527 18.0909 71.5657 30.3695C65.3092 34.813 58.9945 39.2564 52.7387 43.7588ZM97.9345 43.7588C106.412 30.3695 110.973 17.097 106.705 4C92.1463 7.62507 84.7205 18.0909 79.1075 30.3695C85.364 34.813 91.6202 39.2564 97.9345 43.7588Z" fill="#62386C"/>
<path fill-rule="evenodd" clip-rule="evenodd" d="M77.4707 86.4994C70.0453 77.4369 62.561 68.374 55.1356 59.3115C36.5427 35.9243 27.9481 54.751 10.6411 36.7427C12.103 75.1563 38.5307 101.526 77.4707 86.4994C84.9546 77.4369 92.38 68.374 99.8643 59.3115C118.457 35.9243 126.994 54.751 144.359 36.7427C142.897 75.1563 116.411 101.526 77.4707 86.4994Z" fill="#6D3E78"/>
<path fill-rule="evenodd" clip-rule="evenodd" d="M92.3805 40.426C96.0641 19.9036 107.056 20.5468 122.901 15.0508C128.104 39.6658 121.556 50.7751 104.249 65.3921C100.273 57.0309 96.3561 48.7283 92.3805 40.426ZM62.5615 40.426C58.8779 19.9036 44.6702 21.5404 32.0994 15.0508C26.8957 39.6658 33.4442 50.7751 50.7508 65.3921C54.6682 57.0309 58.6441 48.7283 62.5615 40.426Z" fill="#6D3E78"/>
<path fill-rule="evenodd" clip-rule="evenodd" d="M77.4709 86.4991C126.117 68.7831 109.395 25.6919 77.4709 5.40332C45.5472 25.6919 28.8252 68.7831 77.4709 86.4991Z" fill="#8A6593"/>
<path fill-rule="evenodd" clip-rule="evenodd" d="M77.4706 86.499C69.3436 39.1396 53.7908 60.6559 20.4641 31.5386C21.9256 61.8251 41.8634 90.124 77.4706 86.499C85.6562 39.1396 101.209 60.6559 134.536 31.5386C133.074 61.8251 113.078 90.124 77.4706 86.499Z" fill="#7C5186"/>
<path d="M175.74 78.02H190.59C190.883 80.5133 192.02 82.7867 194 84.84C196.053 86.82 198.73 88.3967 202.03 89.57C205.33 90.67 209.033 91.22 213.14 91.22C216.88 91.22 219.96 90.8167 222.38 90.01C224.8 89.2033 226.597 88.0667 227.77 86.6C228.943 85.1333 229.53 83.3733 229.53 81.32C229.53 79.34 228.797 77.8367 227.33 76.81C225.863 75.71 223.553 74.83 220.4 74.17C217.247 73.4367 213.103 72.7033 207.97 71.97C203.937 71.3833 200.123 70.5767 196.53 69.55C192.937 68.45 189.747 67.0567 186.96 65.37C184.247 63.6833 182.083 61.63 180.47 59.21C178.93 56.7167 178.16 53.7833 178.16 50.41C178.16 46.23 179.333 42.5633 181.68 39.41C184.1 36.2567 187.657 33.8 192.35 32.04C197.043 30.28 202.8 29.4 209.62 29.4C219.887 29.4 227.77 31.6 233.27 36C238.843 40.3267 241.557 46.3033 241.41 53.93H227.11C226.817 49.6033 224.983 46.4867 221.61 44.58C218.31 42.6733 214.13 41.72 209.07 41.72C204.377 41.72 200.49 42.4167 197.41 43.81C194.403 45.2033 192.9 47.5867 192.9 50.96C192.9 52.28 193.267 53.4533 194 54.48C194.733 55.4333 195.98 56.2767 197.74 57.01C199.5 57.7433 201.883 58.44 204.89 59.1C207.897 59.76 211.637 60.42 216.11 61.08C220.29 61.6667 224.067 62.4733 227.44 63.5C230.887 64.4533 233.82 65.7367 236.24 67.35C238.733 68.89 240.64 70.87 241.96 73.29C243.28 75.71 243.94 78.68 243.94 82.2C243.94 86.5267 242.803 90.3033 240.53 93.53C238.33 96.6833 234.883 99.14 230.19 100.9C225.57 102.66 219.557 103.54 212.15 103.54C206.87 103.54 202.213 102.99 198.18 101.89C194.147 100.717 190.663 99.1767 187.73 97.27C184.797 95.3633 182.413 93.2733 180.58 91C178.747 88.7267 177.427 86.4533 176.62 84.18C175.887 81.9067 175.593 79.8533 175.74 78.02ZM287.207 103.32C280.314 103.32 274.227 102.22 268.947 100.02C263.74 97.82 259.67 94.63 256.737 90.45C253.804 86.1967 252.337 80.99 252.337 74.83C252.337 68.67 253.804 63.4633 256.737 59.21C259.67 54.8833 263.74 51.62 268.947 49.42C274.227 47.22 280.314 46.12 287.207 46.12C294.1 46.12 300.114 47.22 305.247 49.42C310.454 51.62 314.524 54.8833 317.457 59.21C320.39 63.4633 321.857 68.67 321.857 74.83C321.857 80.99 320.39 86.1967 317.457 90.45C314.524 94.63 310.454 97.82 305.247 100.02C300.114 102.22 294.1 103.32 287.207 103.32ZM287.207 92.32C291.02 92.32 294.43 91.66 297.437 90.34C300.517 88.9467 302.937 86.9667 304.697 84.4C306.457 81.76 307.337 78.57 307.337 74.83C307.337 71.09 306.457 67.9 304.697 65.26C302.937 62.5467 300.554 60.4933 297.547 59.1C294.54 57.7067 291.094 57.01 287.207 57.01C283.394 57.01 279.947 57.7067 276.867 59.1C273.787 60.4933 271.33 62.51 269.497 65.15C267.737 67.79 266.857 71.0167 266.857 74.83C266.857 78.57 267.737 81.76 269.497 84.4C271.257 86.9667 273.677 88.9467 276.757 90.34C279.837 91.66 283.32 92.32 287.207 92.32ZM364.658 103.32C357.765 103.32 351.678 102.22 346.398 100.02C341.191 97.82 337.121 94.63 334.188 90.45C331.255 86.1967 329.788 80.99 329.788 74.83C329.788 68.67 331.255 63.4633 334.188 59.21C337.121 54.8833 341.191 51.62 346.398 49.42C351.678 47.22 357.765 46.12 364.658 46.12C371.551 46.12 377.565 47.22 382.698 49.42C387.905 51.62 391.975 54.8833 394.908 59.21C397.841 63.4633 399.308 68.67 399.308 74.83C399.308 80.99 397.841 86.1967 394.908 90.45C391.975 94.63 387.905 97.82 382.698 100.02C377.565 102.22 371.551 103.32 364.658 103.32ZM364.658 92.32C368.471 92.32 371.881 91.66 374.888 90.34C377.968 88.9467 380.388 86.9667 382.148 84.4C383.908 81.76 384.788 78.57 384.788 74.83C384.788 71.09 383.908 67.9 382.148 65.26C380.388 62.5467 378.005 60.4933 374.998 59.1C371.991 57.7067 368.545 57.01 364.658 57.01C360.845 57.01 357.398 57.7067 354.318 59.1C351.238 60.4933 348.781 62.51 346.948 65.15C345.188 67.79 344.308 71.0167 344.308 74.83C344.308 78.57 345.188 81.76 346.948 84.4C348.708 86.9667 351.128 88.9467 354.208 90.34C357.288 91.66 360.771 92.32 364.658 92.32ZM410.869 25.33H425.169V102H410.869V25.33ZM471.259 47.33L438.699 76.04L439.029 67.24L473.789 102H455.639L425.499 71.31L451.789 47.33H471.259ZM526.745 74.17V30.83H541.375V75.16C541.375 78.9 540.678 82.4567 539.285 85.83C537.965 89.2033 535.948 92.21 533.235 94.85C530.595 97.4167 527.295 99.4333 523.335 100.9C519.448 102.367 514.902 103.1 509.695 103.1C505.662 103.1 501.738 102.587 497.925 101.56C494.185 100.533 490.812 98.9933 487.805 96.94C484.798 94.8133 482.378 92.1733 480.545 89.02C478.712 85.7933 477.722 82.0167 477.575 77.69H491.435C492.242 81.87 494.295 85.06 497.595 87.26C500.968 89.3867 505.002 90.45 509.695 90.45C513.728 90.45 516.992 89.7533 519.485 88.36C521.978 86.8933 523.812 84.95 524.985 82.53C526.158 80.0367 526.745 77.25 526.745 74.17ZM583.023 103.21C577.596 103.21 572.646 102.037 568.173 99.69C563.773 97.27 560.253 93.9333 557.613 89.68C555.046 85.3533 553.763 80.3667 553.763 74.72C553.763 68.9267 555.083 63.9033 557.723 59.65C560.363 55.3967 563.919 52.0967 568.393 49.75C572.939 47.33 578.073 46.12 583.793 46.12C590.099 46.12 595.159 47.4033 598.973 49.97C602.859 52.4633 605.683 55.8733 607.443 60.2C609.203 64.5267 610.083 69.3667 610.083 74.72C610.083 77.9467 609.569 81.2467 608.543 84.62C607.516 87.92 605.939 91 603.813 93.86C601.686 96.6467 598.899 98.92 595.453 100.68C592.006 102.367 587.863 103.21 583.023 103.21ZM587.643 92.21C591.969 92.21 595.709 91.4767 598.863 90.01C602.016 88.5433 604.436 86.49 606.123 83.85C607.809 81.21 608.653 78.1667 608.653 74.72C608.653 70.98 607.773 67.8267 606.013 65.26C604.326 62.62 601.906 60.64 598.753 59.32C595.673 57.9267 591.969 57.23 587.643 57.23C581.556 57.23 576.826 58.8433 573.453 62.07C570.079 65.2233 568.393 69.44 568.393 74.72C568.393 78.24 569.199 81.32 570.813 83.96C572.426 86.5267 574.663 88.5433 577.523 90.01C580.456 91.4767 583.829 92.21 587.643 92.21ZM608.653 47.33H622.953V102H609.643C609.643 102 609.533 101.303 609.313 99.91C609.166 98.4433 609.019 96.61 608.873 94.41C608.726 92.21 608.653 90.0467 608.653 87.92V47.33ZM652.285 23.35V35.89H635.675V23.35H652.285ZM636.775 47.33H651.075V102H636.775V47.33ZM683.057 30.83H758.077V43.04H683.057V30.83ZM713.307 41.5H727.937V102H713.307V41.5ZM811.089 102V71.97C811.089 68.9633 810.575 66.47 809.549 64.49C808.522 62.51 806.872 61.0067 804.599 59.98C802.399 58.9533 799.429 58.44 795.689 58.44C792.095 58.44 788.832 59.1367 785.899 60.53C782.965 61.85 780.582 63.61 778.749 65.81C776.915 67.9367 775.889 70.21 775.669 72.63L775.559 66.58C775.925 64.16 776.769 61.74 778.089 59.32C779.409 56.9 781.169 54.7 783.369 52.72C785.569 50.74 788.209 49.1633 791.289 47.99C794.442 46.7433 797.962 46.12 801.849 46.12C805.222 46.12 808.339 46.56 811.199 47.44C814.059 48.2467 816.552 49.53 818.679 51.29C820.805 53.05 822.455 55.25 823.629 57.89C824.802 60.4567 825.389 63.5 825.389 67.02V102H811.089ZM762.139 102V25.33H776.439V102H762.139ZM865.005 103.21C859.578 103.21 854.628 102.037 850.155 99.69C845.755 97.27 842.235 93.9333 839.595 89.68C837.028 85.3533 835.745 80.3667 835.745 74.72C835.745 68.9267 837.065 63.9033 839.705 59.65C842.345 55.3967 845.902 52.0967 850.375 49.75C854.922 47.33 860.055 46.12 865.775 46.12C872.082 46.12 877.142 47.4033 880.955 49.97C884.842 52.4633 887.665 55.8733 889.425 60.2C891.185 64.5267 892.065 69.3667 892.065 74.72C892.065 77.9467 891.552 81.2467 890.525 84.62C889.498 87.92 887.922 91 885.795 93.86C883.668 96.6467 880.882 98.92 877.435 100.68C873.988 102.367 869.845 103.21 865.005 103.21ZM869.625 92.21C873.952 92.21 877.692 91.4767 880.845 90.01C883.998 88.5433 886.418 86.49 888.105 83.85C889.792 81.21 890.635 78.1667 890.635 74.72C890.635 70.98 889.755 67.8267 887.995 65.26C886.308 62.62 883.888 60.64 880.735 59.32C877.655 57.9267 873.952 57.23 869.625 57.23C863.538 57.23 858.808 58.8433 855.435 62.07C852.062 65.2233 850.375 69.44 850.375 74.72C850.375 78.24 851.182 81.32 852.795 83.96C854.408 86.5267 856.645 88.5433 859.505 90.01C862.438 91.4767 865.812 92.21 869.625 92.21ZM890.635 47.33H904.935V102H891.625C891.625 102 891.515 101.303 891.295 99.91C891.148 98.4433 891.002 96.61 890.855 94.41C890.708 92.21 890.635 90.0467 890.635 87.92V47.33ZM934.267 23.35V35.89H917.657V23.35H934.267ZM918.757 47.33H933.057V102H918.757V47.33ZM1031.04 94.74H1024.11L1065.03 30.83H1079.66V102H1065.03V50.3L1068.55 51.29L1035.88 102H1019.49L986.824 51.51L990.344 50.52V102H975.714V30.83H990.344L1031.04 94.74ZM1121.31 103.21C1115.89 103.21 1110.94 102.037 1106.46 99.69C1102.06 97.27 1098.54 93.9333 1095.9 89.68C1093.34 85.3533 1092.05 80.3667 1092.05 74.72C1092.05 68.9267 1093.37 63.9033 1096.01 59.65C1098.65 55.3967 1102.21 52.0967 1106.68 49.75C1111.23 47.33 1116.36 46.12 1122.08 46.12C1128.39 46.12 1133.45 47.4033 1137.26 49.97C1141.15 52.4633 1143.97 55.8733 1145.73 60.2C1147.49 64.5267 1148.37 69.3667 1148.37 74.72C1148.37 77.9467 1147.86 81.2467 1146.83 84.62C1145.81 87.92 1144.23 91 1142.1 93.86C1139.98 96.6467 1137.19 98.92 1133.74 100.68C1130.3 102.367 1126.15 103.21 1121.31 103.21ZM1125.93 92.21C1130.26 92.21 1134 91.4767 1137.15 90.01C1140.31 88.5433 1142.73 86.49 1144.41 83.85C1146.1 81.21 1146.94 78.1667 1146.94 74.72C1146.94 70.98 1146.06 67.8267 1144.3 65.26C1142.62 62.62 1140.2 60.64 1137.04 59.32C1133.96 57.9267 1130.26 57.23 1125.93 57.23C1119.85 57.23 1115.12 58.8433 1111.74 62.07C1108.37 65.2233 1106.68 69.44 1106.68 74.72C1106.68 78.24 1107.49 81.32 1109.1 83.96C1110.72 86.5267 1112.95 88.5433 1115.81 90.01C1118.75 91.4767 1122.12 92.21 1125.93 92.21ZM1146.94 47.33H1161.24V102H1147.93C1147.93 102 1147.82 101.303 1147.6 99.91C1147.46 98.4433 1147.31 96.61 1147.16 94.41C1147.02 92.21 1146.94 90.0467 1146.94 87.92V47.33ZM1171.99 83.85H1185.19C1185.99 86.3433 1187.64 88.3967 1190.14 90.01C1192.7 91.55 1196.04 92.32 1200.15 92.32C1202.93 92.32 1205.1 92.0633 1206.64 91.55C1208.18 91.0367 1209.24 90.3033 1209.83 89.35C1210.41 88.3233 1210.71 87.1867 1210.71 85.94C1210.71 84.4 1210.23 83.2267 1209.28 82.42C1208.32 81.54 1206.86 80.8433 1204.88 80.33C1202.9 79.8167 1200.37 79.34 1197.29 78.9C1194.21 78.3867 1191.24 77.7633 1188.38 77.03C1185.52 76.2967 1182.99 75.3433 1180.79 74.17C1178.59 72.9233 1176.83 71.3833 1175.51 69.55C1174.26 67.6433 1173.64 65.3333 1173.64 62.62C1173.64 59.98 1174.26 57.6333 1175.51 55.58C1176.83 53.5267 1178.62 51.8033 1180.9 50.41C1183.24 49.0167 1185.96 47.9533 1189.04 47.22C1192.19 46.4867 1195.56 46.12 1199.16 46.12C1204.58 46.12 1209.09 46.9267 1212.69 48.54C1216.28 50.08 1218.96 52.28 1220.72 55.14C1222.55 57.9267 1223.47 61.1533 1223.47 64.82H1210.82C1210.23 62.1067 1209.06 60.1633 1207.3 58.99C1205.54 57.7433 1202.82 57.12 1199.16 57.12C1195.56 57.12 1192.85 57.67 1191.02 58.77C1189.18 59.87 1188.27 61.3733 1188.27 63.28C1188.27 64.82 1188.82 66.03 1189.92 66.91C1191.09 67.7167 1192.78 68.3767 1194.98 68.89C1197.25 69.4033 1200.07 69.9533 1203.45 70.54C1206.31 71.1267 1209.02 71.7867 1211.59 72.52C1214.23 73.2533 1216.57 74.2067 1218.63 75.38C1220.68 76.48 1222.29 77.9833 1223.47 79.89C1224.71 81.7233 1225.34 84.07 1225.34 86.93C1225.34 90.45 1224.31 93.42 1222.26 95.84C1220.28 98.26 1217.42 100.13 1213.68 101.45C1209.94 102.697 1205.46 103.32 1200.26 103.32C1195.64 103.32 1191.64 102.843 1188.27 101.89C1184.97 100.863 1182.22 99.58 1180.02 98.04C1177.82 96.4267 1176.09 94.74 1174.85 92.98C1173.67 91.1467 1172.87 89.4233 1172.43 87.81C1171.99 86.1967 1171.84 84.8767 1171.99 83.85ZM1234.08 83.85H1247.28C1248.08 86.3433 1249.73 88.3967 1252.23 90.01C1254.79 91.55 1258.13 92.32 1262.24 92.32C1265.02 92.32 1267.19 92.0633 1268.73 91.55C1270.27 91.0367 1271.33 90.3033 1271.92 89.35C1272.5 88.3233 1272.8 87.1867 1272.8 85.94C1272.8 84.4 1272.32 83.2267 1271.37 82.42C1270.41 81.54 1268.95 80.8433 1266.97 80.33C1264.99 79.8167 1262.46 79.34 1259.38 78.9C1256.3 78.3867 1253.33 77.7633 1250.47 77.03C1247.61 76.2967 1245.08 75.3433 1242.88 74.17C1240.68 72.9233 1238.92 71.3833 1237.6 69.55C1236.35 67.6433 1235.73 65.3333 1235.73 62.62C1235.73 59.98 1236.35 57.6333 1237.6 55.58C1238.92 53.5267 1240.71 51.8033 1242.99 50.41C1245.33 49.0167 1248.05 47.9533 1251.13 47.22C1254.28 46.4867 1257.65 46.12 1261.25 46.12C1266.67 46.12 1271.18 46.9267 1274.78 48.54C1278.37 50.08 1281.05 52.28 1282.81 55.14C1284.64 57.9267 1285.56 61.1533 1285.56 64.82H1272.91C1272.32 62.1067 1271.15 60.1633 1269.39 58.99C1267.63 57.7433 1264.91 57.12 1261.25 57.12C1257.65 57.12 1254.94 57.67 1253.11 58.77C1251.27 59.87 1250.36 61.3733 1250.36 63.28C1250.36 64.82 1250.91 66.03 1252.01 66.91C1253.18 67.7167 1254.87 68.3767 1257.07 68.89C1259.34 69.4033 1262.16 69.9533 1265.54 70.54C1268.4 71.1267 1271.11 71.7867 1273.68 72.52C1276.32 73.2533 1278.66 74.2067 1280.72 75.38C1282.77 76.48 1284.38 77.9833 1285.56 79.89C1286.8 81.7233 1287.43 84.07 1287.43 86.93C1287.43 90.45 1286.4 93.42 1284.35 95.84C1282.37 98.26 1279.51 100.13 1275.77 101.45C1272.03 102.697 1267.55 103.32 1262.35 103.32C1257.73 103.32 1253.73 102.843 1250.36 101.89C1247.06 100.863 1244.31 99.58 1242.11 98.04C1239.91 96.4267 1238.18 94.74 1236.94 92.98C1235.76 91.1467 1234.96 89.4233 1234.52 87.81C1234.08 86.1967 1233.93 84.8767 1234.08 83.85ZM1324.99 103.21C1319.56 103.21 1314.61 102.037 1310.14 99.69C1305.74 97.27 1302.22 93.9333 1299.58 89.68C1297.01 85.3533 1295.73 80.3667 1295.73 74.72C1295.73 68.9267 1297.05 63.9033 1299.69 59.65C1302.33 55.3967 1305.88 52.0967 1310.36 49.75C1314.9 47.33 1320.04 46.12 1325.76 46.12C1332.06 46.12 1337.12 47.4033 1340.94 49.97C1344.82 52.4633 1347.65 55.8733 1349.41 60.2C1351.17 64.5267 1352.05 69.3667 1352.05 74.72C1352.05 77.9467 1351.53 81.2467 1350.51 84.62C1349.48 87.92 1347.9 91 1345.78 93.86C1343.65 96.6467 1340.86 98.92 1337.42 100.68C1333.97 102.367 1329.83 103.21 1324.99 103.21ZM1329.61 92.21C1333.93 92.21 1337.67 91.4767 1340.83 90.01C1343.98 88.5433 1346.4 86.49 1348.09 83.85C1349.77 81.21 1350.62 78.1667 1350.62 74.72C1350.62 70.98 1349.74 67.8267 1347.98 65.26C1346.29 62.62 1343.87 60.64 1340.72 59.32C1337.64 57.9267 1333.93 57.23 1329.61 57.23C1323.52 57.23 1318.79 58.8433 1315.42 62.07C1312.04 65.2233 1310.36 69.44 1310.36 74.72C1310.36 78.24 1311.16 81.32 1312.78 83.96C1314.39 86.5267 1316.63 88.5433 1319.49 90.01C1322.42 91.4767 1325.79 92.21 1329.61 92.21ZM1350.62 47.33H1364.92V102H1351.61C1351.61 102 1351.5 101.303 1351.28 99.91C1351.13 98.4433 1350.98 96.61 1350.84 94.41C1350.69 92.21 1350.62 90.0467 1350.62 87.92V47.33ZM1405.14 93.64C1399.2 93.64 1393.95 92.76 1389.41 91C1384.93 89.1667 1381.45 86.49 1378.96 82.97C1376.46 79.45 1375.22 75.1967 1375.22 70.21C1375.22 65.2967 1376.43 61.0433 1378.85 57.45C1381.27 53.8567 1384.71 51.07 1389.19 49.09C1393.73 47.11 1399.05 46.12 1405.14 46.12C1406.82 46.12 1408.44 46.23 1409.98 46.45C1411.59 46.67 1413.17 46.9633 1414.71 47.33L1442.32 47.44V58.22C1438.58 58.2933 1434.76 57.8533 1430.88 56.9C1427.06 55.8733 1423.69 54.7733 1420.76 53.6L1420.43 52.83C1422.92 54.0033 1425.27 55.47 1427.47 57.23C1429.67 58.9167 1431.43 60.8967 1432.75 63.17C1434.14 65.37 1434.84 67.9367 1434.84 70.87C1434.84 75.6367 1433.63 79.7433 1431.21 83.19C1428.79 86.5633 1425.34 89.1667 1420.87 91C1416.47 92.76 1411.22 93.64 1405.14 93.64ZM1423.51 124.55V121.91C1423.51 118.537 1422.41 116.19 1420.21 114.87C1418.08 113.55 1415.15 112.89 1411.41 112.89H1394.36C1391.06 112.89 1388.27 112.633 1386 112.12C1383.8 111.607 1382.04 110.873 1380.72 109.92C1379.4 108.967 1378.44 107.83 1377.86 106.51C1377.27 105.263 1376.98 103.907 1376.98 102.44C1376.98 99.5067 1377.93 97.3067 1379.84 95.84C1381.74 94.3 1384.31 93.2733 1387.54 92.76C1390.76 92.2467 1394.32 92.1367 1398.21 92.43L1405.14 93.64C1400.52 93.7867 1397.07 94.19 1394.8 94.85C1392.6 95.4367 1391.5 96.6467 1391.5 98.48C1391.5 99.58 1391.94 100.46 1392.82 101.12C1393.7 101.707 1394.94 102 1396.56 102H1414.49C1419.4 102 1423.58 102.513 1427.03 103.54C1430.55 104.64 1433.22 106.437 1435.06 108.93C1436.89 111.497 1437.81 114.98 1437.81 119.38V124.55H1423.51ZM1405.14 83.3C1408.29 83.3 1411.04 82.7867 1413.39 81.76C1415.81 80.7333 1417.68 79.2667 1419 77.36C1420.32 75.38 1420.98 73.0333 1420.98 70.32C1420.98 67.5333 1420.32 65.15 1419 63.17C1417.68 61.19 1415.84 59.6867 1413.5 58.66C1411.15 57.56 1408.36 57.01 1405.14 57.01C1401.98 57.01 1399.2 57.56 1396.78 58.66C1394.36 59.6867 1392.49 61.19 1391.17 63.17C1389.85 65.15 1389.19 67.5333 1389.19 70.32C1389.19 73.0333 1389.85 75.38 1391.17 77.36C1392.49 79.2667 1394.32 80.7333 1396.67 81.76C1399.09 82.7867 1401.91 83.3 1405.14 83.3ZM1500.52 83.85H1514.38C1513.79 87.59 1512.22 90.9267 1509.65 93.86C1507.16 96.7933 1503.75 99.1033 1499.42 100.79C1495.09 102.477 1489.81 103.32 1483.58 103.32C1476.61 103.32 1470.45 102.22 1465.1 100.02C1459.75 97.7467 1455.57 94.4833 1452.56 90.23C1449.55 85.9767 1448.05 80.8433 1448.05 74.83C1448.05 68.8167 1449.52 63.6833 1452.45 59.43C1455.38 55.1033 1459.45 51.8033 1464.66 49.53C1469.94 47.2567 1476.1 46.12 1483.14 46.12C1490.33 46.12 1496.3 47.2567 1501.07 49.53C1505.84 51.8033 1509.36 55.25 1511.63 59.87C1513.98 64.4167 1514.97 70.2467 1514.6 77.36H1462.46C1462.83 80.1467 1463.85 82.6767 1465.54 84.95C1467.3 87.2233 1469.65 89.02 1472.58 90.34C1475.59 91.66 1479.14 92.32 1483.25 92.32C1487.8 92.32 1491.57 91.55 1494.58 90.01C1497.66 88.3967 1499.64 86.3433 1500.52 83.85ZM1482.48 57.01C1477.2 57.01 1472.91 58.1833 1469.61 60.53C1466.31 62.8033 1464.18 65.6267 1463.23 69H1500.41C1500.04 65.3333 1498.28 62.4367 1495.13 60.31C1492.05 58.11 1487.83 57.01 1482.48 57.01Z" fill="#6D3E78"/>
</svg>
