<svg width="1390" height="142" viewBox="0 0 1390 142" fill="none" xmlns="http://www.w3.org/2000/svg">
<path d="M174.383 93.309H187.816C188.081 95.5643 189.109 97.6207 190.9 99.478C192.757 101.269 195.179 102.695 198.164 103.756C201.149 104.751 204.498 105.249 208.213 105.249C211.596 105.249 214.382 104.884 216.571 104.154C218.76 103.425 220.385 102.397 221.447 101.07C222.508 99.7433 223.039 98.1513 223.039 96.294C223.039 94.503 222.375 93.1432 221.049 92.2145C219.722 91.2195 217.632 90.4235 214.78 89.8265C211.928 89.1632 208.18 88.4998 203.537 87.8365C199.888 87.3058 196.439 86.5762 193.189 85.6475C189.938 84.6525 187.053 83.3922 184.532 81.8665C182.078 80.3408 180.121 78.4835 178.662 76.2945C177.269 74.0392 176.572 71.3858 176.572 68.3345C176.572 64.5535 177.633 61.2368 179.756 58.3845C181.945 55.5322 185.162 53.31 189.408 51.718C193.653 50.126 198.86 49.33 205.029 49.33C214.316 49.33 221.447 51.32 226.422 55.3C231.463 59.2137 233.917 64.6198 233.785 71.5185H220.85C220.584 67.6048 218.926 64.7857 215.875 63.061C212.89 61.3363 209.109 60.474 204.532 60.474C200.286 60.474 196.771 61.1042 193.985 62.3645C191.265 63.6248 189.905 65.7807 189.905 68.832C189.905 70.026 190.237 71.0873 190.9 72.016C191.563 72.8783 192.691 73.6412 194.283 74.3045C195.875 74.9678 198.031 75.598 200.751 76.195C203.47 76.792 206.853 77.389 210.9 77.986C214.681 78.5167 218.097 79.2463 221.148 80.175C224.266 81.0373 226.919 82.1982 229.108 83.6575C231.363 85.0505 233.088 86.8415 234.282 89.0305C235.476 91.2195 236.073 93.906 236.073 97.09C236.073 101.004 235.045 104.42 232.989 107.338C230.999 110.191 227.881 112.413 223.636 114.005C219.457 115.597 214.017 116.393 207.318 116.393C202.542 116.393 198.329 115.896 194.681 114.9C191.033 113.839 187.882 112.446 185.229 110.721C182.575 108.997 180.419 107.106 178.761 105.05C177.103 102.994 175.909 100.937 175.179 98.881C174.516 96.8247 174.25 94.9673 174.383 93.309ZM275.21 116.194C268.975 116.194 263.469 115.199 258.693 113.209C253.983 111.219 250.302 108.333 247.648 104.552C244.995 100.705 243.668 95.9955 243.668 90.4235C243.668 84.8515 244.995 80.1418 247.648 76.2945C250.302 72.3808 253.983 69.429 258.693 67.439C263.469 65.449 268.975 64.454 275.21 64.454C281.445 64.454 286.885 65.449 291.528 67.439C296.238 69.429 299.919 72.3808 302.572 76.2945C305.226 80.1418 306.552 84.8515 306.552 90.4235C306.552 95.9955 305.226 100.705 302.572 104.552C299.919 108.333 296.238 111.219 291.528 113.209C286.885 115.199 281.445 116.194 275.21 116.194ZM275.21 106.244C278.659 106.244 281.744 105.647 284.463 104.453C287.249 103.193 289.438 101.402 291.03 99.08C292.622 96.692 293.418 93.8065 293.418 90.4235C293.418 87.0405 292.622 84.155 291.03 81.767C289.438 79.3127 287.283 77.4553 284.563 76.195C281.843 74.9347 278.726 74.3045 275.21 74.3045C271.761 74.3045 268.643 74.9347 265.857 76.195C263.071 77.4553 260.849 79.2795 259.19 81.6675C257.598 84.0555 256.802 86.9742 256.802 90.4235C256.802 93.8065 257.598 96.692 259.19 99.08C260.782 101.402 262.971 103.193 265.757 104.453C268.543 105.647 271.694 106.244 275.21 106.244ZM345.268 116.194C339.033 116.194 333.527 115.199 328.751 113.209C324.041 111.219 320.36 108.333 317.707 104.552C315.053 100.705 313.727 95.9955 313.727 90.4235C313.727 84.8515 315.053 80.1418 317.707 76.2945C320.36 72.3808 324.041 69.429 328.751 67.439C333.527 65.449 339.033 64.454 345.268 64.454C351.503 64.454 356.943 65.449 361.586 67.439C366.296 69.429 369.977 72.3808 372.631 76.2945C375.284 80.1418 376.611 84.8515 376.611 90.4235C376.611 95.9955 375.284 100.705 372.631 104.552C369.977 108.333 366.296 111.219 361.586 113.209C356.943 115.199 351.503 116.194 345.268 116.194ZM345.268 106.244C348.717 106.244 351.802 105.647 354.522 104.453C357.308 103.193 359.497 101.402 361.089 99.08C362.681 96.692 363.477 93.8065 363.477 90.4235C363.477 87.0405 362.681 84.155 361.089 81.767C359.497 79.3127 357.341 77.4553 354.621 76.195C351.901 74.9347 348.784 74.3045 345.268 74.3045C341.819 74.3045 338.701 74.9347 335.915 76.195C333.129 77.4553 330.907 79.2795 329.249 81.6675C327.657 84.0555 326.861 86.9742 326.861 90.4235C326.861 93.8065 327.657 96.692 329.249 99.08C330.841 101.402 333.03 103.193 335.816 104.453C338.602 105.647 341.752 106.244 345.268 106.244ZM387.068 45.6485H400.003V115H387.068V45.6485ZM441.694 65.5485L412.242 91.518L412.54 83.558L443.982 115H427.565L400.302 87.2395L424.082 65.5485H441.694ZM491.883 89.8265V50.6235H505.116V90.722C505.116 94.105 504.486 97.3222 503.226 100.374C502.032 103.425 500.208 106.144 497.753 108.532C495.365 110.854 492.38 112.678 488.798 114.005C485.283 115.332 481.17 115.995 476.46 115.995C472.812 115.995 469.263 115.531 465.814 114.602C462.431 113.673 459.38 112.28 456.66 110.423C453.94 108.499 451.751 106.111 450.093 103.259C448.435 100.34 447.539 96.9242 447.406 93.0105H459.943C460.673 96.7915 462.53 99.677 465.515 101.667C468.567 103.591 472.215 104.552 476.46 104.552C480.109 104.552 483.061 103.922 485.316 102.662C487.571 101.335 489.23 99.5775 490.291 97.3885C491.352 95.1332 491.883 92.6125 491.883 89.8265ZM542.789 116.095C537.88 116.095 533.403 115.033 529.356 112.91C525.376 110.721 522.192 107.703 519.804 103.856C517.483 99.9423 516.322 95.4317 516.322 90.324C516.322 85.0837 517.516 80.5398 519.904 76.6925C522.292 72.8452 525.509 69.8602 529.555 67.7375C533.668 65.5485 538.311 64.454 543.485 64.454C549.19 64.454 553.767 65.6148 557.216 67.9365C560.732 70.1918 563.286 73.2763 564.878 77.19C566.47 81.1037 567.266 85.4817 567.266 90.324C567.266 93.2427 566.801 96.2277 565.873 99.279C564.944 102.264 563.518 105.05 561.594 107.637C559.671 110.158 557.15 112.214 554.032 113.806C550.915 115.332 547.167 116.095 542.789 116.095ZM546.968 106.144C550.881 106.144 554.264 105.481 557.117 104.154C559.969 102.828 562.158 100.97 563.684 98.5825C565.209 96.1945 565.972 93.4417 565.972 90.324C565.972 86.941 565.176 84.0887 563.584 81.767C562.059 79.379 559.87 77.588 557.017 76.394C554.231 75.1337 550.881 74.5035 546.968 74.5035C541.462 74.5035 537.184 75.9628 534.132 78.8815C531.081 81.7338 529.555 85.548 529.555 90.324C529.555 93.508 530.285 96.294 531.744 98.682C533.204 101.004 535.227 102.828 537.814 104.154C540.467 105.481 543.518 106.144 546.968 106.144ZM565.972 65.5485H578.907V115H566.868C566.868 115 566.768 114.37 566.569 113.109C566.437 111.783 566.304 110.124 566.171 108.134C566.039 106.144 565.972 104.188 565.972 102.264V65.5485ZM605.44 43.8575V55.2005H590.415V43.8575H605.44ZM591.41 65.5485H604.345V115H591.41V65.5485ZM633.275 50.6235H701.134V61.668H633.275V50.6235ZM660.637 60.275H673.871V115H660.637V60.275ZM749.085 115V87.8365C749.085 85.1168 748.621 82.8615 747.692 81.0705C746.763 79.2795 745.271 77.9197 743.214 76.991C741.224 76.0623 738.538 75.598 735.155 75.598C731.905 75.598 728.953 76.2282 726.299 77.4885C723.646 78.6825 721.49 80.2745 719.832 82.2645C718.174 84.1882 717.245 86.2445 717.046 88.4335L716.946 82.961C717.278 80.772 718.041 78.583 719.235 76.394C720.429 74.205 722.021 72.215 724.011 70.424C726.001 68.633 728.389 67.2068 731.175 66.1455C734.027 65.0178 737.211 64.454 740.727 64.454C743.778 64.454 746.597 64.852 749.184 65.648C751.771 66.3777 754.027 67.5385 755.95 69.1305C757.874 70.7225 759.367 72.7125 760.428 75.1005C761.489 77.4222 762.02 80.175 762.02 83.359V115H749.085ZM704.807 115V45.6485H717.742V115H704.807ZM797.855 116.095C792.946 116.095 788.468 115.033 784.422 112.91C780.442 110.721 777.258 107.703 774.87 103.856C772.548 99.9423 771.388 95.4317 771.388 90.324C771.388 85.0837 772.582 80.5398 774.97 76.6925C777.358 72.8452 780.575 69.8602 784.621 67.7375C788.734 65.5485 793.377 64.454 798.551 64.454C804.256 64.454 808.833 65.6148 812.282 67.9365C815.798 70.1918 818.352 73.2763 819.944 77.19C821.536 81.1037 822.332 85.4817 822.332 90.324C822.332 93.2427 821.867 96.2277 820.939 99.279C820.01 102.264 818.584 105.05 816.66 107.637C814.736 110.158 812.216 112.214 809.098 113.806C805.981 115.332 802.233 116.095 797.855 116.095ZM802.034 106.144C805.947 106.144 809.33 105.481 812.183 104.154C815.035 102.828 817.224 100.97 818.75 98.5825C820.275 96.1945 821.038 93.4417 821.038 90.324C821.038 86.941 820.242 84.0887 818.65 81.767C817.125 79.379 814.936 77.588 812.083 76.394C809.297 75.1337 805.947 74.5035 802.034 74.5035C796.528 74.5035 792.249 75.9628 789.198 78.8815C786.147 81.7338 784.621 85.548 784.621 90.324C784.621 93.508 785.351 96.294 786.81 98.682C788.269 101.004 790.293 102.828 792.88 104.154C795.533 105.481 798.584 106.144 802.034 106.144ZM821.038 65.5485H833.973V115H821.934C821.934 115 821.834 114.37 821.635 113.109C821.502 111.783 821.37 110.124 821.237 108.134C821.104 106.144 821.038 104.188 821.038 102.264V65.5485ZM860.505 43.8575V55.2005H845.481V43.8575H860.505ZM846.476 65.5485H859.411V115H846.476V65.5485ZM948.044 108.433H941.776L978.79 50.6235H992.023V115H978.79V68.235L981.974 69.1305L952.422 115H937.597L908.045 69.3295L911.229 68.434V115H897.996V50.6235H911.229L948.044 108.433ZM1029.7 116.095C1024.79 116.095 1020.31 115.033 1016.26 112.91C1012.28 110.721 1009.1 107.703 1006.71 103.856C1004.39 99.9423 1003.23 95.4317 1003.23 90.324C1003.23 85.0837 1004.42 80.5398 1006.81 76.6925C1009.2 72.8452 1012.42 69.8602 1016.46 67.7375C1020.58 65.5485 1025.22 64.454 1030.39 64.454C1036.1 64.454 1040.68 65.6148 1044.12 67.9365C1047.64 70.1918 1050.19 73.2763 1051.79 77.19C1053.38 81.1037 1054.17 85.4817 1054.17 90.324C1054.17 93.2427 1053.71 96.2277 1052.78 99.279C1051.85 102.264 1050.43 105.05 1048.5 107.637C1046.58 110.158 1044.06 112.214 1040.94 113.806C1037.82 115.332 1034.08 116.095 1029.7 116.095ZM1033.88 106.144C1037.79 106.144 1041.17 105.481 1044.03 104.154C1046.88 102.828 1049.07 100.97 1050.59 98.5825C1052.12 96.1945 1052.88 93.4417 1052.88 90.324C1052.88 86.941 1052.08 84.0887 1050.49 81.767C1048.97 79.379 1046.78 77.588 1043.93 76.394C1041.14 75.1337 1037.79 74.5035 1033.88 74.5035C1028.37 74.5035 1024.09 75.9628 1021.04 78.8815C1017.99 81.7338 1016.46 85.548 1016.46 90.324C1016.46 93.508 1017.19 96.294 1018.65 98.682C1020.11 101.004 1022.14 102.828 1024.72 104.154C1027.38 105.481 1030.43 106.144 1033.88 106.144ZM1052.88 65.5485H1065.82V115H1053.78C1053.78 115 1053.68 114.37 1053.48 113.109C1053.35 111.783 1053.21 110.124 1053.08 108.134C1052.95 106.144 1052.88 104.188 1052.88 102.264V65.5485ZM1075.53 98.5825H1087.47C1088.2 100.838 1089.69 102.695 1091.95 104.154C1094.27 105.547 1097.29 106.244 1101 106.244C1103.53 106.244 1105.48 106.012 1106.88 105.547C1108.27 105.083 1109.23 104.42 1109.76 103.557C1110.29 102.629 1110.56 101.601 1110.56 100.473C1110.56 99.08 1110.13 98.0187 1109.26 97.289C1108.4 96.493 1107.07 95.8628 1105.28 95.3985C1103.49 94.9342 1101.2 94.503 1098.42 94.105C1095.63 93.6407 1092.95 93.0768 1090.36 92.4135C1087.77 91.7502 1085.48 90.8878 1083.49 89.8265C1081.5 88.6988 1079.91 87.3058 1078.72 85.6475C1077.59 83.9228 1077.03 81.8333 1077.03 79.379C1077.03 76.991 1077.59 74.8683 1078.72 73.011C1079.91 71.1537 1081.54 69.5948 1083.59 68.3345C1085.71 67.0742 1088.17 66.1123 1090.96 65.449C1093.81 64.7857 1096.86 64.454 1100.11 64.454C1105.02 64.454 1109.1 65.1837 1112.35 66.643C1115.6 68.036 1118.02 70.026 1119.61 72.613C1121.27 75.1337 1122.1 78.0523 1122.1 81.369H1110.66C1110.13 78.9147 1109.06 77.1568 1107.47 76.0955C1105.88 74.9678 1103.43 74.404 1100.11 74.404C1096.86 74.404 1094.4 74.9015 1092.75 75.8965C1091.09 76.8915 1090.26 78.2513 1090.26 79.976C1090.26 81.369 1090.76 82.4635 1091.75 83.2595C1092.81 83.9892 1094.34 84.5862 1096.33 85.0505C1098.38 85.5148 1100.94 86.0123 1103.99 86.543C1106.58 87.0737 1109.03 87.6707 1111.35 88.334C1113.74 88.9973 1115.86 89.8597 1117.72 90.921C1119.58 91.916 1121.04 93.2758 1122.1 95.0005C1123.23 96.6588 1123.79 98.7815 1123.79 101.368C1123.79 104.552 1122.86 107.239 1121 109.428C1119.21 111.617 1116.63 113.308 1113.24 114.502C1109.86 115.63 1105.81 116.194 1101.1 116.194C1096.93 116.194 1093.31 115.763 1090.26 114.9C1087.27 113.972 1084.79 112.811 1082.8 111.418C1080.81 109.959 1079.25 108.433 1078.12 106.841C1077.06 105.183 1076.33 103.624 1075.93 102.164C1075.53 100.705 1075.4 99.5112 1075.53 98.5825ZM1131.7 98.5825H1143.64C1144.37 100.838 1145.86 102.695 1148.11 104.154C1150.43 105.547 1153.45 106.244 1157.17 106.244C1159.69 106.244 1161.65 106.012 1163.04 105.547C1164.43 105.083 1165.39 104.42 1165.92 103.557C1166.45 102.629 1166.72 101.601 1166.72 100.473C1166.72 99.08 1166.29 98.0187 1165.43 97.289C1164.56 96.493 1163.24 95.8628 1161.45 95.3985C1159.66 94.9342 1157.37 94.503 1154.58 94.105C1151.79 93.6407 1149.11 93.0768 1146.52 92.4135C1143.93 91.7502 1141.65 90.8878 1139.66 89.8265C1137.67 88.6988 1136.07 87.3058 1134.88 85.6475C1133.75 83.9228 1133.19 81.8333 1133.19 79.379C1133.19 76.991 1133.75 74.8683 1134.88 73.011C1136.07 71.1537 1137.7 69.5948 1139.76 68.3345C1141.88 67.0742 1144.33 66.1123 1147.12 65.449C1149.97 64.7857 1153.02 64.454 1156.27 64.454C1161.18 64.454 1165.26 65.1837 1168.51 66.643C1171.76 68.036 1174.18 70.026 1175.77 72.613C1177.43 75.1337 1178.26 78.0523 1178.26 81.369H1166.82C1166.29 78.9147 1165.23 77.1568 1163.64 76.0955C1162.04 74.9678 1159.59 74.404 1156.27 74.404C1153.02 74.404 1150.57 74.9015 1148.91 75.8965C1147.25 76.8915 1146.42 78.2513 1146.42 79.976C1146.42 81.369 1146.92 82.4635 1147.91 83.2595C1148.98 83.9892 1150.5 84.5862 1152.49 85.0505C1154.55 85.5148 1157.1 86.0123 1160.15 86.543C1162.74 87.0737 1165.19 87.6707 1167.52 88.334C1169.9 88.9973 1172.03 89.8597 1173.88 90.921C1175.74 91.916 1177.2 93.2758 1178.26 95.0005C1179.39 96.6588 1179.95 98.7815 1179.95 101.368C1179.95 104.552 1179.02 107.239 1177.17 109.428C1175.38 111.617 1172.79 113.308 1169.41 114.502C1166.02 115.63 1161.98 116.194 1157.27 116.194C1153.09 116.194 1149.47 115.763 1146.42 114.9C1143.44 113.972 1140.95 112.811 1138.96 111.418C1136.97 109.959 1135.41 108.433 1134.28 106.841C1133.22 105.183 1132.49 103.624 1132.09 102.164C1131.7 100.705 1131.56 99.5112 1131.7 98.5825ZM1213.93 116.095C1209.02 116.095 1204.54 115.033 1200.5 112.91C1196.52 110.721 1193.33 107.703 1190.94 103.856C1188.62 99.9423 1187.46 95.4317 1187.46 90.324C1187.46 85.0837 1188.65 80.5398 1191.04 76.6925C1193.43 72.8452 1196.65 69.8602 1200.69 67.7375C1204.81 65.5485 1209.45 64.454 1214.62 64.454C1220.33 64.454 1224.91 65.6148 1228.36 67.9365C1231.87 70.1918 1234.42 73.2763 1236.02 77.19C1237.61 81.1037 1238.4 85.4817 1238.4 90.324C1238.4 93.2427 1237.94 96.2277 1237.01 99.279C1236.08 102.264 1234.66 105.05 1232.73 107.637C1230.81 110.158 1228.29 112.214 1225.17 113.806C1222.05 115.332 1218.31 116.095 1213.93 116.095ZM1218.11 106.144C1222.02 106.144 1225.4 105.481 1228.26 104.154C1231.11 102.828 1233.3 100.97 1234.82 98.5825C1236.35 96.1945 1237.11 93.4417 1237.11 90.324C1237.11 86.941 1236.32 84.0887 1234.72 81.767C1233.2 79.379 1231.01 77.588 1228.16 76.394C1225.37 75.1337 1222.02 74.5035 1218.11 74.5035C1212.6 74.5035 1208.32 75.9628 1205.27 78.8815C1202.22 81.7338 1200.69 85.548 1200.69 90.324C1200.69 93.508 1201.42 96.294 1202.88 98.682C1204.34 101.004 1206.37 102.828 1208.95 104.154C1211.61 105.481 1214.66 106.144 1218.11 106.144ZM1237.11 65.5485H1250.05V115H1238.01C1238.01 115 1237.91 114.37 1237.71 113.109C1237.58 111.783 1237.44 110.124 1237.31 108.134C1237.18 106.144 1237.11 104.188 1237.11 102.264V65.5485ZM1286.43 107.438C1281.06 107.438 1276.31 106.642 1272.2 105.05C1268.15 103.392 1265 100.97 1262.75 97.7865C1260.49 94.6025 1259.37 90.7552 1259.37 86.2445C1259.37 81.8002 1260.46 77.9528 1262.65 74.7025C1264.84 71.4522 1267.96 68.9315 1272 67.1405C1276.11 65.3495 1280.92 64.454 1286.43 64.454C1287.95 64.454 1289.41 64.5535 1290.81 64.7525C1292.27 64.9515 1293.69 65.2168 1295.09 65.5485L1320.06 65.648V75.399C1316.68 75.4653 1313.23 75.0673 1309.71 74.205C1306.26 73.2763 1303.21 72.2813 1300.56 71.22L1300.26 70.5235C1302.52 71.5848 1304.64 72.9115 1306.63 74.5035C1308.62 76.0292 1310.21 77.8202 1311.4 79.8765C1312.66 81.8665 1313.29 84.1882 1313.29 86.8415C1313.29 91.1532 1312.2 94.8678 1310.01 97.9855C1307.82 101.037 1304.7 103.392 1300.66 105.05C1296.68 106.642 1291.93 107.438 1286.43 107.438ZM1303.05 135.398V133.01C1303.05 129.958 1302.05 127.836 1300.06 126.642C1298.14 125.448 1295.48 124.851 1292.1 124.851H1276.68C1273.69 124.851 1271.17 124.618 1269.12 124.154C1267.13 123.69 1265.53 123.026 1264.34 122.164C1263.15 121.302 1262.28 120.274 1261.75 119.08C1261.22 117.952 1260.96 116.725 1260.96 115.398C1260.96 112.745 1261.82 110.755 1263.54 109.428C1265.27 108.035 1267.59 107.106 1270.51 106.642C1273.43 106.178 1276.65 106.078 1280.16 106.343L1286.43 107.438C1282.25 107.571 1279.13 107.935 1277.08 108.532C1275.09 109.063 1274.09 110.158 1274.09 111.816C1274.09 112.811 1274.49 113.607 1275.29 114.204C1276.08 114.735 1277.21 115 1278.67 115H1294.89C1299.33 115 1303.11 115.464 1306.23 116.393C1309.41 117.388 1311.83 119.013 1313.49 121.269C1315.15 123.59 1315.98 126.741 1315.98 130.721V135.398H1303.05ZM1286.43 98.085C1289.28 98.085 1291.77 97.6207 1293.89 96.692C1296.08 95.7633 1297.77 94.4367 1298.97 92.712C1300.16 90.921 1300.76 88.7983 1300.76 86.344C1300.76 83.8233 1300.16 81.6675 1298.97 79.8765C1297.77 78.0855 1296.11 76.7257 1293.99 75.797C1291.87 74.802 1289.35 74.3045 1286.43 74.3045C1283.58 74.3045 1281.06 74.802 1278.87 75.797C1276.68 76.7257 1274.99 78.0855 1273.79 79.8765C1272.6 81.6675 1272 83.8233 1272 86.344C1272 88.7983 1272.6 90.921 1273.79 92.712C1274.99 94.4367 1276.65 95.7633 1278.77 96.692C1280.96 97.6207 1283.51 98.085 1286.43 98.085ZM1372.71 98.5825H1385.24C1384.71 101.965 1383.29 104.984 1380.97 107.637C1378.71 110.29 1375.63 112.38 1371.71 113.905C1367.8 115.431 1363.02 116.194 1357.38 116.194C1351.08 116.194 1345.51 115.199 1340.67 113.209C1335.83 111.153 1332.04 108.201 1329.32 104.353C1326.6 100.506 1325.25 95.8628 1325.25 90.4235C1325.25 84.9842 1326.57 80.3408 1329.23 76.4935C1331.88 72.5798 1335.56 69.5948 1340.27 67.5385C1345.05 65.4822 1350.62 64.454 1356.99 64.454C1363.49 64.454 1368.89 65.4822 1373.2 67.5385C1377.52 69.5948 1380.7 72.7125 1382.76 76.8915C1384.88 81.0042 1385.77 86.2777 1385.44 92.712H1338.28C1338.61 95.2327 1339.54 97.5212 1341.07 99.5775C1342.66 101.634 1344.78 103.259 1347.43 104.453C1350.15 105.647 1353.37 106.244 1357.09 106.244C1361.2 106.244 1364.61 105.547 1367.33 104.154C1370.12 102.695 1371.91 100.838 1372.71 98.5825ZM1356.39 74.3045C1351.61 74.3045 1347.73 75.3658 1344.75 77.4885C1341.76 79.5448 1339.84 82.0987 1338.98 85.15H1372.61C1372.28 81.8333 1370.68 79.2132 1367.83 77.2895C1365.05 75.2995 1361.23 74.3045 1356.39 74.3045Z" fill="#6D3E78"/>
<path d="M174.383 93.309H187.816C188.081 95.5643 189.109 97.6207 190.9 99.478C192.757 101.269 195.179 102.695 198.164 103.756C201.149 104.751 204.498 105.249 208.213 105.249C211.596 105.249 214.382 104.884 216.571 104.154C218.76 103.425 220.385 102.397 221.447 101.07C222.508 99.7433 223.039 98.1513 223.039 96.294C223.039 94.503 222.375 93.1432 221.049 92.2145C219.722 91.2195 217.632 90.4235 214.78 89.8265C211.928 89.1632 208.18 88.4998 203.537 87.8365C199.888 87.3058 196.439 86.5762 193.189 85.6475C189.938 84.6525 187.053 83.3922 184.532 81.8665C182.078 80.3408 180.121 78.4835 178.662 76.2945C177.269 74.0392 176.572 71.3858 176.572 68.3345C176.572 64.5535 177.633 61.2368 179.756 58.3845C181.945 55.5322 185.162 53.31 189.408 51.718C193.653 50.126 198.86 49.33 205.029 49.33C214.316 49.33 221.447 51.32 226.422 55.3C231.463 59.2137 233.917 64.6198 233.785 71.5185H220.85C220.584 67.6048 218.926 64.7857 215.875 63.061C212.89 61.3363 209.109 60.474 204.532 60.474C200.286 60.474 196.771 61.1042 193.985 62.3645C191.265 63.6248 189.905 65.7807 189.905 68.832C189.905 70.026 190.237 71.0873 190.9 72.016C191.563 72.8783 192.691 73.6412 194.283 74.3045C195.875 74.9678 198.031 75.598 200.751 76.195C203.47 76.792 206.853 77.389 210.9 77.986C214.681 78.5167 218.097 79.2463 221.148 80.175C224.266 81.0373 226.919 82.1982 229.108 83.6575C231.363 85.0505 233.088 86.8415 234.282 89.0305C235.476 91.2195 236.073 93.906 236.073 97.09C236.073 101.004 235.045 104.42 232.989 107.338C230.999 110.191 227.881 112.413 223.636 114.005C219.457 115.597 214.017 116.393 207.318 116.393C202.542 116.393 198.329 115.896 194.681 114.9C191.033 113.839 187.882 112.446 185.229 110.721C182.575 108.997 180.419 107.106 178.761 105.05C177.103 102.994 175.909 100.937 175.179 98.881C174.516 96.8247 174.25 94.9673 174.383 93.309ZM275.21 116.194C268.975 116.194 263.469 115.199 258.693 113.209C253.983 111.219 250.302 108.333 247.648 104.552C244.995 100.705 243.668 95.9955 243.668 90.4235C243.668 84.8515 244.995 80.1418 247.648 76.2945C250.302 72.3808 253.983 69.429 258.693 67.439C263.469 65.449 268.975 64.454 275.21 64.454C281.445 64.454 286.885 65.449 291.528 67.439C296.238 69.429 299.919 72.3808 302.572 76.2945C305.226 80.1418 306.552 84.8515 306.552 90.4235C306.552 95.9955 305.226 100.705 302.572 104.552C299.919 108.333 296.238 111.219 291.528 113.209C286.885 115.199 281.445 116.194 275.21 116.194ZM275.21 106.244C278.659 106.244 281.744 105.647 284.463 104.453C287.249 103.193 289.438 101.402 291.03 99.08C292.622 96.692 293.418 93.8065 293.418 90.4235C293.418 87.0405 292.622 84.155 291.03 81.767C289.438 79.3127 287.283 77.4553 284.563 76.195C281.843 74.9347 278.726 74.3045 275.21 74.3045C271.761 74.3045 268.643 74.9347 265.857 76.195C263.071 77.4553 260.849 79.2795 259.19 81.6675C257.598 84.0555 256.802 86.9742 256.802 90.4235C256.802 93.8065 257.598 96.692 259.19 99.08C260.782 101.402 262.971 103.193 265.757 104.453C268.543 105.647 271.694 106.244 275.21 106.244ZM345.268 116.194C339.033 116.194 333.527 115.199 328.751 113.209C324.041 111.219 320.36 108.333 317.707 104.552C315.053 100.705 313.727 95.9955 313.727 90.4235C313.727 84.8515 315.053 80.1418 317.707 76.2945C320.36 72.3808 324.041 69.429 328.751 67.439C333.527 65.449 339.033 64.454 345.268 64.454C351.503 64.454 356.943 65.449 361.586 67.439C366.296 69.429 369.977 72.3808 372.631 76.2945C375.284 80.1418 376.611 84.8515 376.611 90.4235C376.611 95.9955 375.284 100.705 372.631 104.552C369.977 108.333 366.296 111.219 361.586 113.209C356.943 115.199 351.503 116.194 345.268 116.194ZM345.268 106.244C348.717 106.244 351.802 105.647 354.522 104.453C357.308 103.193 359.497 101.402 361.089 99.08C362.681 96.692 363.477 93.8065 363.477 90.4235C363.477 87.0405 362.681 84.155 361.089 81.767C359.497 79.3127 357.341 77.4553 354.621 76.195C351.901 74.9347 348.784 74.3045 345.268 74.3045C341.819 74.3045 338.701 74.9347 335.915 76.195C333.129 77.4553 330.907 79.2795 329.249 81.6675C327.657 84.0555 326.861 86.9742 326.861 90.4235C326.861 93.8065 327.657 96.692 329.249 99.08C330.841 101.402 333.03 103.193 335.816 104.453C338.602 105.647 341.752 106.244 345.268 106.244ZM387.068 45.6485H400.003V115H387.068V45.6485ZM441.694 65.5485L412.242 91.518L412.54 83.558L443.982 115H427.565L400.302 87.2395L424.082 65.5485H441.694ZM491.883 89.8265V50.6235H505.116V90.722C505.116 94.105 504.486 97.3222 503.226 100.374C502.032 103.425 500.208 106.144 497.753 108.532C495.365 110.854 492.38 112.678 488.798 114.005C485.283 115.332 481.17 115.995 476.46 115.995C472.812 115.995 469.263 115.531 465.814 114.602C462.431 113.673 459.38 112.28 456.66 110.423C453.94 108.499 451.751 106.111 450.093 103.259C448.435 100.34 447.539 96.9242 447.406 93.0105H459.943C460.673 96.7915 462.53 99.677 465.515 101.667C468.567 103.591 472.215 104.552 476.46 104.552C480.109 104.552 483.061 103.922 485.316 102.662C487.571 101.335 489.23 99.5775 490.291 97.3885C491.352 95.1332 491.883 92.6125 491.883 89.8265ZM542.789 116.095C537.88 116.095 533.403 115.033 529.356 112.91C525.376 110.721 522.192 107.703 519.804 103.856C517.483 99.9423 516.322 95.4317 516.322 90.324C516.322 85.0837 517.516 80.5398 519.904 76.6925C522.292 72.8452 525.509 69.8602 529.555 67.7375C533.668 65.5485 538.311 64.454 543.485 64.454C549.19 64.454 553.767 65.6148 557.216 67.9365C560.732 70.1918 563.286 73.2763 564.878 77.19C566.47 81.1037 567.266 85.4817 567.266 90.324C567.266 93.2427 566.801 96.2277 565.873 99.279C564.944 102.264 563.518 105.05 561.594 107.637C559.671 110.158 557.15 112.214 554.032 113.806C550.915 115.332 547.167 116.095 542.789 116.095ZM546.968 106.144C550.881 106.144 554.264 105.481 557.117 104.154C559.969 102.828 562.158 100.97 563.684 98.5825C565.209 96.1945 565.972 93.4417 565.972 90.324C565.972 86.941 565.176 84.0887 563.584 81.767C562.059 79.379 559.87 77.588 557.017 76.394C554.231 75.1337 550.881 74.5035 546.968 74.5035C541.462 74.5035 537.184 75.9628 534.132 78.8815C531.081 81.7338 529.555 85.548 529.555 90.324C529.555 93.508 530.285 96.294 531.744 98.682C533.204 101.004 535.227 102.828 537.814 104.154C540.467 105.481 543.518 106.144 546.968 106.144ZM565.972 65.5485H578.907V115H566.868C566.868 115 566.768 114.37 566.569 113.109C566.437 111.783 566.304 110.124 566.171 108.134C566.039 106.144 565.972 104.188 565.972 102.264V65.5485ZM605.44 43.8575V55.2005H590.415V43.8575H605.44ZM591.41 65.5485H604.345V115H591.41V65.5485ZM633.275 50.6235H701.134V61.668H633.275V50.6235ZM660.637 60.275H673.871V115H660.637V60.275ZM749.085 115V87.8365C749.085 85.1168 748.621 82.8615 747.692 81.0705C746.763 79.2795 745.271 77.9197 743.214 76.991C741.224 76.0623 738.538 75.598 735.155 75.598C731.905 75.598 728.953 76.2282 726.299 77.4885C723.646 78.6825 721.49 80.2745 719.832 82.2645C718.174 84.1882 717.245 86.2445 717.046 88.4335L716.946 82.961C717.278 80.772 718.041 78.583 719.235 76.394C720.429 74.205 722.021 72.215 724.011 70.424C726.001 68.633 728.389 67.2068 731.175 66.1455C734.027 65.0178 737.211 64.454 740.727 64.454C743.778 64.454 746.597 64.852 749.184 65.648C751.771 66.3777 754.027 67.5385 755.95 69.1305C757.874 70.7225 759.367 72.7125 760.428 75.1005C761.489 77.4222 762.02 80.175 762.02 83.359V115H749.085ZM704.807 115V45.6485H717.742V115H704.807ZM797.855 116.095C792.946 116.095 788.468 115.033 784.422 112.91C780.442 110.721 777.258 107.703 774.87 103.856C772.548 99.9423 771.388 95.4317 771.388 90.324C771.388 85.0837 772.582 80.5398 774.97 76.6925C777.358 72.8452 780.575 69.8602 784.621 67.7375C788.734 65.5485 793.377 64.454 798.551 64.454C804.256 64.454 808.833 65.6148 812.282 67.9365C815.798 70.1918 818.352 73.2763 819.944 77.19C821.536 81.1037 822.332 85.4817 822.332 90.324C822.332 93.2427 821.867 96.2277 820.939 99.279C820.01 102.264 818.584 105.05 816.66 107.637C814.736 110.158 812.216 112.214 809.098 113.806C805.981 115.332 802.233 116.095 797.855 116.095ZM802.034 106.144C805.947 106.144 809.33 105.481 812.183 104.154C815.035 102.828 817.224 100.97 818.75 98.5825C820.275 96.1945 821.038 93.4417 821.038 90.324C821.038 86.941 820.242 84.0887 818.65 81.767C817.125 79.379 814.936 77.588 812.083 76.394C809.297 75.1337 805.947 74.5035 802.034 74.5035C796.528 74.5035 792.249 75.9628 789.198 78.8815C786.147 81.7338 784.621 85.548 784.621 90.324C784.621 93.508 785.351 96.294 786.81 98.682C788.269 101.004 790.293 102.828 792.88 104.154C795.533 105.481 798.584 106.144 802.034 106.144ZM821.038 65.5485H833.973V115H821.934C821.934 115 821.834 114.37 821.635 113.109C821.502 111.783 821.37 110.124 821.237 108.134C821.104 106.144 821.038 104.188 821.038 102.264V65.5485ZM860.505 43.8575V55.2005H845.481V43.8575H860.505ZM846.476 65.5485H859.411V115H846.476V65.5485ZM948.044 108.433H941.776L978.79 50.6235H992.023V115H978.79V68.235L981.974 69.1305L952.422 115H937.597L908.045 69.3295L911.229 68.434V115H897.996V50.6235H911.229L948.044 108.433ZM1029.7 116.095C1024.79 116.095 1020.31 115.033 1016.26 112.91C1012.28 110.721 1009.1 107.703 1006.71 103.856C1004.39 99.9423 1003.23 95.4317 1003.23 90.324C1003.23 85.0837 1004.42 80.5398 1006.81 76.6925C1009.2 72.8452 1012.42 69.8602 1016.46 67.7375C1020.58 65.5485 1025.22 64.454 1030.39 64.454C1036.1 64.454 1040.68 65.6148 1044.12 67.9365C1047.64 70.1918 1050.19 73.2763 1051.79 77.19C1053.38 81.1037 1054.17 85.4817 1054.17 90.324C1054.17 93.2427 1053.71 96.2277 1052.78 99.279C1051.85 102.264 1050.43 105.05 1048.5 107.637C1046.58 110.158 1044.06 112.214 1040.94 113.806C1037.82 115.332 1034.08 116.095 1029.7 116.095ZM1033.88 106.144C1037.79 106.144 1041.17 105.481 1044.03 104.154C1046.88 102.828 1049.07 100.97 1050.59 98.5825C1052.12 96.1945 1052.88 93.4417 1052.88 90.324C1052.88 86.941 1052.08 84.0887 1050.49 81.767C1048.97 79.379 1046.78 77.588 1043.93 76.394C1041.14 75.1337 1037.79 74.5035 1033.88 74.5035C1028.37 74.5035 1024.09 75.9628 1021.04 78.8815C1017.99 81.7338 1016.46 85.548 1016.46 90.324C1016.46 93.508 1017.19 96.294 1018.65 98.682C1020.11 101.004 1022.14 102.828 1024.72 104.154C1027.38 105.481 1030.43 106.144 1033.88 106.144ZM1052.88 65.5485H1065.82V115H1053.78C1053.78 115 1053.68 114.37 1053.48 113.109C1053.35 111.783 1053.21 110.124 1053.08 108.134C1052.95 106.144 1052.88 104.188 1052.88 102.264V65.5485ZM1075.53 98.5825H1087.47C1088.2 100.838 1089.69 102.695 1091.95 104.154C1094.27 105.547 1097.29 106.244 1101 106.244C1103.53 106.244 1105.48 106.012 1106.88 105.547C1108.27 105.083 1109.23 104.42 1109.76 103.557C1110.29 102.629 1110.56 101.601 1110.56 100.473C1110.56 99.08 1110.13 98.0187 1109.26 97.289C1108.4 96.493 1107.07 95.8628 1105.28 95.3985C1103.49 94.9342 1101.2 94.503 1098.42 94.105C1095.63 93.6407 1092.95 93.0768 1090.36 92.4135C1087.77 91.7502 1085.48 90.8878 1083.49 89.8265C1081.5 88.6988 1079.91 87.3058 1078.72 85.6475C1077.59 83.9228 1077.03 81.8333 1077.03 79.379C1077.03 76.991 1077.59 74.8683 1078.72 73.011C1079.91 71.1537 1081.54 69.5948 1083.59 68.3345C1085.71 67.0742 1088.17 66.1123 1090.96 65.449C1093.81 64.7857 1096.86 64.454 1100.11 64.454C1105.02 64.454 1109.1 65.1837 1112.35 66.643C1115.6 68.036 1118.02 70.026 1119.61 72.613C1121.27 75.1337 1122.1 78.0523 1122.1 81.369H1110.66C1110.13 78.9147 1109.06 77.1568 1107.47 76.0955C1105.88 74.9678 1103.43 74.404 1100.11 74.404C1096.86 74.404 1094.4 74.9015 1092.75 75.8965C1091.09 76.8915 1090.26 78.2513 1090.26 79.976C1090.26 81.369 1090.76 82.4635 1091.75 83.2595C1092.81 83.9892 1094.34 84.5862 1096.33 85.0505C1098.38 85.5148 1100.94 86.0123 1103.99 86.543C1106.58 87.0737 1109.03 87.6707 1111.35 88.334C1113.74 88.9973 1115.86 89.8597 1117.72 90.921C1119.58 91.916 1121.04 93.2758 1122.1 95.0005C1123.23 96.6588 1123.79 98.7815 1123.79 101.368C1123.79 104.552 1122.86 107.239 1121 109.428C1119.21 111.617 1116.63 113.308 1113.24 114.502C1109.86 115.63 1105.81 116.194 1101.1 116.194C1096.93 116.194 1093.31 115.763 1090.26 114.9C1087.27 113.972 1084.79 112.811 1082.8 111.418C1080.81 109.959 1079.25 108.433 1078.12 106.841C1077.06 105.183 1076.33 103.624 1075.93 102.164C1075.53 100.705 1075.4 99.5112 1075.53 98.5825ZM1131.7 98.5825H1143.64C1144.37 100.838 1145.86 102.695 1148.11 104.154C1150.43 105.547 1153.45 106.244 1157.17 106.244C1159.69 106.244 1161.65 106.012 1163.04 105.547C1164.43 105.083 1165.39 104.42 1165.92 103.557C1166.45 102.629 1166.72 101.601 1166.72 100.473C1166.72 99.08 1166.29 98.0187 1165.43 97.289C1164.56 96.493 1163.24 95.8628 1161.45 95.3985C1159.66 94.9342 1157.37 94.503 1154.58 94.105C1151.79 93.6407 1149.11 93.0768 1146.52 92.4135C1143.93 91.7502 1141.65 90.8878 1139.66 89.8265C1137.67 88.6988 1136.07 87.3058 1134.88 85.6475C1133.75 83.9228 1133.19 81.8333 1133.19 79.379C1133.19 76.991 1133.75 74.8683 1134.88 73.011C1136.07 71.1537 1137.7 69.5948 1139.76 68.3345C1141.88 67.0742 1144.33 66.1123 1147.12 65.449C1149.97 64.7857 1153.02 64.454 1156.27 64.454C1161.18 64.454 1165.26 65.1837 1168.51 66.643C1171.76 68.036 1174.18 70.026 1175.77 72.613C1177.43 75.1337 1178.26 78.0523 1178.26 81.369H1166.82C1166.29 78.9147 1165.23 77.1568 1163.64 76.0955C1162.04 74.9678 1159.59 74.404 1156.27 74.404C1153.02 74.404 1150.57 74.9015 1148.91 75.8965C1147.25 76.8915 1146.42 78.2513 1146.42 79.976C1146.42 81.369 1146.92 82.4635 1147.91 83.2595C1148.98 83.9892 1150.5 84.5862 1152.49 85.0505C1154.55 85.5148 1157.1 86.0123 1160.15 86.543C1162.74 87.0737 1165.19 87.6707 1167.52 88.334C1169.9 88.9973 1172.03 89.8597 1173.88 90.921C1175.74 91.916 1177.2 93.2758 1178.26 95.0005C1179.39 96.6588 1179.95 98.7815 1179.95 101.368C1179.95 104.552 1179.02 107.239 1177.17 109.428C1175.38 111.617 1172.79 113.308 1169.41 114.502C1166.02 115.63 1161.98 116.194 1157.27 116.194C1153.09 116.194 1149.47 115.763 1146.42 114.9C1143.44 113.972 1140.95 112.811 1138.96 111.418C1136.97 109.959 1135.41 108.433 1134.28 106.841C1133.22 105.183 1132.49 103.624 1132.09 102.164C1131.7 100.705 1131.56 99.5112 1131.7 98.5825ZM1213.93 116.095C1209.02 116.095 1204.54 115.033 1200.5 112.91C1196.52 110.721 1193.33 107.703 1190.94 103.856C1188.62 99.9423 1187.46 95.4317 1187.46 90.324C1187.46 85.0837 1188.65 80.5398 1191.04 76.6925C1193.43 72.8452 1196.65 69.8602 1200.69 67.7375C1204.81 65.5485 1209.45 64.454 1214.62 64.454C1220.33 64.454 1224.91 65.6148 1228.36 67.9365C1231.87 70.1918 1234.42 73.2763 1236.02 77.19C1237.61 81.1037 1238.4 85.4817 1238.4 90.324C1238.4 93.2427 1237.94 96.2277 1237.01 99.279C1236.08 102.264 1234.66 105.05 1232.73 107.637C1230.81 110.158 1228.29 112.214 1225.17 113.806C1222.05 115.332 1218.31 116.095 1213.93 116.095ZM1218.11 106.144C1222.02 106.144 1225.4 105.481 1228.26 104.154C1231.11 102.828 1233.3 100.97 1234.82 98.5825C1236.35 96.1945 1237.11 93.4417 1237.11 90.324C1237.11 86.941 1236.32 84.0887 1234.72 81.767C1233.2 79.379 1231.01 77.588 1228.16 76.394C1225.37 75.1337 1222.02 74.5035 1218.11 74.5035C1212.6 74.5035 1208.32 75.9628 1205.27 78.8815C1202.22 81.7338 1200.69 85.548 1200.69 90.324C1200.69 93.508 1201.42 96.294 1202.88 98.682C1204.34 101.004 1206.37 102.828 1208.95 104.154C1211.61 105.481 1214.66 106.144 1218.11 106.144ZM1237.11 65.5485H1250.05V115H1238.01C1238.01 115 1237.91 114.37 1237.71 113.109C1237.58 111.783 1237.44 110.124 1237.31 108.134C1237.18 106.144 1237.11 104.188 1237.11 102.264V65.5485ZM1286.43 107.438C1281.06 107.438 1276.31 106.642 1272.2 105.05C1268.15 103.392 1265 100.97 1262.75 97.7865C1260.49 94.6025 1259.37 90.7552 1259.37 86.2445C1259.37 81.8002 1260.46 77.9528 1262.65 74.7025C1264.84 71.4522 1267.96 68.9315 1272 67.1405C1276.11 65.3495 1280.92 64.454 1286.43 64.454C1287.95 64.454 1289.41 64.5535 1290.81 64.7525C1292.27 64.9515 1293.69 65.2168 1295.09 65.5485L1320.06 65.648V75.399C1316.68 75.4653 1313.23 75.0673 1309.71 74.205C1306.26 73.2763 1303.21 72.2813 1300.56 71.22L1300.26 70.5235C1302.52 71.5848 1304.64 72.9115 1306.63 74.5035C1308.62 76.0292 1310.21 77.8202 1311.4 79.8765C1312.66 81.8665 1313.29 84.1882 1313.29 86.8415C1313.29 91.1532 1312.2 94.8678 1310.01 97.9855C1307.82 101.037 1304.7 103.392 1300.66 105.05C1296.68 106.642 1291.93 107.438 1286.43 107.438ZM1303.05 135.398V133.01C1303.05 129.958 1302.05 127.836 1300.06 126.642C1298.14 125.448 1295.48 124.851 1292.1 124.851H1276.68C1273.69 124.851 1271.17 124.618 1269.12 124.154C1267.13 123.69 1265.53 123.026 1264.34 122.164C1263.15 121.302 1262.28 120.274 1261.75 119.08C1261.22 117.952 1260.96 116.725 1260.96 115.398C1260.96 112.745 1261.82 110.755 1263.54 109.428C1265.27 108.035 1267.59 107.106 1270.51 106.642C1273.43 106.178 1276.65 106.078 1280.16 106.343L1286.43 107.438C1282.25 107.571 1279.13 107.935 1277.08 108.532C1275.09 109.063 1274.09 110.158 1274.09 111.816C1274.09 112.811 1274.49 113.607 1275.29 114.204C1276.08 114.735 1277.21 115 1278.67 115H1294.89C1299.33 115 1303.11 115.464 1306.23 116.393C1309.41 117.388 1311.83 119.013 1313.49 121.269C1315.15 123.59 1315.98 126.741 1315.98 130.721V135.398H1303.05ZM1286.43 98.085C1289.28 98.085 1291.77 97.6207 1293.89 96.692C1296.08 95.7633 1297.77 94.4367 1298.97 92.712C1300.16 90.921 1300.76 88.7983 1300.76 86.344C1300.76 83.8233 1300.16 81.6675 1298.97 79.8765C1297.77 78.0855 1296.11 76.7257 1293.99 75.797C1291.87 74.802 1289.35 74.3045 1286.43 74.3045C1283.58 74.3045 1281.06 74.802 1278.87 75.797C1276.68 76.7257 1274.99 78.0855 1273.79 79.8765C1272.6 81.6675 1272 83.8233 1272 86.344C1272 88.7983 1272.6 90.921 1273.79 92.712C1274.99 94.4367 1276.65 95.7633 1278.77 96.692C1280.96 97.6207 1283.51 98.085 1286.43 98.085ZM1372.71 98.5825H1385.24C1384.71 101.965 1383.29 104.984 1380.97 107.637C1378.71 110.29 1375.63 112.38 1371.71 113.905C1367.8 115.431 1363.02 116.194 1357.38 116.194C1351.08 116.194 1345.51 115.199 1340.67 113.209C1335.83 111.153 1332.04 108.201 1329.32 104.353C1326.6 100.506 1325.25 95.8628 1325.25 90.4235C1325.25 84.9842 1326.57 80.3408 1329.23 76.4935C1331.88 72.5798 1335.56 69.5948 1340.27 67.5385C1345.05 65.4822 1350.62 64.454 1356.99 64.454C1363.49 64.454 1368.89 65.4822 1373.2 67.5385C1377.52 69.5948 1380.7 72.7125 1382.76 76.8915C1384.88 81.0042 1385.77 86.2777 1385.44 92.712H1338.28C1338.61 95.2327 1339.54 97.5212 1341.07 99.5775C1342.66 101.634 1344.78 103.259 1347.43 104.453C1350.15 105.647 1353.37 106.244 1357.09 106.244C1361.2 106.244 1364.61 105.547 1367.33 104.154C1370.12 102.695 1371.91 100.838 1372.71 98.5825ZM1356.39 74.3045C1351.61 74.3045 1347.73 75.3658 1344.75 77.4885C1341.76 79.5448 1339.84 82.0987 1338.98 85.15H1372.61C1372.28 81.8333 1370.68 79.2132 1367.83 77.2895C1365.05 75.2995 1361.23 74.3045 1356.39 74.3045Z" fill="#6D3E78"/>
<path d="M76.135 96.709C35.9278 96.709 3.3335 105.656 3.3335 116.694C3.3335 122.567 12.5633 127.849 27.2583 131.505L47.3843 135.059C56.9282 136.158 66.5281 136.698 76.135 136.678C116.342 136.678 148.936 127.731 148.936 116.694C148.936 105.656 116.342 96.709 76.135 96.709Z" fill="#A78BAE"/>
<path d="M70.0822 96.709C33.218 96.709 3.3335 105.656 3.3335 116.694C3.3335 122.567 11.7959 127.849 25.2692 131.505L43.7219 135.059C52.4654 136.157 61.27 136.698 70.0821 136.678C106.946 136.678 136.831 127.731 136.831 116.694C136.831 105.656 106.946 96.709 70.0822 96.709Z" fill="#F0EBF1"/>
<path d="M76.135 98.1365C50.9069 98.1365 30.4556 103.888 30.4556 110.984C30.4556 115.739 39.6416 119.891 53.2949 122.112L70.2375 123.725C72.1681 123.795 74.1339 123.831 76.135 123.831C101.363 123.831 121.814 118.079 121.814 110.984C121.814 103.889 101.363 98.1365 76.135 98.1365Z" fill="#A78BAE"/>
<path d="M70.2947 98.1365C48.2921 98.1365 30.4556 103.888 30.4556 110.984C30.4556 115.739 38.4671 119.891 50.3748 122.112L65.1512 123.725C66.835 123.795 68.5495 123.831 70.2947 123.831C92.2973 123.831 110.134 118.079 110.134 110.984C110.134 103.889 92.2973 98.1365 70.2947 98.1365Z" fill="#F0EBF1"/>
<path d="M76.1349 107.968C76.1349 107.968 53.3406 115.875 37.5042 110.111C26.046 105.573 16.5444 97.1564 10.6559 86.33C10.4645 85.9893 10.3487 85.6113 10.3166 85.2218C10.2844 84.8324 10.3367 84.4406 10.4697 84.0731C10.6027 83.7056 10.8133 83.3712 11.0873 83.0925C11.3613 82.8139 11.6921 82.5976 12.0573 82.4584C23.5296 77.9467 36.2217 77.6058 47.9197 81.495C63.7561 87.259 76.1349 107.968 76.1349 107.968Z" fill="#8A6593"/>
<path d="M76.1348 107.968C76.1348 107.968 88.5136 87.259 104.35 81.495C116.048 77.6058 128.74 77.9467 140.212 82.4584C140.578 82.5976 140.908 82.8139 141.182 83.0925C141.456 83.3712 141.667 83.7056 141.8 84.0731C141.933 84.4406 141.985 84.8324 141.953 85.2218C141.921 85.6113 141.805 85.9893 141.614 86.33C135.725 97.1564 126.224 105.573 114.766 110.111C98.9291 115.875 76.1348 107.968 76.1348 107.968Z" fill="#8A6593"/>
<path d="M76.1349 104.26C76.1349 104.26 53.3406 111.164 37.5041 106.131C26.4295 102.511 16.9453 95.1758 10.6559 85.3676C10.4708 85.0629 10.3602 84.7189 10.333 84.3635C10.3058 84.0081 10.3628 83.6513 10.4993 83.322C10.6358 82.9927 10.848 82.7003 11.1187 82.4684C11.3894 82.2364 11.711 82.0716 12.0573 81.9872C23.6436 78.043 36.1612 77.7494 47.9197 81.1462C63.7561 86.1787 76.1349 104.26 76.1349 104.26Z" fill="#D3C5D7"/>
<path d="M76.1348 104.26C76.1348 104.26 88.5136 86.1787 104.35 81.1462C116.108 77.7494 128.626 78.043 140.212 81.9872C140.559 82.0716 140.88 82.2364 141.151 82.4684C141.422 82.7003 141.634 82.9927 141.77 83.322C141.907 83.6513 141.964 84.0081 141.937 84.3635C141.909 84.7189 141.799 85.0629 141.614 85.3676C135.324 95.1758 125.84 102.511 114.766 106.131C98.9291 111.164 76.1348 104.26 76.1348 104.26Z" fill="#D3C5D7"/>
<path d="M76.1349 107.968C76.1349 107.968 48.2136 100.031 36.5837 83.4217C24.9751 66.8429 25.7791 47.908 26.6096 40.7785C26.6537 40.3973 26.7781 40.0298 26.9745 39.7002C27.171 39.3706 27.4351 39.0863 27.7494 38.8662C28.0637 38.6462 28.4211 38.4952 28.7981 38.4233C29.175 38.3514 29.5629 38.3603 29.9361 38.4492C36.9198 40.1073 54.9876 45.8278 66.5963 62.4066C78.2262 79.0158 76.1349 107.968 76.1349 107.968Z" fill="#8A6593"/>
<path d="M76.1351 107.968C76.1351 107.968 74.0438 79.0158 85.6737 62.4066C97.2823 45.8278 115.35 40.1073 122.334 38.4492C122.707 38.3603 123.095 38.3514 123.472 38.4233C123.849 38.4952 124.206 38.6462 124.521 38.8662C124.835 39.0863 125.099 39.3706 125.296 39.7002C125.492 40.0298 125.616 40.3973 125.66 40.7785C126.491 47.908 127.295 66.8429 115.686 83.4217C104.056 100.031 76.1351 107.968 76.1351 107.968Z" fill="#8A6593"/>
<path d="M76.1349 103.198C76.1349 103.198 48.2136 95.8053 36.5837 80.3344C28.3497 68.8347 24.7852 54.6394 26.6096 40.614C26.6717 40.246 26.8093 39.895 27.0138 39.5829C27.2183 39.2708 27.4852 39.0044 27.7977 38.8006C28.1102 38.5967 28.4616 38.4598 28.8296 38.3985C29.1977 38.3372 29.5744 38.3528 29.9361 38.4443C36.9198 39.9887 54.9876 45.3171 66.5963 60.7597C78.2262 76.2305 76.1349 103.198 76.1349 103.198Z" fill="#D3C5D7"/>
<path d="M76.1351 103.198C76.1351 103.198 74.0438 76.2305 85.6737 60.7597C97.2823 45.3172 115.35 39.9887 122.334 38.4443C122.696 38.3528 123.072 38.3372 123.44 38.3985C123.808 38.4598 124.16 38.5967 124.472 38.8006C124.785 39.0044 125.052 39.2708 125.256 39.5829C125.461 39.895 125.598 40.246 125.66 40.614C127.485 54.6394 123.92 68.8347 115.686 80.3344C104.056 95.8052 76.1351 103.198 76.1351 103.198Z" fill="#D3C5D7"/>
<path d="M76.1351 107.968C76.1351 107.968 53.2954 79.8952 53.2954 54.616C53.2954 28.6114 68.5488 9.47875 74.1249 3.35334C74.3795 3.07333 74.6899 2.84961 75.0361 2.69652C75.3822 2.54343 75.7566 2.46436 76.1351 2.46436C76.5136 2.46436 76.8879 2.54343 77.2341 2.69652C77.5803 2.84961 77.8906 3.07333 78.1453 3.35334C83.7214 9.47875 98.9748 28.6114 98.9748 54.616C98.9748 79.8952 76.1351 107.968 76.1351 107.968Z" fill="#8A6593"/>
<path d="M76.135 99.5642C76.135 99.5642 55.7129 73.7276 55.7129 50.4619C55.7129 26.5287 69.3517 8.92003 74.3376 3.28254C74.5613 3.02563 74.8375 2.81966 75.1476 2.67852C75.4576 2.53738 75.7943 2.46436 76.135 2.46436C76.4757 2.46436 76.8124 2.53738 77.1225 2.67852C77.4325 2.81966 77.7087 3.02563 77.9325 3.28254C82.9183 8.92003 96.5571 26.5287 96.5571 50.4619C96.5571 73.7276 76.135 99.5642 76.135 99.5642Z" fill="#D3C5D7"/>
<path d="M133.822 103.769C138.886 98.9228 143.027 93.1967 146.042 86.8698C146.319 86.2286 146.34 85.506 146.101 84.8499C145.862 84.1938 145.381 83.6537 144.757 83.3402C138.029 80.2527 130.765 78.5 123.368 78.1792C128.8 65.9089 130.517 52.3161 128.308 39.0804C128.17 38.3951 127.773 37.7892 127.2 37.3881C126.627 36.987 125.922 36.8213 125.231 36.9252C116.672 38.5211 108.491 41.7169 101.117 46.345C98.3041 29.1259 90.2341 13.1984 78.0133 0.746036C77.5052 0.266881 76.8332 0 76.1349 0C75.4365 0 74.7645 0.266881 74.2564 0.746036C62.0357 13.1984 53.9657 29.1259 51.1528 46.3449C43.7786 41.7168 35.5978 38.521 27.0391 36.9251C26.3474 36.8199 25.6418 36.9851 25.0687 37.3864C24.4956 37.7878 24.0991 38.3944 23.9614 39.0803C21.7517 52.3205 23.4712 65.918 28.9071 78.1914C21.5125 78.5271 14.2504 80.2748 7.51259 83.3402C6.88872 83.6537 6.40822 84.1938 6.16939 84.8499C5.93055 85.506 5.95142 86.2286 6.22773 86.8698C9.24341 93.1966 13.384 98.9226 18.4477 103.768C6.36259 107.826 0 113.086 0 119.113C0 128.266 14.247 133.729 26.1984 136.702C26.9013 136.872 27.6427 136.756 28.2609 136.381C28.879 136.006 29.3238 135.402 29.4982 134.7C29.6725 133.998 29.5624 133.256 29.1917 132.635C28.821 132.015 28.2198 131.566 27.5194 131.386C11.2495 127.341 5.47633 122.247 5.47633 119.113C5.47633 116.214 10.2252 111.812 23.3563 107.971C24.789 109.05 26.2774 110.053 27.8153 110.976C27.5132 111.733 27.3535 112.54 27.3442 113.356C27.3442 121.883 43.2103 125.739 52.6682 127.279C53.3834 127.392 54.114 127.217 54.7003 126.792C55.2867 126.367 55.6811 125.728 55.7974 125.013C55.9136 124.299 55.7422 123.567 55.3207 122.979C54.8992 122.39 54.2618 121.992 53.5479 121.872C38.7291 119.461 33.4037 115.495 32.8728 113.652C33.9662 114.147 35.0835 114.623 36.2525 115.048C48.0913 119.356 64.5647 116.899 76.135 113.197C87.8074 116.932 104.218 119.342 116.019 115.048C117.178 114.626 118.285 114.155 119.369 113.664C118.536 117.206 103.373 123.57 76.135 123.57C74.1536 123.57 72.2043 123.536 70.287 123.466C69.5662 123.448 68.8673 123.715 68.3422 124.209C67.817 124.703 67.5081 125.384 67.4824 126.105C67.4566 126.825 67.7163 127.527 68.2049 128.057C68.6935 128.588 69.3715 128.904 70.0918 128.937C72.0706 129.009 74.085 129.046 76.1349 129.046C100.381 129.046 124.926 123.656 124.926 113.355C124.917 112.54 124.757 111.734 124.454 110.976C125.992 110.053 127.481 109.05 128.914 107.971C142.046 111.813 146.794 116.213 146.794 119.113C146.794 126.383 119.912 136.523 76.1349 136.523C66.5566 136.545 56.9851 136.005 47.4698 134.908C46.7522 134.83 46.033 135.039 45.4685 135.489C44.904 135.938 44.5399 136.593 44.4553 137.309C44.3707 138.026 44.5725 138.747 45.0169 139.316C45.4612 139.885 46.1121 140.255 46.8281 140.347C56.5564 141.469 66.3421 142.021 76.135 141.999C113.044 141.999 152.27 133.977 152.27 119.113C152.27 113.085 145.907 107.826 133.822 103.769ZM123.336 42.8988C124.109 49.7148 124.882 68.1252 113.766 83.9979C106.575 94.2672 92.5439 101.184 83.5844 104.774C90.5667 94.5169 101.899 75.0246 101.899 56.5281C101.899 55.159 101.804 53.838 101.727 52.5076C108.304 48.0492 115.621 44.7956 123.336 42.8988ZM76.1377 6.69833C81.4923 12.6025 96.4226 31.3311 96.4226 56.5281C96.4226 76.222 81.7263 98.1594 76.1337 105.794C70.541 98.1647 55.8475 76.2488 55.8475 56.5281C55.8474 31.3926 70.787 12.6159 76.1377 6.69833ZM28.9338 42.8961C36.6521 44.7861 43.9702 48.0411 50.5426 52.5074C50.4664 53.8382 50.3711 55.1588 50.3711 56.5281C50.3711 75.0284 61.708 94.5248 68.6899 104.78C59.7351 101.196 45.7082 94.2848 38.504 83.9979C27.3855 68.1198 28.1624 49.7067 28.9338 42.8961ZM38.1256 109.904C27.2054 105.525 18.1504 97.4813 12.5155 87.1532C18.6689 84.8257 25.192 83.6284 31.7709 83.6192C32.4738 84.7976 33.2025 85.974 34.017 87.1372C42.1229 98.7137 57.3016 106.18 66.8586 109.97C59.033 111.675 47.2343 113.219 38.1256 109.904ZM114.146 109.904C105.041 113.213 93.2446 111.671 85.418 109.967C94.9752 106.177 110.149 98.711 118.253 87.1372C119.067 85.9755 119.794 84.8004 120.496 83.6236C127.076 83.6499 133.599 84.8478 139.758 87.1613C134.135 97.4973 125.075 105.542 114.146 109.904Z" fill="#6D3E78"/>
<path d="M64.5618 125.348C64.5618 125.918 64.393 126.474 64.0767 126.948C63.7604 127.421 63.3109 127.79 62.785 128.008C62.259 128.226 61.6803 128.283 61.122 128.172C60.5636 128.06 60.0508 127.786 59.6482 127.384C59.2457 126.981 58.9715 126.468 58.8605 125.91C58.7494 125.352 58.8064 124.773 59.0243 124.247C59.2421 123.721 59.6111 123.272 60.0844 122.955C60.5577 122.639 61.1142 122.47 61.6835 122.47C62.4469 122.47 63.179 122.773 63.7187 123.313C64.2585 123.853 64.5618 124.585 64.5618 125.348Z" fill="#6D3E78"/>
<path d="M39.8267 136.382C39.8267 136.951 39.6579 137.508 39.3417 137.981C39.0254 138.454 38.5759 138.823 38.05 139.041C37.524 139.259 36.9453 139.316 36.3869 139.205C35.8286 139.094 35.3157 138.82 34.9132 138.417C34.5106 138.015 34.2365 137.502 34.1254 136.944C34.0143 136.385 34.0713 135.806 34.2891 135.281C34.507 134.755 34.8759 134.305 35.3493 133.989C35.8226 133.672 36.3791 133.504 36.9484 133.504C37.7117 133.504 38.4438 133.807 38.9836 134.347C39.5234 134.886 39.8266 135.618 39.8267 136.382Z" fill="#6D3E78"/>
</svg>
