<svg width="1329" height="375" viewBox="0 0 1329 375" fill="none" xmlns="http://www.w3.org/2000/svg">
<g clip-path="url(#clip0_80_327)">
<path fill-rule="evenodd" clip-rule="evenodd" d="M261.361 85.3348C236.219 53.3259 178.595 29.4635 138.624 71.836C111.981 100.061 110.009 148.548 154.23 179.479C137.329 159.351 137.83 142.623 140.576 126.335C143.594 130.275 145.524 132.328 149.202 133.265C135.479 108.805 140.407 88.0626 152.723 79.8357C145.527 117.032 198.628 148.751 195.558 183.841C194.499 191.5 190.292 197.743 185.45 196.797C177.769 194.349 169.727 192.632 161.282 191.855C109.918 181.817 80.7119 109.464 126.832 62.4663C170.52 23.4423 235.802 38.313 261.361 85.3348Z" fill="#F12626"/>
<path fill-rule="evenodd" clip-rule="evenodd" d="M171.707 69.9254C171.707 69.9254 171.359 98.919 201.621 115.54C201.621 115.54 204.868 117.195 195.976 123.178C187.085 129.16 186.011 130.553 183.378 127.999C180.745 125.445 147.631 95.0829 171.707 69.9254Z" fill="#F12626"/>
<path fill-rule="evenodd" clip-rule="evenodd" d="M182.442 81.3465C182.442 81.3465 183.958 97.4482 203.592 107.695C203.592 107.695 208.016 96.6144 201.205 87.8539C194.379 79.1636 182.442 81.3465 182.442 81.3465Z" fill="#F12626"/>
<path fill-rule="evenodd" clip-rule="evenodd" d="M209.693 85.7982C254.56 91.4348 240.732 138.334 191.907 135.056C191.991 134.999 227.872 115.791 209.693 85.7982Z" fill="#F12626"/>
<path fill-rule="evenodd" clip-rule="evenodd" d="M249.892 98.1705C249.892 98.1705 251.097 138.976 189.2 144.432C189.2 144.432 211.668 170.747 198.414 195.325C198.414 195.325 248.309 174.485 249.095 136.545C249.095 136.545 237.626 146.394 236.215 144.298C235.495 143.137 260.81 125.433 249.892 98.1705Z" fill="#F12626"/>
<path fill-rule="evenodd" clip-rule="evenodd" d="M166.478 199.936C145.834 205.297 140.732 221.708 157.08 243.549C177.629 232.342 184.797 217.282 166.478 199.936Z" fill="#F12626"/>
<path fill-rule="evenodd" clip-rule="evenodd" d="M174.479 201.864C174.479 201.864 183.906 209.169 181.133 222.611C181.133 222.611 178.913 224.654 194.701 227.739C195.432 225.115 195.89 201.897 174.479 201.864Z" fill="#C4AB69"/>
<path fill-rule="evenodd" clip-rule="evenodd" d="M184.871 202.365C184.871 202.365 191.376 205.239 193.928 211.565C193.928 211.565 196.502 213.306 204.244 210.594C204.188 210.511 200.673 199.044 184.871 202.365Z" fill="#C4AB69"/>
<path fill-rule="evenodd" clip-rule="evenodd" d="M157.428 198.531C157.428 198.531 145.944 201.75 143.452 215.247C143.452 215.247 144.74 217.975 128.952 214.89C129.262 212.183 137.509 190.487 157.428 198.531Z" fill="#C4AB69"/>
<path fill-rule="evenodd" clip-rule="evenodd" d="M147.611 195.083C147.611 195.083 140.503 195.296 135.757 200.196C135.757 200.196 132.717 200.84 126.565 195.413C126.649 195.357 134.222 186.057 147.611 195.083Z" fill="#C4AB69"/>
<path fill-rule="evenodd" clip-rule="evenodd" d="M296.299 87.3557C287.086 106.168 328.537 141.582 280.841 165.329C293.691 147.664 264.964 110.512 296.299 87.3557Z" fill="#C4AB69"/>
<path fill-rule="evenodd" clip-rule="evenodd" d="M313.01 134.178C302.629 205.932 227.194 127.458 152.901 313.019C225.42 195.431 249.795 237.706 274.234 199.509C275.168 198.089 276.575 196.106 277.343 198.514C282.578 215.342 271.418 228.457 246.195 241.591C262.615 238.463 296.348 225.026 309.937 187.549C312.226 185.156 320.297 183.747 310.754 181.882C314.531 167.397 316.637 152.149 313.01 134.178Z" fill="#C4AB69"/>
<path fill-rule="evenodd" clip-rule="evenodd" d="M313.985 205.602C312.467 230.143 273.622 263.776 251.729 262.848C278.652 250.338 300.718 227.264 313.985 205.602Z" fill="#C4AB69"/>
<path fill-rule="evenodd" clip-rule="evenodd" d="M306.677 236.659C296.331 262.388 278.54 278.868 250.526 282.424C272.675 271.603 291.622 256.66 306.677 236.659Z" fill="#C4AB69"/>
<path fill-rule="evenodd" clip-rule="evenodd" d="M286.417 278.076C279.699 290.457 269.295 296.726 257.267 300.494C268.068 295.176 277.951 288.221 286.417 278.076Z" fill="#C4AB69"/>
<path fill-rule="evenodd" clip-rule="evenodd" d="M87.3319 46.516C88.7846 67.4126 36.9797 84.6016 72.2956 124.571C66.9715 103.355 107.573 79.7519 87.3319 46.516Z" fill="#C4AB69"/>
<path fill-rule="evenodd" clip-rule="evenodd" d="M54.1519 83.5876C36.754 153.971 136.183 109.671 135.148 309.55C112.235 173.311 73.738 203.298 65.4778 158.71C65.148 157.043 64.5906 154.676 62.9727 156.618C51.7874 170.238 57.1882 186.589 75.6108 208.253C61.5767 199.173 35.3846 174.024 36.9047 134.189C35.6852 131.11 28.7392 126.766 38.2823 128.631C40.3059 113.804 44.0257 98.8708 54.1519 83.5876Z" fill="#C4AB69"/>
<path fill-rule="evenodd" clip-rule="evenodd" d="M26.3572 149.389C18.524 172.696 41.849 218.48 62.4799 225.862C42.3183 204.15 30.5627 174.466 26.3572 149.389Z" fill="#C4AB69"/>
<path fill-rule="evenodd" clip-rule="evenodd" d="M21.5054 180.926C21.4039 208.657 31.6811 230.622 56.2948 244.465C39.7797 226.087 27.8523 205.11 21.5054 180.926Z" fill="#C4AB69"/>
<path fill-rule="evenodd" clip-rule="evenodd" d="M24.6118 226.91C26.1742 240.909 33.4526 250.634 43.1772 258.653C35.2431 249.673 28.6358 239.496 24.6118 226.91Z" fill="#C4AB69"/>
<path d="M157.735 252.126L155.209 251.632L145.68 300.391L148.206 300.885L157.735 252.126Z" fill="#C4AB69"/>
</g>
<path d="M340.426 281.7C338.826 281.7 338.026 280.8 338.026 279C338.026 278.6 338.126 278.2 338.326 277.8C338.326 277.4 338.426 276.9 338.626 276.3C339.826 271.7 342.426 265.5 346.426 257.7C350.626 249.9 355.726 241.2 361.726 231.6C367.926 221.8 374.526 211.8 381.526 201.6C380.326 197.4 379.826 194 380.026 191.4C380.226 189.4 381.526 187.1 383.926 184.5C386.526 181.7 389.326 179.4 392.326 177.6C395.526 175.6 398.026 174.8 399.826 175.2C407.626 164.6 414.926 154.9 421.726 146.1C428.526 137.3 434.226 130.3 438.826 125.1C443.626 119.9 446.626 117.3 447.826 117.3C449.426 117.3 450.626 118 451.426 119.4C452.226 120.8 452.626 122.1 452.626 123.3C452.626 123.3 450.226 126.3 445.426 132.3C440.826 138.1 434.726 145.9 427.126 155.7C419.726 165.3 411.826 175.9 403.426 187.5C403.626 187.7 403.726 188 403.726 188.4C403.726 188.8 403.826 189.2 404.026 189.6L414.826 188.7C425.026 187.9 435.826 186.1 447.226 183.3C458.626 180.3 469.826 176.6 480.826 172.2C491.826 167.6 501.626 162.4 510.226 156.6C519.826 150 527.726 143 533.926 135.6C540.326 128 543.526 121.1 543.526 114.9C543.526 108.7 539.826 103.6 532.426 99.6C525.026 95.4 512.526 93.3 494.926 93.3C488.926 93.3 481.526 94 472.726 95.4C463.926 96.8 454.426 98.7 444.226 101.1C434.226 103.5 424.226 106.4 414.226 109.8C404.426 113 395.426 116.5 387.226 120.3C379.226 124.1 372.826 128 368.026 132C364.826 134.8 363.726 137.1 364.726 138.9C365.126 139.5 365.326 140.1 365.326 140.7C365.326 141.1 365.126 141.3 364.726 141.3C364.126 141.3 363.326 141 362.326 140.4C359.126 138.4 356.726 135.9 355.126 132.9C353.726 129.7 353.026 126.8 353.026 124.2C353.026 121.8 353.426 120.2 354.226 119.4C357.826 114.2 363.726 109.2 371.926 104.4C380.326 99.6 390.126 95.2 401.326 91.2C412.526 87.2 424.426 83.7 437.026 80.7C449.626 77.7 461.926 75.4 473.926 73.8C486.126 72.2 497.226 71.4 507.226 71.4C515.426 71.4 522.326 72 527.926 73.2C535.726 74.8 542.326 78.7 547.726 84.9C553.126 90.9 555.826 98.3 555.826 107.1C555.826 115.3 552.526 124.3 545.926 134.1C539.526 143.9 528.426 153.4 512.626 162.6C503.826 167.8 493.726 172.7 482.326 177.3C470.926 181.7 459.326 185.4 447.526 188.4C435.926 191.4 425.126 193.2 415.126 193.8C413.526 194 411.926 194.1 410.326 194.1C408.726 194.1 407.126 194.1 405.526 194.1C408.726 202.1 413.726 210.4 420.526 219C427.526 227.4 435.326 235.3 443.926 242.7C452.526 249.9 461.126 255.8 469.726 260.4C478.326 264.8 485.726 267 491.926 267C496.726 267 501.026 265.9 504.826 263.7C508.826 261.3 511.126 258.2 511.726 254.4C511.726 253.6 512.126 253.3 512.926 253.5C513.726 253.5 514.026 254 513.826 255C513.026 262 509.226 267.1 502.426 270.3C495.626 273.5 488.026 275.1 479.626 275.1C468.826 275.1 458.526 273.1 448.726 269.1C439.126 265.1 430.126 260 421.726 253.8C413.526 247.4 406.326 240.5 400.126 233.1C394.126 225.7 389.326 218.6 385.726 211.8C377.126 224.4 369.126 236.5 361.726 248.1C354.526 259.7 349.426 269.3 346.426 276.9C346.026 278.3 345.126 279.4 343.726 280.2C342.526 281.2 341.426 281.7 340.426 281.7ZM535.4 270.3C529.2 270.3 524.4 268.4 521 264.6C517.6 260.6 515.9 255.5 515.9 249.3C515.9 243.5 517.4 237.1 520.4 230.1C523.6 223.1 528.6 216 535.4 208.8C542.4 201.2 551.1 195.1 561.5 190.5C571.9 185.7 581.8 183.3 591.2 183.3C598.8 183.3 605.3 185 610.7 188.4C616.1 191.6 619.7 195.7 621.5 200.7C623.7 200.7 626.4 201.3 629.6 202.5C633 203.7 634.7 205.9 634.7 209.1C634.7 211.3 633.6 213.8 631.4 216.6C630 218.6 627.5 221.6 623.9 225.6C620.5 229.6 617.3 233.9 614.3 238.5C611.9 242.1 610 245.5 608.6 248.7C607.2 251.7 606.5 254.3 606.5 256.5C606.5 259.5 608 261 611 261C614.4 261 619.5 259.1 626.3 255.3C633.7 251.1 640.8 246.3 647.6 240.9C654.4 235.5 659.7 231.2 663.5 228C664.5 227.2 665.2 226.8 665.6 226.8C666.4 226.8 666.8 227.3 666.8 228.3C666.8 229.5 666.3 230.6 665.3 231.6C663.5 233.2 660 236.2 654.8 240.6C649.6 245 643.6 249.6 636.8 254.4C630.2 259.2 623.7 263.1 617.3 266.1C614.1 267.5 611.1 268.6 608.3 269.4C605.7 270 603.3 270.3 601.1 270.3C595.7 270.3 591.6 268.8 588.8 265.8C586 262.6 584.6 258.5 584.6 253.5C584.6 251.5 584.9 249.4 585.5 247.2C586.1 245 586.8 242.8 587.6 240.6L589.7 235.5C584.5 241.9 579.3 247.3 574.1 251.7C568.9 255.9 563.7 259.6 558.5 262.8C554.1 265.4 549.9 267.3 545.9 268.5C542.1 269.7 538.6 270.3 535.4 270.3ZM544.7 262.5C548.3 262.5 553.5 260.4 560.3 256.2C567.1 251.8 575 245.1 584 236.1C585.2 234.9 587.4 232.8 590.6 229.8C594 226.6 597.6 223.1 601.4 219.3C605.2 215.3 608.4 211.4 611 207.6C613.8 203.6 615.2 200.3 615.2 197.7C615.2 193.9 611.9 192 605.3 192C599.5 192 592.5 194.3 584.3 198.9C576.3 203.3 568.6 209.9 561.2 218.7C553.6 227.7 548 235.5 544.4 242.1C541 248.5 539.3 253.4 539.3 256.8C539.3 260.6 541.1 262.5 544.7 262.5ZM672.676 293.7C668.276 289.7 665.276 286 663.676 282.6C662.276 279.4 661.576 274.9 661.576 269.1C661.576 263.1 662.376 256.4 663.976 249C665.776 241.6 668.276 233.9 671.476 225.9C669.476 227.9 667.376 229.9 665.176 231.9C662.976 233.9 660.776 235.7 658.576 237.3C657.976 237.9 657.376 238.2 656.776 238.2C656.176 238.2 655.876 237.9 655.876 237.3C655.876 235.9 657.076 234 659.476 231.6C662.676 228.8 665.676 225.7 668.476 222.3C671.276 218.9 674.376 215.1 677.776 210.9C687.776 188.7 698.976 168.7 711.376 150.9C723.776 133.1 738.776 116 756.376 99.6C765.376 91.4 773.776 85.5 781.576 81.9C789.576 78.3 796.576 76.5 802.576 76.5C808.576 76.5 813.276 78.1 816.676 81.3C820.076 84.5 821.776 88.7 821.776 93.9C821.776 98.9 820.076 104.6 816.676 111C813.476 117.4 808.176 124.1 800.776 131.1C795.576 136.1 789.376 141.3 782.176 146.7C774.976 151.9 767.576 156.8 759.976 161.4C752.376 166 745.276 169.8 738.676 172.8C738.276 173 737.876 173.2 737.476 173.4C737.076 173.4 736.676 173.4 736.276 173.4C734.876 173.4 734.176 172.9 734.176 171.9C734.176 170.7 735.276 169.7 737.476 168.9C743.676 166.1 750.476 162.3 757.876 157.5C765.476 152.7 772.776 147.5 779.776 141.9C786.776 136.3 792.676 131 797.476 126C803.476 119.6 807.776 114.2 810.376 109.8C813.176 105.2 814.576 101.7 814.576 99.3C814.576 96.3 812.876 94.8 809.476 94.8C805.876 94.8 800.676 96.7 793.876 100.5C787.276 104.1 779.676 109.7 771.076 117.3C760.476 126.7 749.976 137.5 739.576 149.7C729.376 161.9 719.976 174 711.376 186C702.976 197.8 695.976 208.3 690.376 217.5C698.176 207.1 705.776 199 713.176 193.2C720.576 187.4 727.376 183.2 733.576 180.6C738.776 178.6 743.676 177.6 748.276 177.6C753.476 177.6 757.676 178.9 760.876 181.5C764.076 184.1 765.676 187.4 765.676 191.4C765.676 195.4 764.276 199.9 761.476 204.9C758.876 209.9 754.376 214.8 747.976 219.6C742.976 223.2 736.276 226.4 727.876 229.2C719.676 231.8 711.976 233.1 704.776 233.1C700.576 233.1 696.976 232.5 693.976 231.3C697.976 236.3 702.976 241.2 708.976 246C714.976 250.6 721.076 254.4 727.276 257.4C733.676 260.2 739.276 261.6 744.076 261.6C747.476 261.6 750.576 260.7 753.376 258.9C756.176 257.1 757.576 254.9 757.576 252.3C757.576 251.9 757.776 251.7 758.176 251.7C758.776 251.7 759.076 251.9 759.076 252.3C759.076 256.1 757.476 259.2 754.276 261.6C751.276 264 747.576 265.7 743.176 266.7C741.176 267.1 739.076 267.5 736.876 267.9C734.876 268.1 732.776 268.2 730.576 268.2C722.376 268.2 714.676 266.8 707.476 264C700.476 261 694.376 257.4 689.176 253.2C684.176 248.8 680.576 244.6 678.376 240.6C675.776 247 673.776 253.4 672.376 259.8C671.176 266 670.576 271.7 670.576 276.9C670.576 283.9 671.776 288.9 674.176 291.9C674.776 292.7 674.776 293.2 674.176 293.4C673.576 293.8 673.076 293.9 672.676 293.7ZM699.076 229.8C704.076 229.8 709.976 228.6 716.776 226.2C723.776 223.8 729.476 220.9 733.876 217.5C737.476 214.7 740.076 211.7 741.676 208.5C743.476 205.3 744.376 202.4 744.376 199.8C744.376 197 743.476 194.7 741.676 192.9C740.076 190.9 737.676 189.9 734.476 189.9C731.276 189.9 727.476 191 723.076 193.2C718.676 195.2 713.576 198.8 707.776 204C704.576 207 701.276 210.1 697.876 213.3C694.676 216.5 691.676 219.8 688.876 223.2C689.276 224.2 689.776 225.3 690.376 226.5C690.976 227.5 691.676 228.2 692.476 228.6C693.276 229 694.276 229.3 695.476 229.5C696.676 229.7 697.876 229.8 699.076 229.8ZM847.41 143.1C846.21 143.1 844.91 142.6 843.51 141.6C839.91 138.2 838.11 133.9 838.11 128.7C838.11 122.5 840.71 116.1 845.91 109.5C851.31 102.7 859.21 97.3 869.61 93.3C881.41 88.7 894.21 84.9 908.01 81.9C921.81 78.7 935.91 76.4 950.31 75C964.91 73.4 978.91 72.6 992.31 72.6C997.31 72.6 1002.21 72.7 1007.01 72.9C1011.81 73.1 1016.41 73.4 1020.81 73.8C1050.21 76.6 1072.61 82.2 1088.01 90.6C1103.61 99 1111.41 107.8 1111.41 117C1111.41 120.8 1110.11 124.4 1107.51 127.8C1106.31 129.4 1104.51 131 1102.11 132.6C1099.91 134 1098.11 134.7 1096.71 134.7C1095.51 134.7 1094.91 134.1 1094.91 132.9C1094.91 131.5 1095.91 129.2 1097.91 126C1100.31 122.4 1101.51 119.1 1101.51 116.1C1101.51 110.3 1097.81 105.8 1090.41 102.6C1083.21 99.2 1073.71 96.9 1061.91 95.7C1050.31 94.3 1037.81 93.6 1024.41 93.6C1015.21 93.6 1005.91 93.9 996.51 94.5C987.11 94.9 978.31 95.5 970.11 96.3C966.31 96.7 960.51 97.4 952.71 98.4C945.11 99.4 936.51 100.7 926.91 102.3C917.31 103.7 907.61 105.5 897.81 107.7C888.01 109.7 879.01 112 870.81 114.6C862.61 117.2 855.91 120.1 850.71 123.3C845.71 126.3 843.21 129.7 843.21 133.5C843.21 136.1 844.71 138.8 847.71 141.6C848.11 142 848.31 142.3 848.31 142.5C848.31 142.9 848.01 143.1 847.41 143.1ZM929.91 294.3C919.51 293.5 912.41 290.2 908.61 284.4C904.81 278.6 902.91 271.8 902.91 264C902.91 257.4 903.81 250.6 905.61 243.6C907.41 236.6 909.31 230.2 911.31 224.4C913.31 218.8 915.91 212.9 919.11 206.7C922.51 200.5 927.01 193.1 932.61 184.5C938.41 175.9 945.91 165.1 955.11 152.1C964.31 139.1 975.71 123 989.31 103.8C991.71 100.8 993.81 99.3 995.61 99.3C996.81 99.3 997.61 99.8 998.01 100.8C998.61 101.6 998.71 102.4 998.31 103.2C979.51 131 965.01 154.9 954.81 174.9C944.81 194.7 937.41 211.6 932.61 225.6C931.61 228.4 930.31 232.4 928.71 237.6C927.31 242.6 926.01 248.1 924.81 254.1C923.61 259.9 923.01 265.4 923.01 270.6C923.01 276.2 924.01 281 926.01 285C928.01 289 931.51 291 936.51 291C939.51 291 942.31 290 944.91 288C945.91 287.4 946.51 287.1 946.71 287.1C947.11 287.1 947.31 287.3 947.31 287.7C947.31 288.3 946.71 289.1 945.51 290.1C941.71 293.5 936.51 294.9 929.91 294.3ZM1038.09 270.3C1033.09 270.3 1029.09 268.9 1026.09 266.1C1023.29 263.3 1021.89 259.5 1021.89 254.7C1021.89 251.7 1022.59 248.3 1023.99 244.5C1025.39 240.7 1027.59 236.8 1030.59 232.8C1035.19 226.6 1039.59 221.2 1043.79 216.6C1047.99 211.8 1051.09 207.5 1053.09 203.7C1055.09 200.1 1056.09 197.3 1056.09 195.3C1056.09 192.3 1054.29 190.8 1050.69 190.8C1047.49 190.8 1042.89 192.6 1036.89 196.2C1031.09 199.6 1024.99 205.2 1018.59 213C1014.99 217.4 1010.89 222.6 1006.29 228.6C1001.69 234.4 997.995 239.8 995.195 244.8C993.995 247 992.795 249.3 991.595 251.7C990.595 253.9 988.995 257.7 986.795 263.1C986.195 264.5 984.495 266 981.695 267.6C979.095 269.2 976.995 270 975.395 270C974.195 270 973.595 269.5 973.595 268.5C973.595 267.7 973.895 266.7 974.495 265.5C975.495 263.7 977.695 258 981.095 248.4C984.695 238.8 989.195 227.5 994.595 214.5C991.595 217.7 988.295 221.2 984.695 225C981.095 228.6 977.095 232.1 972.695 235.5C971.895 236.3 970.995 236.7 969.995 236.7C968.795 236.7 968.195 236.2 968.195 235.2C968.195 234.4 969.095 233.3 970.895 231.9C975.495 227.9 980.095 223.7 984.695 219.3C989.295 214.7 994.295 209 999.695 202.2C1001.49 197.8 1004.69 191.5 1009.29 183.3C1013.89 174.9 1019.39 165.6 1025.79 155.4C1032.19 145.2 1039.29 135 1047.09 124.8C1054.89 114.6 1062.89 105.5 1071.09 97.5C1078.49 90.3 1086.19 84.8 1094.19 81C1102.39 77.2 1109.79 75.3 1116.39 75.3C1122.19 75.3 1126.89 76.7 1130.49 79.5C1134.09 82.3 1135.89 86.8 1135.89 93C1135.89 99.2 1134.19 105.8 1130.79 112.8C1127.39 119.8 1123.79 125.4 1119.99 129.6C1111.39 139.2 1101.19 148 1089.39 156C1077.79 164 1065.59 170.8 1052.79 176.4C1052.39 176.6 1051.99 176.8 1051.59 177C1051.19 177 1050.79 177 1050.39 177C1048.99 177 1048.29 176.5 1048.29 175.5C1048.29 174.3 1049.39 173.3 1051.59 172.5C1059.19 169.1 1066.89 164.9 1074.69 159.9C1082.69 154.9 1090.09 149.5 1096.89 143.7C1103.69 137.9 1109.39 132.1 1113.99 126.3C1119.39 119.5 1122.89 114 1124.49 109.8C1126.09 105.4 1126.89 101.7 1126.89 98.7C1126.89 94.7 1124.69 92.7 1120.29 92.7C1118.29 92.7 1115.39 93.7 1111.59 95.7C1107.79 97.5 1103.29 100.5 1098.09 104.7C1090.09 111.1 1081.79 118.9 1073.19 128.1C1064.79 137.3 1056.49 147.3 1048.29 158.1C1040.29 168.9 1032.69 179.9 1025.49 191.1C1018.29 202.3 1011.79 213.2 1005.99 223.8C1008.39 220.4 1010.89 217 1013.49 213.6C1016.09 210 1018.69 206.8 1021.29 204C1027.29 197.4 1033.19 192.6 1038.99 189.6C1044.79 186.6 1049.99 185.1 1054.59 185.1C1059.79 185.1 1063.99 186.7 1067.19 189.9C1070.39 192.9 1071.99 197 1071.99 202.2C1071.99 205 1071.49 207.8 1070.49 210.6C1069.69 213.2 1068.69 215.6 1067.49 217.8C1065.89 221.2 1063.79 225.2 1061.19 229.8C1058.59 234.4 1056.09 238.7 1053.69 242.7C1049.09 250.1 1046.79 255.4 1046.79 258.6C1046.79 260.4 1047.59 261.3 1049.19 261.3C1051.19 261.3 1054.49 259.9 1059.09 257.1C1062.69 254.9 1066.69 252.1 1071.09 248.7C1075.69 245.1 1080.19 241.4 1084.59 237.6C1089.19 233.8 1093.09 230.5 1096.29 227.7C1099.69 224.7 1101.89 222.7 1102.89 221.7C1104.09 220.5 1104.99 219.9 1105.59 219.9C1106.19 219.9 1106.49 220.2 1106.49 220.8C1106.49 221.8 1105.79 223.2 1104.39 225C1099.19 230.4 1092.69 236.5 1084.89 243.3C1077.09 250.1 1068.29 256.7 1058.49 263.1C1054.69 265.7 1050.99 267.6 1047.39 268.8C1043.99 269.8 1040.89 270.3 1038.09 270.3ZM1110.79 270.3C1104.59 270.3 1099.79 268.4 1096.39 264.6C1092.99 260.6 1091.29 255.5 1091.29 249.3C1091.29 243.5 1092.79 237.1 1095.79 230.1C1098.99 223.1 1103.99 216 1110.79 208.8C1117.79 201.2 1126.49 195.1 1136.89 190.5C1147.29 185.7 1157.19 183.3 1166.59 183.3C1174.19 183.3 1180.69 185 1186.09 188.4C1191.49 191.6 1195.09 195.7 1196.89 200.7C1199.09 200.7 1201.79 201.3 1204.99 202.5C1208.39 203.7 1210.09 205.9 1210.09 209.1C1210.09 211.3 1208.99 213.8 1206.79 216.6C1205.39 218.6 1202.89 221.6 1199.29 225.6C1195.89 229.6 1192.69 233.9 1189.69 238.5C1187.29 242.1 1185.39 245.5 1183.99 248.7C1182.59 251.7 1181.89 254.3 1181.89 256.5C1181.89 259.5 1183.39 261 1186.39 261C1189.79 261 1194.89 259.1 1201.69 255.3C1209.09 251.1 1216.19 246.3 1222.99 240.9C1229.79 235.5 1235.09 231.2 1238.89 228C1239.89 227.2 1240.59 226.8 1240.99 226.8C1241.79 226.8 1242.19 227.3 1242.19 228.3C1242.19 229.5 1241.69 230.6 1240.69 231.6C1238.89 233.2 1235.39 236.2 1230.19 240.6C1224.99 245 1218.99 249.6 1212.19 254.4C1205.59 259.2 1199.09 263.1 1192.69 266.1C1189.49 267.5 1186.49 268.6 1183.69 269.4C1181.09 270 1178.69 270.3 1176.49 270.3C1171.09 270.3 1166.99 268.8 1164.19 265.8C1161.39 262.6 1159.99 258.5 1159.99 253.5C1159.99 251.5 1160.29 249.4 1160.89 247.2C1161.49 245 1162.19 242.8 1162.99 240.6L1165.09 235.5C1159.89 241.9 1154.69 247.3 1149.49 251.7C1144.29 255.9 1139.09 259.6 1133.89 262.8C1129.49 265.4 1125.29 267.3 1121.29 268.5C1117.49 269.7 1113.99 270.3 1110.79 270.3ZM1120.09 262.5C1123.69 262.5 1128.89 260.4 1135.69 256.2C1142.49 251.8 1150.39 245.1 1159.39 236.1C1160.59 234.9 1162.79 232.8 1165.99 229.8C1169.39 226.6 1172.99 223.1 1176.79 219.3C1180.59 215.3 1183.79 211.4 1186.39 207.6C1189.19 203.6 1190.59 200.3 1190.59 197.7C1190.59 193.9 1187.29 192 1180.69 192C1174.89 192 1167.89 194.3 1159.69 198.9C1151.69 203.3 1143.99 209.9 1136.59 218.7C1128.99 227.7 1123.39 235.5 1119.79 242.1C1116.39 248.5 1114.69 253.4 1114.69 256.8C1114.69 260.6 1116.49 262.5 1120.09 262.5ZM1303.87 178.2C1301.07 178.2 1298.97 177.3 1297.57 175.5C1296.17 173.7 1295.47 171.8 1295.47 169.8C1295.47 165.8 1297.37 161.9 1301.17 158.1C1304.97 154.1 1308.97 152.1 1313.17 152.1C1315.97 152.1 1318.07 153 1319.47 154.8C1320.87 156.6 1321.57 158.5 1321.57 160.5C1321.57 164.7 1319.67 168.7 1315.87 172.5C1312.27 176.3 1308.27 178.2 1303.87 178.2ZM1257.97 270.3C1249.77 270.3 1244.17 268.6 1241.17 265.2C1238.37 261.6 1236.97 257.6 1236.97 253.2C1236.97 249.6 1237.57 246.2 1238.77 243C1239.97 239.6 1240.97 237.2 1241.77 235.8C1242.97 233.8 1244.57 231.5 1246.57 228.9C1248.77 226.3 1251.17 223.5 1253.77 220.5C1249.77 223.9 1245.97 227.2 1242.37 230.4C1238.97 233.6 1236.17 236 1233.97 237.6C1233.37 238.2 1232.77 238.5 1232.17 238.5C1231.37 238.5 1230.97 238 1230.97 237C1230.97 235.4 1232.07 233.8 1234.27 232.2C1239.47 227.8 1244.47 223 1249.27 217.8C1254.27 212.6 1258.97 207.8 1263.37 203.4C1267.77 198.8 1271.67 195.6 1275.07 193.8C1278.67 191.8 1281.57 190.5 1283.77 189.9C1285.97 189.3 1287.77 189 1289.17 189C1291.37 189 1292.97 189.4 1293.97 190.2C1294.97 190.8 1295.17 191.5 1294.57 192.3C1291.17 195.7 1287.77 200.1 1284.37 205.5C1281.17 210.7 1278.17 216.2 1275.37 222C1272.57 227.8 1270.27 233.3 1268.47 238.5C1266.87 243.7 1266.07 248.1 1266.07 251.7C1266.07 256.7 1268.07 259.2 1272.07 259.2C1275.87 259.2 1280.77 257.5 1286.77 254.1C1292.97 250.5 1299.37 246 1305.97 240.6C1312.77 235.2 1319.07 229.9 1324.87 224.7C1325.67 223.9 1326.37 223.5 1326.97 223.5C1327.97 223.5 1328.47 224 1328.47 225C1328.67 226 1328.47 226.7 1327.87 227.1C1321.27 233.3 1313.77 239.8 1305.37 246.6C1297.17 253.2 1288.87 258.8 1280.47 263.4C1272.27 268 1264.77 270.3 1257.97 270.3Z" fill="#F12626"/>
<defs>
<clipPath id="clip0_80_327">
<rect width="295" height="277" fill="white" transform="translate(53.1304 11.28) rotate(11.0583)"/>
</clipPath>
</defs>
</svg>
