<svg width="1406" height="123" viewBox="0 0 1406 123" fill="none" xmlns="http://www.w3.org/2000/svg">
<path d="M190.383 74.309H203.815C204.081 76.5643 205.109 78.6207 206.9 80.478C208.757 82.269 211.178 83.6952 214.163 84.7565C217.148 85.7515 220.498 86.249 224.213 86.249C227.596 86.249 230.382 85.8842 232.571 85.1545C234.76 84.4248 236.385 83.3967 237.446 82.07C238.508 80.7433 239.038 79.1513 239.038 77.294C239.038 75.503 238.375 74.1432 237.048 73.2145C235.722 72.2195 233.632 71.4235 230.78 70.8265C227.928 70.1632 224.18 69.4998 219.536 68.8365C215.888 68.3058 212.439 67.5762 209.188 66.6475C205.938 65.6525 203.053 64.3922 200.532 62.8665C198.078 61.3408 196.121 59.4835 194.661 57.2945C193.268 55.0392 192.572 52.3858 192.572 49.3345C192.572 45.5535 193.633 42.2368 195.756 39.3845C197.945 36.5322 201.162 34.31 205.407 32.718C209.653 31.126 214.86 30.33 221.029 30.33C230.316 30.33 237.446 32.32 242.421 36.3C247.463 40.2137 249.917 45.6198 249.784 52.5185H236.849C236.584 48.6048 234.926 45.7857 231.874 44.061C228.889 42.3363 225.108 41.474 220.531 41.474C216.286 41.474 212.77 42.1042 209.984 43.3645C207.265 44.6248 205.905 46.7807 205.905 49.832C205.905 51.026 206.237 52.0873 206.9 53.016C207.563 53.8783 208.691 54.6412 210.283 55.3045C211.875 55.9678 214.031 56.598 216.75 57.195C219.47 57.792 222.853 58.389 226.899 58.986C230.68 59.5167 234.097 60.2463 237.148 61.175C240.266 62.0373 242.919 63.1982 245.108 64.6575C247.363 66.0505 249.088 67.8415 250.282 70.0305C251.476 72.2195 252.073 74.906 252.073 78.09C252.073 82.0037 251.045 85.4198 248.988 88.3385C246.998 91.1908 243.881 93.413 239.635 95.005C235.456 96.597 230.017 97.393 223.317 97.393C218.541 97.393 214.329 96.8955 210.681 95.9005C207.033 94.8392 203.882 93.4462 201.228 91.7215C198.575 89.9968 196.419 88.1063 194.761 86.05C193.103 83.9937 191.909 81.9373 191.179 79.881C190.516 77.8247 190.25 75.9673 190.383 74.309ZM291.21 97.194C284.974 97.194 279.469 96.199 274.693 94.209C269.983 92.219 266.302 89.3335 263.648 85.5525C260.995 81.7052 259.668 76.9955 259.668 71.4235C259.668 65.8515 260.995 61.1418 263.648 57.2945C266.302 53.3808 269.983 50.429 274.693 48.439C279.469 46.449 284.974 45.454 291.21 45.454C297.445 45.454 302.884 46.449 307.528 48.439C312.237 50.429 315.919 53.3808 318.572 57.2945C321.226 61.1418 322.552 65.8515 322.552 71.4235C322.552 76.9955 321.226 81.7052 318.572 85.5525C315.919 89.3335 312.237 92.219 307.528 94.209C302.884 96.199 297.445 97.194 291.21 97.194ZM291.21 87.244C294.659 87.244 297.744 86.647 300.463 85.453C303.249 84.1927 305.438 82.4017 307.03 80.08C308.622 77.692 309.418 74.8065 309.418 71.4235C309.418 68.0405 308.622 65.155 307.03 62.767C305.438 60.3127 303.282 58.4553 300.563 57.195C297.843 55.9347 294.725 55.3045 291.21 55.3045C287.76 55.3045 284.643 55.9347 281.857 57.195C279.071 58.4553 276.849 60.2795 275.19 62.6675C273.598 65.0555 272.802 67.9742 272.802 71.4235C272.802 74.8065 273.598 77.692 275.19 80.08C276.782 82.4017 278.971 84.1927 281.757 85.453C284.543 86.647 287.694 87.244 291.21 87.244ZM361.268 97.194C355.033 97.194 349.527 96.199 344.751 94.209C340.041 92.219 336.36 89.3335 333.706 85.5525C331.053 81.7052 329.726 76.9955 329.726 71.4235C329.726 65.8515 331.053 61.1418 333.706 57.2945C336.36 53.3808 340.041 50.429 344.751 48.439C349.527 46.449 355.033 45.454 361.268 45.454C367.503 45.454 372.943 46.449 377.586 48.439C382.296 50.429 385.977 53.3808 388.63 57.2945C391.284 61.1418 392.61 65.8515 392.61 71.4235C392.61 76.9955 391.284 81.7052 388.63 85.5525C385.977 89.3335 382.296 92.219 377.586 94.209C372.943 96.199 367.503 97.194 361.268 97.194ZM361.268 87.244C364.717 87.244 367.802 86.647 370.521 85.453C373.307 84.1927 375.496 82.4017 377.088 80.08C378.68 77.692 379.476 74.8065 379.476 71.4235C379.476 68.0405 378.68 65.155 377.088 62.767C375.496 60.3127 373.341 58.4553 370.621 57.195C367.901 55.9347 364.784 55.3045 361.268 55.3045C357.819 55.3045 354.701 55.9347 351.915 57.195C349.129 58.4553 346.907 60.2795 345.248 62.6675C343.656 65.0555 342.86 67.9742 342.86 71.4235C342.86 74.8065 343.656 77.692 345.248 80.08C346.84 82.4017 349.029 84.1927 351.815 85.453C354.601 86.647 357.752 87.244 361.268 87.244ZM403.068 26.6485H416.003V96H403.068V26.6485ZM457.694 46.5485L428.242 72.518L428.54 64.558L459.982 96H443.565L416.302 68.2395L440.082 46.5485H457.694ZM507.883 70.8265V31.6235H521.116V71.722C521.116 75.105 520.486 78.3222 519.226 81.3735C518.032 84.4248 516.208 87.1445 513.753 89.5325C511.365 91.8542 508.38 93.6783 504.798 95.005C501.283 96.3317 497.17 96.995 492.46 96.995C488.812 96.995 485.263 96.5307 481.814 95.602C478.431 94.6733 475.379 93.2803 472.66 91.423C469.94 89.4993 467.751 87.1113 466.093 84.259C464.434 81.3403 463.539 77.9242 463.406 74.0105H475.943C476.673 77.7915 478.53 80.677 481.515 82.667C484.567 84.5907 488.215 85.5525 492.46 85.5525C496.109 85.5525 499.06 84.9223 501.316 83.662C503.571 82.3353 505.229 80.5775 506.291 78.3885C507.352 76.1332 507.883 73.6125 507.883 70.8265ZM558.789 97.0945C553.88 97.0945 549.402 96.0332 545.356 93.9105C541.376 91.7215 538.192 88.7033 535.804 84.856C533.482 80.9423 532.322 76.4317 532.322 71.324C532.322 66.0837 533.516 61.5398 535.904 57.6925C538.292 53.8452 541.509 50.8602 545.555 48.7375C549.668 46.5485 554.311 45.454 559.485 45.454C565.19 45.454 569.767 46.6148 573.216 48.9365C576.732 51.1918 579.286 54.2763 580.878 58.19C582.47 62.1037 583.266 66.4817 583.266 71.324C583.266 74.2427 582.801 77.2277 581.873 80.279C580.944 83.264 579.518 86.05 577.594 88.637C575.67 91.1577 573.15 93.214 570.032 94.806C566.914 96.3317 563.167 97.0945 558.789 97.0945ZM562.968 87.1445C566.881 87.1445 570.264 86.4812 573.117 85.1545C575.969 83.8278 578.158 81.9705 579.684 79.5825C581.209 77.1945 581.972 74.4417 581.972 71.324C581.972 67.941 581.176 65.0887 579.584 62.767C578.058 60.379 575.869 58.588 573.017 57.394C570.231 56.1337 566.881 55.5035 562.968 55.5035C557.462 55.5035 553.183 56.9628 550.132 59.8815C547.081 62.7338 545.555 66.548 545.555 71.324C545.555 74.508 546.285 77.294 547.744 79.682C549.203 82.0037 551.227 83.8278 553.814 85.1545C556.467 86.4812 559.518 87.1445 562.968 87.1445ZM581.972 46.5485H594.907V96H582.868C582.868 96 582.768 95.3698 582.569 94.1095C582.436 92.7828 582.304 91.1245 582.171 89.1345C582.038 87.1445 581.972 85.1877 581.972 83.264V46.5485ZM621.439 24.8575V36.2005H606.415V24.8575H621.439ZM607.41 46.5485H620.345V96H607.41V46.5485ZM649.275 31.6235H717.134V42.668H649.275V31.6235ZM676.637 41.275H689.871V96H676.637V41.275ZM765.085 96V68.8365C765.085 66.1168 764.62 63.8615 763.692 62.0705C762.763 60.2795 761.271 58.9197 759.214 57.991C757.224 57.0623 754.538 56.598 751.155 56.598C747.904 56.598 744.953 57.2282 742.299 58.4885C739.646 59.6825 737.49 61.2745 735.832 63.2645C734.173 65.1882 733.245 67.2445 733.046 69.4335L732.946 63.961C733.278 61.772 734.041 59.583 735.235 57.394C736.429 55.205 738.021 53.215 740.011 51.424C742.001 49.633 744.389 48.2068 747.175 47.1455C750.027 46.0178 753.211 45.454 756.727 45.454C759.778 45.454 762.597 45.852 765.184 46.648C767.771 47.3777 770.027 48.5385 771.95 50.1305C773.874 51.7225 775.366 53.7125 776.428 56.1005C777.489 58.4222 778.02 61.175 778.02 64.359V96H765.085ZM720.807 96V26.6485H733.742V96H720.807ZM813.855 97.0945C808.946 97.0945 804.468 96.0332 800.422 93.9105C796.442 91.7215 793.258 88.7033 790.87 84.856C788.548 80.9423 787.388 76.4317 787.388 71.324C787.388 66.0837 788.582 61.5398 790.97 57.6925C793.358 53.8452 796.575 50.8602 800.621 48.7375C804.734 46.5485 809.377 45.454 814.551 45.454C820.256 45.454 824.833 46.6148 828.282 48.9365C831.798 51.1918 834.352 54.2763 835.944 58.19C837.536 62.1037 838.332 66.4817 838.332 71.324C838.332 74.2427 837.867 77.2277 836.939 80.279C836.01 83.264 834.584 86.05 832.66 88.637C830.736 91.1577 828.216 93.214 825.098 94.806C821.98 96.3317 818.233 97.0945 813.855 97.0945ZM818.034 87.1445C821.947 87.1445 825.33 86.4812 828.183 85.1545C831.035 83.8278 833.224 81.9705 834.75 79.5825C836.275 77.1945 837.038 74.4417 837.038 71.324C837.038 67.941 836.242 65.0887 834.65 62.767C833.124 60.379 830.935 58.588 828.083 57.394C825.297 56.1337 821.947 55.5035 818.034 55.5035C812.528 55.5035 808.249 56.9628 805.198 59.8815C802.147 62.7338 800.621 66.548 800.621 71.324C800.621 74.508 801.351 77.294 802.81 79.682C804.269 82.0037 806.293 83.8278 808.88 85.1545C811.533 86.4812 814.584 87.1445 818.034 87.1445ZM837.038 46.5485H849.973V96H837.934C837.934 96 837.834 95.3698 837.635 94.1095C837.502 92.7828 837.37 91.1245 837.237 89.1345C837.104 87.1445 837.038 85.1877 837.038 83.264V46.5485ZM876.505 24.8575V36.2005H861.481V24.8575H876.505ZM862.476 46.5485H875.411V96H862.476V46.5485ZM964.044 89.433H957.776L994.79 31.6235H1008.02V96H994.79V49.235L997.974 50.1305L968.422 96H953.597L924.045 50.3295L927.229 49.434V96H913.996V31.6235H927.229L964.044 89.433ZM1045.7 97.0945C1040.79 97.0945 1036.31 96.0332 1032.26 93.9105C1028.28 91.7215 1025.1 88.7033 1022.71 84.856C1020.39 80.9423 1019.23 76.4317 1019.23 71.324C1019.23 66.0837 1020.42 61.5398 1022.81 57.6925C1025.2 53.8452 1028.42 50.8602 1032.46 48.7375C1036.58 46.5485 1041.22 45.454 1046.39 45.454C1052.1 45.454 1056.68 46.6148 1060.12 48.9365C1063.64 51.1918 1066.19 54.2763 1067.79 58.19C1069.38 62.1037 1070.17 66.4817 1070.17 71.324C1070.17 74.2427 1069.71 77.2277 1068.78 80.279C1067.85 83.264 1066.43 86.05 1064.5 88.637C1062.58 91.1577 1060.06 93.214 1056.94 94.806C1053.82 96.3317 1050.08 97.0945 1045.7 97.0945ZM1049.88 87.1445C1053.79 87.1445 1057.17 86.4812 1060.03 85.1545C1062.88 83.8278 1065.07 81.9705 1066.59 79.5825C1068.12 77.1945 1068.88 74.4417 1068.88 71.324C1068.88 67.941 1068.08 65.0887 1066.49 62.767C1064.97 60.379 1062.78 58.588 1059.93 57.394C1057.14 56.1337 1053.79 55.5035 1049.88 55.5035C1044.37 55.5035 1040.09 56.9628 1037.04 59.8815C1033.99 62.7338 1032.46 66.548 1032.46 71.324C1032.46 74.508 1033.19 77.294 1034.65 79.682C1036.11 82.0037 1038.14 83.8278 1040.72 85.1545C1043.38 86.4812 1046.43 87.1445 1049.88 87.1445ZM1068.88 46.5485H1081.82V96H1069.78C1069.78 96 1069.68 95.3698 1069.48 94.1095C1069.35 92.7828 1069.21 91.1245 1069.08 89.1345C1068.95 87.1445 1068.88 85.1877 1068.88 83.264V46.5485ZM1091.53 79.5825H1103.47C1104.2 81.8378 1105.69 83.6952 1107.95 85.1545C1110.27 86.5475 1113.29 87.244 1117 87.244C1119.53 87.244 1121.48 87.0118 1122.88 86.5475C1124.27 86.0832 1125.23 85.4198 1125.76 84.5575C1126.29 83.6288 1126.56 82.6007 1126.56 81.473C1126.56 80.08 1126.13 79.0187 1125.26 78.289C1124.4 77.493 1123.07 76.8628 1121.28 76.3985C1119.49 75.9342 1117.2 75.503 1114.42 75.105C1111.63 74.6407 1108.95 74.0768 1106.36 73.4135C1103.77 72.7502 1101.48 71.8878 1099.49 70.8265C1097.5 69.6988 1095.91 68.3058 1094.72 66.6475C1093.59 64.9228 1093.03 62.8333 1093.03 60.379C1093.03 57.991 1093.59 55.8683 1094.72 54.011C1095.91 52.1537 1097.54 50.5948 1099.59 49.3345C1101.71 48.0742 1104.17 47.1123 1106.96 46.449C1109.81 45.7857 1112.86 45.454 1116.11 45.454C1121.02 45.454 1125.1 46.1837 1128.35 47.643C1131.6 49.036 1134.02 51.026 1135.61 53.613C1137.27 56.1337 1138.1 59.0523 1138.1 62.369H1126.66C1126.13 59.9147 1125.06 58.1568 1123.47 57.0955C1121.88 55.9678 1119.43 55.404 1116.11 55.404C1112.86 55.404 1110.4 55.9015 1108.75 56.8965C1107.09 57.8915 1106.26 59.2513 1106.26 60.976C1106.26 62.369 1106.76 63.4635 1107.75 64.2595C1108.81 64.9892 1110.34 65.5862 1112.33 66.0505C1114.38 66.5148 1116.94 67.0123 1119.99 67.543C1122.58 68.0737 1125.03 68.6707 1127.35 69.334C1129.74 69.9973 1131.86 70.8597 1133.72 71.921C1135.58 72.916 1137.04 74.2758 1138.1 76.0005C1139.23 77.6588 1139.79 79.7815 1139.79 82.3685C1139.79 85.5525 1138.86 88.239 1137 90.428C1135.21 92.617 1132.63 94.3085 1129.24 95.5025C1125.86 96.6302 1121.81 97.194 1117.1 97.194C1112.93 97.194 1109.31 96.7628 1106.26 95.9005C1103.27 94.9718 1100.79 93.811 1098.8 92.418C1096.81 90.9587 1095.25 89.433 1094.12 87.841C1093.06 86.1827 1092.33 84.6238 1091.93 83.1645C1091.53 81.7052 1091.4 80.5112 1091.53 79.5825ZM1147.7 79.5825H1159.64C1160.37 81.8378 1161.86 83.6952 1164.11 85.1545C1166.43 86.5475 1169.45 87.244 1173.17 87.244C1175.69 87.244 1177.65 87.0118 1179.04 86.5475C1180.43 86.0832 1181.39 85.4198 1181.92 84.5575C1182.45 83.6288 1182.72 82.6007 1182.72 81.473C1182.72 80.08 1182.29 79.0187 1181.43 78.289C1180.56 77.493 1179.24 76.8628 1177.45 76.3985C1175.66 75.9342 1173.37 75.503 1170.58 75.105C1167.79 74.6407 1165.11 74.0768 1162.52 73.4135C1159.93 72.7502 1157.65 71.8878 1155.66 70.8265C1153.67 69.6988 1152.07 68.3058 1150.88 66.6475C1149.75 64.9228 1149.19 62.8333 1149.19 60.379C1149.19 57.991 1149.75 55.8683 1150.88 54.011C1152.07 52.1537 1153.7 50.5948 1155.76 49.3345C1157.88 48.0742 1160.33 47.1123 1163.12 46.449C1165.97 45.7857 1169.02 45.454 1172.27 45.454C1177.18 45.454 1181.26 46.1837 1184.51 47.643C1187.76 49.036 1190.18 51.026 1191.77 53.613C1193.43 56.1337 1194.26 59.0523 1194.26 62.369H1182.82C1182.29 59.9147 1181.23 58.1568 1179.64 57.0955C1178.04 55.9678 1175.59 55.404 1172.27 55.404C1169.02 55.404 1166.57 55.9015 1164.91 56.8965C1163.25 57.8915 1162.42 59.2513 1162.42 60.976C1162.42 62.369 1162.92 63.4635 1163.91 64.2595C1164.98 64.9892 1166.5 65.5862 1168.49 66.0505C1170.55 66.5148 1173.1 67.0123 1176.15 67.543C1178.74 68.0737 1181.19 68.6707 1183.52 69.334C1185.9 69.9973 1188.03 70.8597 1189.88 71.921C1191.74 72.916 1193.2 74.2758 1194.26 76.0005C1195.39 77.6588 1195.95 79.7815 1195.95 82.3685C1195.95 85.5525 1195.02 88.239 1193.17 90.428C1191.38 92.617 1188.79 94.3085 1185.41 95.5025C1182.02 96.6302 1177.98 97.194 1173.27 97.194C1169.09 97.194 1165.47 96.7628 1162.42 95.9005C1159.44 94.9718 1156.95 93.811 1154.96 92.418C1152.97 90.9587 1151.41 89.433 1150.28 87.841C1149.22 86.1827 1148.49 84.6238 1148.09 83.1645C1147.7 81.7052 1147.56 80.5112 1147.7 79.5825ZM1229.93 97.0945C1225.02 97.0945 1220.54 96.0332 1216.5 93.9105C1212.52 91.7215 1209.33 88.7033 1206.94 84.856C1204.62 80.9423 1203.46 76.4317 1203.46 71.324C1203.46 66.0837 1204.65 61.5398 1207.04 57.6925C1209.43 53.8452 1212.65 50.8602 1216.69 48.7375C1220.81 46.5485 1225.45 45.454 1230.62 45.454C1236.33 45.454 1240.91 46.6148 1244.36 48.9365C1247.87 51.1918 1250.42 54.2763 1252.02 58.19C1253.61 62.1037 1254.4 66.4817 1254.4 71.324C1254.4 74.2427 1253.94 77.2277 1253.01 80.279C1252.08 83.264 1250.66 86.05 1248.73 88.637C1246.81 91.1577 1244.29 93.214 1241.17 94.806C1238.05 96.3317 1234.31 97.0945 1229.93 97.0945ZM1234.11 87.1445C1238.02 87.1445 1241.4 86.4812 1244.26 85.1545C1247.11 83.8278 1249.3 81.9705 1250.82 79.5825C1252.35 77.1945 1253.11 74.4417 1253.11 71.324C1253.11 67.941 1252.32 65.0887 1250.72 62.767C1249.2 60.379 1247.01 58.588 1244.16 57.394C1241.37 56.1337 1238.02 55.5035 1234.11 55.5035C1228.6 55.5035 1224.32 56.9628 1221.27 59.8815C1218.22 62.7338 1216.69 66.548 1216.69 71.324C1216.69 74.508 1217.42 77.294 1218.88 79.682C1220.34 82.0037 1222.37 83.8278 1224.95 85.1545C1227.61 86.4812 1230.66 87.1445 1234.11 87.1445ZM1253.11 46.5485H1266.05V96H1254.01C1254.01 96 1253.91 95.3698 1253.71 94.1095C1253.58 92.7828 1253.44 91.1245 1253.31 89.1345C1253.18 87.1445 1253.11 85.1877 1253.11 83.264V46.5485ZM1302.43 88.438C1297.06 88.438 1292.31 87.642 1288.2 86.05C1284.15 84.3917 1281 81.9705 1278.75 78.7865C1276.49 75.6025 1275.37 71.7552 1275.37 67.2445C1275.37 62.8002 1276.46 58.9528 1278.65 55.7025C1280.84 52.4522 1283.96 49.9315 1288 48.1405C1292.11 46.3495 1296.92 45.454 1302.43 45.454C1303.95 45.454 1305.41 45.5535 1306.81 45.7525C1308.27 45.9515 1309.69 46.2168 1311.09 46.5485L1336.06 46.648V56.399C1332.68 56.4653 1329.23 56.0673 1325.71 55.205C1322.26 54.2763 1319.21 53.2813 1316.56 52.22L1316.26 51.5235C1318.51 52.5848 1320.64 53.9115 1322.63 55.5035C1324.62 57.0292 1326.21 58.8202 1327.4 60.8765C1328.66 62.8665 1329.29 65.1882 1329.29 67.8415C1329.29 72.1532 1328.2 75.8678 1326.01 78.9855C1323.82 82.0368 1320.7 84.3917 1316.66 86.05C1312.68 87.642 1307.93 88.438 1302.43 88.438ZM1319.05 116.398V114.01C1319.05 110.958 1318.05 108.836 1316.06 107.642C1314.14 106.448 1311.48 105.851 1308.1 105.851H1292.68C1289.69 105.851 1287.17 105.618 1285.12 105.154C1283.13 104.69 1281.53 104.026 1280.34 103.164C1279.15 102.302 1278.28 101.274 1277.75 100.08C1277.22 98.9518 1276.96 97.7247 1276.96 96.398C1276.96 93.7447 1277.82 91.7547 1279.54 90.428C1281.27 89.035 1283.59 88.1063 1286.51 87.642C1289.43 87.1777 1292.64 87.0782 1296.16 87.3435L1302.43 88.438C1298.25 88.5707 1295.13 88.9355 1293.08 89.5325C1291.09 90.0632 1290.09 91.1577 1290.09 92.816C1290.09 93.811 1290.49 94.607 1291.29 95.204C1292.08 95.7347 1293.21 96 1294.67 96H1310.89C1315.33 96 1319.11 96.4643 1322.23 97.393C1325.41 98.388 1327.83 100.013 1329.49 102.269C1331.15 104.59 1331.98 107.741 1331.98 111.721V116.398H1319.05ZM1302.43 79.085C1305.28 79.085 1307.77 78.6207 1309.89 77.692C1312.08 76.7633 1313.77 75.4367 1314.97 73.712C1316.16 71.921 1316.76 69.7983 1316.76 67.344C1316.76 64.8233 1316.16 62.6675 1314.97 60.8765C1313.77 59.0855 1312.11 57.7257 1309.99 56.797C1307.87 55.802 1305.35 55.3045 1302.43 55.3045C1299.58 55.3045 1297.06 55.802 1294.87 56.797C1292.68 57.7257 1290.99 59.0855 1289.79 60.8765C1288.6 62.6675 1288 64.8233 1288 67.344C1288 69.7983 1288.6 71.921 1289.79 73.712C1290.99 75.4367 1292.64 76.7633 1294.77 77.692C1296.96 78.6207 1299.51 79.085 1302.43 79.085ZM1388.71 79.5825H1401.24C1400.71 82.9655 1399.29 85.9837 1396.96 88.637C1394.71 91.2903 1391.63 93.3798 1387.71 94.9055C1383.8 96.4312 1379.02 97.194 1373.38 97.194C1367.08 97.194 1361.51 96.199 1356.67 94.209C1351.83 92.1527 1348.04 89.2008 1345.32 85.3535C1342.6 81.5062 1341.24 76.8628 1341.24 71.4235C1341.24 65.9842 1342.57 61.3408 1345.22 57.4935C1347.88 53.5798 1351.56 50.5948 1356.27 48.5385C1361.05 46.4822 1366.62 45.454 1372.99 45.454C1379.49 45.454 1384.89 46.4822 1389.2 48.5385C1393.52 50.5948 1396.7 53.7125 1398.76 57.8915C1400.88 62.0042 1401.77 67.2777 1401.44 73.712H1354.28C1354.61 76.2327 1355.54 78.5212 1357.07 80.5775C1358.66 82.6338 1360.78 84.259 1363.43 85.453C1366.15 86.647 1369.37 87.244 1373.08 87.244C1377.2 87.244 1380.61 86.5475 1383.33 85.1545C1386.12 83.6952 1387.91 81.8378 1388.71 79.5825ZM1372.39 55.3045C1367.61 55.3045 1363.73 56.3658 1360.75 58.4885C1357.76 60.5448 1355.84 63.0987 1354.98 66.15H1388.61C1388.28 62.8333 1386.68 60.2132 1383.83 58.2895C1381.04 56.2995 1377.23 55.3045 1372.39 55.3045Z" fill="#6D3E78"/>
<path d="M38.8527 41.8706C28.9885 52.54 23.1505 54.1505 23.1505 54.1505C23.1505 54.1505 28.5859 57.5727 37.6448 55.3583C36.6383 57.1701 35.833 59.1832 35.0278 61.1963C34.6252 62.2028 34.2225 63.2094 33.8199 64.0146C18.9231 63.8133 6.44189 56.1636 0 51.3321C10.8707 56.1636 26.5728 41.2667 39.054 31.4025C66.2307 10.4664 86.1603 26.7724 86.1603 26.7724C76.0948 20.5318 56.7692 22.1423 38.8527 41.8706Z" fill="#6D3E78"/>
<path d="M55.964 15.4997C44.892 17.1102 40.6645 15.2985 40.6645 15.2985C40.6645 15.2985 42.275 19.9286 48.7169 22.9482C47.3077 23.5521 45.8986 24.3573 44.2881 25.1626C43.6842 25.5652 42.8789 25.9678 42.275 26.3704C33.4174 19.1233 29.5925 8.65524 28.1833 2.61597C32.4108 10.6683 48.9182 9.25917 60.9967 9.46048C87.1669 9.86309 91.3944 29.1888 91.3944 29.1888C88.5761 20.7338 76.0949 12.4801 55.964 15.4997Z" fill="#C4AB69"/>
<path d="M37.2426 62.0039C30.5994 79.1152 23.9562 103.272 10.2672 104.883C19.7287 105.89 37.0413 105.89 52.1395 96.8306C52.5421 92.4018 52.7434 87.5702 52.9447 82.9401C44.2884 93.8108 34.8269 93.811 34.8269 93.811C34.8269 93.811 39.6583 88.778 43.0806 72.472C49.3212 42.2756 67.439 29.1905 81.128 29.5932C81.3293 29.5932 51.7369 25.1644 37.2426 62.0039Z" fill="#C4AB69"/>
<path d="M55.9644 73.8806C54.9579 92.1997 56.1657 117.162 43.6846 123C53.9513 120.786 72.6731 114.545 84.1477 98.239C98.642 77.5041 81.3294 53.7497 84.5503 36.4371C81.732 41.8724 79.115 51.3339 79.9202 67.4387C81.3294 99.2455 63.4129 104.882 63.4129 104.882C63.4129 104.882 66.4325 98.6416 64.6207 81.9329C60.9972 51.3339 74.2836 33.2161 87.3686 29.1899C87.57 29.3913 58.1788 34.424 55.9644 73.8806Z" fill="#6D3E78"/>
<path d="M141.118 81.1255C150.982 70.4561 156.82 68.8456 156.82 68.8456C156.82 68.8456 151.385 65.4233 142.326 67.6377C143.332 65.826 144.137 63.8129 144.943 61.7998C145.345 60.7932 145.748 59.7867 146.151 58.9814C160.846 59.1828 173.126 66.6312 179.769 71.4626C168.898 67.0338 153.398 81.7294 140.917 91.3922C113.74 112.328 93.8102 96.0223 93.8102 96.0223C103.876 102.464 123.201 100.854 141.118 81.1255Z" fill="#6D3E78"/>
<path d="M124.006 107.499C135.078 105.888 139.306 107.7 139.306 107.7C139.306 107.7 137.695 103.07 131.254 100.05C132.663 99.4462 134.072 98.641 135.682 97.8358C136.286 97.4331 137.092 97.0305 137.695 96.6279C146.553 103.875 150.378 114.343 151.787 120.382C147.56 112.33 131.052 113.739 118.974 113.538C92.8035 113.135 88.576 93.8096 88.576 93.8096C91.3944 102.265 103.674 110.518 124.006 107.499Z" fill="#C4AB69"/>
<path d="M142.728 60.9969C149.372 43.8857 156.015 19.7286 169.704 18.1181C160.242 17.1116 142.93 17.1116 127.831 26.1705C127.429 30.5993 127.228 35.4307 127.026 40.0608C135.683 29.1901 145.144 29.1901 145.144 29.1901C145.144 29.1901 140.313 34.2228 136.89 50.5289C130.65 80.7252 112.532 93.8103 98.8429 93.4077C98.6416 93.4077 128.234 97.8365 142.728 60.9969Z" fill="#C4AB69"/>
<path d="M124.643 49.1194C125.65 30.8003 124.442 5.83797 136.923 0C126.656 2.2144 107.934 8.45498 96.4597 24.761C81.9655 45.4959 99.278 69.2503 96.0571 86.5629C98.8754 81.1276 101.492 71.6661 100.687 55.5613C99.2781 23.7545 117.195 18.1178 117.195 18.1178C117.195 18.1178 114.175 24.3584 115.987 41.0671C119.61 71.6661 106.324 89.7839 93.2388 93.8101C93.0375 93.6087 122.429 88.576 124.643 49.1194Z" fill="#6D3E78"/>
</svg>
