<svg xmlns="http://www.w3.org/2000/svg" xmlns:xlink="http://www.w3.org/1999/xlink" version="1.1" width="512" height="512" x="0" y="0" viewBox="0 0 64 64" style="enable-background:new 0 0 512 512" xml:space="preserve" class=""><g><g data-name="30-sawasdee"><path d="M40 24h-1v-2h.769l1.135-.557A2.3 2.3 0 0 0 42 19.571v-.857c0-.387-.458-.714-1-.714h-1v-2h1a2.871 2.871 0 0 1 3 2.714v.857a4.3 4.3 0 0 1-2.059 3.584 1.014 1.014 0 0 1-.1.058l-1.4.685A1 1 0 0 1 40 24ZM25 24h-1a1 1 0 0 1-.439-.1l-1.4-.685a1.014 1.014 0 0 1-.1-.058A4.3 4.3 0 0 1 20 19.571v-.857A2.871 2.871 0 0 1 23 16h1v2h-1c-.542 0-1 .327-1 .714v.857a2.3 2.3 0 0 0 1.1 1.872l1.131.557H25ZM14.99 50.142l-1.98-.284 1.65-11.552a4.975 4.975 0 0 1 3.369-4.036L27 31.279V28h2v4a1 1 0 0 1-.684.948l-9.654 3.218a2.983 2.983 0 0 0-2.021 2.423ZM17.815 64A5.821 5.821 0 0 1 12 58.185v-.843a5.8 5.8 0 0 1 .059-.822l.665-4.662 1.98.284-.665 4.658a3.875 3.875 0 0 0-.039.539v.843a3.815 3.815 0 0 0 6.686 2.518l5.561-6.355A1 1 0 0 1 27 54h1.25c1.517 0 2.75-1.514 2.75-3.375V42.08a.441.441 0 0 0-.083-.08c-1.025.055-1.483 1.121-1.668 1.764a.945.945 0 0 1-.045.126l-3.288 7.51a1 1 0 0 1-.361.431l-9 6-1.11-1.664L24.2 50.33l3.146-7.182C27.934 41.175 29.3 40 31 40a2.135 2.135 0 0 1 2 2v8.625C33 53.589 30.869 56 28.25 56h-.8l-5.263 6.014A5.814 5.814 0 0 1 17.815 64Zm13.07-22.017Z" fill="#398ede" opacity="1" data-original="#000000" class=""/><path d="M46.185 64a5.814 5.814 0 0 1-4.376-1.986L36.546 56h-.8C33.131 56 31 53.589 31 50.625V42a2.135 2.135 0 0 1 2-2c1.7 0 3.066 1.175 3.653 3.148L39.8 50.33l8.756 5.838-1.11 1.664-9-6a1 1 0 0 1-.361-.431L34.8 43.892a.945.945 0 0 1-.045-.126c-.185-.643-.643-1.709-1.668-1.764a.441.441 0 0 0-.087.078v8.545C33 52.486 34.233 54 35.75 54H37a1 1 0 0 1 .753.342l5.561 6.358A3.815 3.815 0 0 0 50 58.185v-.843a3.875 3.875 0 0 0-.039-.539l-2.6-18.214a2.983 2.983 0 0 0-2.021-2.423l-9.654-3.218A1 1 0 0 1 35 32v-4h2v3.279l8.971 2.991a4.975 4.975 0 0 1 3.369 4.036l2.6 18.214a5.8 5.8 0 0 1 .059.822v.843A5.821 5.821 0 0 1 46.185 64Zm-13.07-22.017Z" fill="#398ede" opacity="1" data-original="#000000" class=""/><path d="m35.093 34.137 3.4-1.999 1.014 1.725-3.4 1.999zM31.693 36.137l1.7-1 1.014 1.725-1.7 1zM21.168 54.555l-.753-1.13a8.421 8.421 0 0 1-.525-8.44l1.215-2.432a1 1 0 0 1 .388-.415l8.5-5 1.014 1.724-8.245 4.85-1.083 2.168a6.418 6.418 0 0 0 .4 6.435l.753 1.13ZM40 64H24a1 1 0 0 1-1-1v-1.86l-.532-1.862 1.924-.549.57 2A1.007 1.007 0 0 1 25 61v1h14v-1a1.007 1.007 0 0 1 .038-.274l.571-2 1.924.548L41 61.14V63a1 1 0 0 1-1 1ZM42.832 54.555l-1.664-1.11.753-1.13a6.424 6.424 0 0 0 1.046-4.215l1.99-.2c.028.284.043.568.043.853a8.393 8.393 0 0 1-1.415 4.673Z" fill="#398ede" opacity="1" data-original="#000000" class=""/><path d="M39.505 51.728 38.495 50c2.559-1.494 7.454-4 11.505-4v2c-2.614 0-6.44 1.358-10.495 3.728ZM28 63h-2c0-3.459 5.166-7.833 7.388-9.554l1.224 1.582C30.045 58.564 28 61.58 28 63ZM14.684 44.949l.632-1.897 6 2-.632 1.897zM14.644 47.935l.712-1.87 5.25 2-.712 1.87zM43 17h-2v-4a6.922 6.922 0 0 0-1.535-4.374l1.56-1.252A9.024 9.024 0 0 1 43 13ZM23 17h-2v-4a9.01 9.01 0 0 1 9-9h4a8.991 8.991 0 0 1 5.951 2.248l-1.322 1.5A7 7 0 0 0 34 6h-4a7.009 7.009 0 0 0-7 7Z" fill="#398ede" opacity="1" data-original="#000000" class=""/><path d="M38 6h-2a4 4 0 0 0-8 0h-2a6 6 0 0 1 12 0ZM32 30a9.271 9.271 0 0 1-9-9.5V15a1 1 0 0 1 1-1c3.533 0 6.249-1.734 7.105-3.447a1.042 1.042 0 0 1 1.79 0C33.751 12.266 36.467 14 40 14a1 1 0 0 1 1 1v5.5a9.271 9.271 0 0 1-9 9.5Zm-7-14.039V20.5a7.271 7.271 0 0 0 7 7.5 7.271 7.271 0 0 0 7-7.5v-4.539a10.447 10.447 0 0 1-7-3.215 10.447 10.447 0 0 1-7 3.215ZM52.593 53.325l1.89-.654 3.462 10.002-1.89.654zM47.402 38.33l1.891-.654 4.497 12.993-1.89.654z" fill="#398ede" opacity="1" data-original="#000000" class=""/></g></g></svg>